<svg width="163" height="55" viewBox="0 0 163 55" fill="none" xmlns="http://www.w3.org/2000/svg">
<path fill-rule="evenodd" clip-rule="evenodd" d="M21.8476 2.89471H22.8287C22.977 2.98847 23.1782 3.03234 23.4052 3.08182C23.7082 3.14787 24.057 3.22392 24.387 3.44201C24.7514 3.65933 25.008 3.91179 25.2986 4.19775C25.3761 4.27406 25.4561 4.35274 25.5412 4.43379C25.8875 4.76548 27.0994 6.30456 27.0994 6.91156C27.2787 6.86299 27.6511 6.64071 28.0806 6.38438C28.619 6.06303 29.247 5.68817 29.6965 5.53502C29.7673 5.5125 29.8408 5.48887 29.9168 5.46446C30.7691 5.19049 31.9263 4.81856 32.9861 4.81856H33.3324C34.1981 4.81856 37.8916 5.64448 38.1802 5.97618C38.1225 6.03257 33.3324 6.63625 32.813 6.69264C31.0816 6.96795 29.6388 7.51857 28.4845 8.34449C27.5611 9.00457 26.58 10.7095 26.0606 11.8107C25.7143 12.4177 25.3681 13.1309 25.1372 13.8473C25.1085 13.9711 25.0655 14.1458 25.0073 14.3384L24.4133 14.9188V14.9287C24.1932 15.1457 23.9998 15.3865 23.8363 15.6457C23.5814 15.5973 23.3705 15.4653 23.2327 15.3333L23.2414 15.3204C24.0473 14.1128 24.9641 12.7391 24.9641 10.7659V10.6C24.9641 7.73749 21.5013 4.21487 19.2506 3.72064C19.5141 3.3246 20.3673 3.18696 21.0408 3.07831C21.3995 3.02044 21.7072 2.9708 21.8476 2.89471ZM12.6386 26.4201C12.5533 26.1783 12.4734 25.9389 12.3949 25.704C11.6993 23.6217 11.12 21.8877 7.99636 21.8877C6.49584 21.8877 4.07192 22.3289 3.20624 22.9326C1.77028 23.9258 1.60882 24.2671 1.04518 25.4585C0.95225 25.6549 0.848386 25.8744 0.726075 26.1238C0.725587 26.1237 0.725098 26.1236 0.724609 26.1235V26.1268C0.725098 26.1258 0.725587 26.1248 0.726075 26.1238C3.66818 26.7839 4.41843 27.6662 5.80329 29.812C6.61126 31.0226 8.91975 33.391 10.9397 33.391H11.8631C12.2477 33.391 12.6323 33.34 13.0065 33.2648L12.2123 32.4888V32.4788C11.8354 32.1073 11.5367 31.6661 11.333 31.1819C11.1259 30.691 11.0173 30.1768 11.0173 29.6627C11.0173 29.1486 11.1259 28.6344 11.333 28.1435C11.5367 27.6593 11.8354 27.2181 12.2123 26.8466V26.8366L12.6386 26.4201ZM14.9316 35.1457L11.6317 35.7062L11.574 35.6498H10.1889C7.85478 35.6498 6.44712 34.3466 5.20396 33.1958C5.09467 33.0946 4.98666 32.9946 4.87939 32.8967C4.54936 32.5594 3.95935 31.8545 3.3414 31.1163C2.44651 30.0473 1.49305 28.9083 1.1858 28.714C1.24352 29.9247 2.68632 33.3379 3.37887 33.998C3.43989 34.0592 3.50233 34.1222 3.56616 34.1866C4.64935 35.2791 6.12998 36.7725 7.765 37.1358C7.6805 37.4782 7.46453 37.8722 7.22466 38.3097C6.80926 39.0675 6.3222 39.956 6.3222 40.9338V41.7597C6.3222 42.9704 8.28441 44.9539 9.20781 45.3918L9.09239 44.0716V43.6304C9.09239 41.7597 10.1312 39.063 10.9969 38.0712C12.0318 36.9856 13.67 36.0761 15.7033 35.8997L14.9316 35.1457ZM18.1841 38.3236L16.5371 38.0711L16.1331 38.1275C13.7669 38.1275 11.8047 41.7596 11.8047 44.0715V44.9538C11.8047 46.2209 12.8435 47.8728 13.6514 48.4201V48.4168C14.9981 46.4707 16.4731 46.2629 18.35 45.9985C19.2882 45.8663 20.327 45.72 21.5003 45.3353C21.7184 45.2636 21.9227 45.1993 22.1153 45.1388C23.4005 44.7346 24.16 44.4959 24.9631 43.2987C25.133 43.0553 25.2925 42.7888 25.4365 42.5007C25.0696 42.6048 24.6939 42.6586 24.3217 42.6586C23.7989 42.6586 23.2727 42.5524 22.7668 42.3501C22.278 42.1544 21.8298 41.8658 21.4496 41.501L21.4259 41.491L18.1841 38.3236ZM27.5411 41.1558C27.5106 41.2612 27.4797 41.3533 27.4463 41.4247C27.1578 42.1412 26.8692 42.8543 26.5806 43.5177C26.1189 44.672 25.0801 46.2144 24.1567 46.9839C22.7139 48.251 17.3467 49.2395 14.6919 49.4617C14.8651 49.737 18.3278 50.4535 18.9626 50.4535H20.2323C21.098 50.4535 22.7139 49.9029 23.291 49.6276C23.6432 49.494 24.4038 49.0516 24.9824 48.715C25.3521 48.5 25.6475 48.3281 25.715 48.3074C25.8881 48.9675 27.0423 50.2876 27.504 50.7852C27.5275 50.806 27.5508 50.8267 27.5739 50.8472C28.3496 51.5362 28.9904 52.1053 30.4474 52.1053C31.3708 52.1053 33.5061 51.6111 33.7947 51.223C32.6404 51.223 30.6205 49.4053 29.928 48.7453C29.0046 47.8629 27.7926 46.3239 27.7926 44.5626V43.8494C27.7926 43.0799 28.0812 42.0317 28.3697 41.4811C28.4193 41.3862 28.5161 41.2059 28.6305 40.993C28.9156 40.4622 29.3096 39.7287 29.3508 39.6103C29.2051 39.5866 29.131 39.5535 29.0681 39.5231C28.693 40.1065 28.1797 40.5753 27.6826 41.0266C27.6343 41.07 27.5865 41.1134 27.5411 41.1558ZM32.0161 41.1444C31.4502 41.7685 31.0228 42.3999 31.0228 42.9139V43.8493C31.0228 45.0163 31.9126 46.2508 32.6021 47.2074C32.7906 47.4689 32.9641 47.7096 33.1004 47.9226C33.8507 48.9674 35.582 49.9028 37.3711 49.9028H38.6408L38.3522 47.8662V47.3352L32.0161 41.1444ZM43.834 44.8395C43.8191 44.8327 43.7945 44.8113 43.7945 44.8113L43.8013 44.8047L42.475 43.5088C42.5145 43.3997 42.5549 43.2869 42.5954 43.1716L44.0074 44.5516C43.9503 44.6487 43.8925 44.7446 43.834 44.8395ZM45.9447 38.6152H47.0096C48.4524 38.6152 50.1261 38.0081 50.7032 37.2386C51.3375 36.4134 52.1447 34.9292 52.146 33.6098C51.8109 33.77 51.5442 33.9445 51.2796 34.1176C50.8153 34.4214 50.3578 34.7208 49.549 34.93C48.741 35.2053 47.2405 35.6465 46.2594 35.6465H45.9131C44.0086 35.6465 42.7966 35.0958 41.7578 34.2169C41.0653 33.6098 39.7379 32.1238 39.507 31.079C39.2527 31.1594 38.905 31.3596 38.7383 31.5694L45.9447 38.6152ZM41.081 27.8424C41.1469 28.1276 41.1997 28.4193 41.2383 28.714C41.5846 31.6329 42.6811 33.5037 46.0861 33.5037H46.6633C48.6832 33.5037 49.4334 33.3378 50.7608 32.6214C51.3957 32.2366 52.8962 30.8601 52.9539 29.9247C51.9728 29.7058 50.53 28.9329 49.8951 28.3292C49.5548 27.9713 49.1944 27.3272 48.8376 26.6896C48.5893 26.246 48.3428 25.8055 48.1061 25.4667C48.0294 25.357 47.953 25.2464 47.8764 25.1356C46.6833 23.4105 45.4398 21.6124 42.5657 21.6124H42.4503C41.4963 21.6124 40.6378 21.7558 39.8549 21.9791L40.6271 22.7336L40.6203 22.7402C41.0073 23.1183 41.306 23.5562 41.5063 24.0305C41.7134 24.5181 41.8221 25.0388 41.8221 25.5596C41.8221 26.0804 41.7134 26.6011 41.5063 27.0887C41.3943 27.3521 41.2516 27.6051 41.081 27.8424ZM37.8091 19.9802L42.6237 19.4066C43.6626 19.2407 45.6248 19.7383 46.2019 20.0667C47.2984 20.7267 47.7601 21.1115 48.6258 21.9374C49.3765 22.7048 49.8283 23.2346 50.4904 24.0108C50.5409 24.0701 50.5926 24.1307 50.6457 24.193L50.6459 24.1932C50.8774 24.4693 52.4926 26.3955 52.608 26.5049C52.5502 25.0189 51.2229 22.0469 50.4726 21.1646C49.5492 20.0103 47.7024 18.302 46.0865 17.9703C46.0865 17.9703 46.9522 16.428 47.1253 16.1526C47.3561 15.7115 47.7601 14.4477 47.7601 13.8971C47.7601 12.3547 46.0288 9.98972 44.8745 9.71441C44.8745 9.85207 44.9034 9.93499 44.9322 10.0179C44.9611 10.1008 44.9899 10.1838 44.9899 10.3214V10.3247V11.5918C44.9899 13.4095 43.8357 15.7214 43.0277 16.8757C42.2197 18.0301 39.9113 19.0218 37.8913 19.0218H36.8282L37.8091 19.9802ZM33.5262 15.7955C33.7821 15.8973 34.037 16.005 34.29 16.1118C35.2676 16.5247 36.2164 16.9255 37.0838 16.9255H37.6032C39.9694 16.9255 42.7396 12.8523 42.7396 10.7593V10.0992C42.7396 9.38272 41.9316 7.51195 41.5276 7.23664C40.171 8.10779 39.6282 8.495 39.0247 8.65778C38.2933 8.85511 37.4728 8.72264 35.0061 8.72264V8.72928H34.025C31.6588 8.72928 29.9852 9.44574 28.8886 10.7095C28.5066 11.1706 28.1021 11.8572 27.7693 12.6413C28.0178 12.5945 28.2695 12.5704 28.5211 12.5704C29.0405 12.5704 29.5599 12.6732 30.0521 12.8656C30.5376 13.058 30.9857 13.3399 31.3693 13.6981L31.4135 13.7313L33.5262 15.7955ZM40.9732 41.5861C40.9309 41.6943 40.8863 41.8027 40.8397 41.911L35.8639 37.0493C35.9132 36.9546 35.9646 36.8533 36.0191 36.7441L40.9732 41.5861ZM14.6403 6.91956C14.5183 6.48171 14.4027 6.06675 14.4021 5.65112L15.7872 5.4322L16.5952 5.48859C18.3266 5.48859 19.5385 6.6429 20.4042 7.46882C20.9813 8.01944 22.655 9.9466 22.655 10.882V11.9268C22.655 13.059 21.9052 13.8507 21.0099 14.7961C19.6836 16.1966 18.038 17.9343 18.038 21.6157C16.9415 21.3934 15.1524 20.0733 14.4598 19.4132C13.6519 18.6404 12.7285 17.1544 12.7285 15.5589C12.7285 14.2757 13.404 12.7208 14.0053 11.3369C14.4873 10.2274 14.9215 9.22797 14.9215 8.56674V8.51035C14.9215 7.92925 14.7769 7.41004 14.6403 6.91956ZM14.4021 5.65112V5.64781C14.4021 5.64891 14.4021 5.65002 14.4021 5.65112ZM8.51588 15.5556V14.2354C8.51588 12.693 9.43927 10.7659 10.1318 9.83049C10.6512 9.17041 12.5557 7.13379 13.1906 6.8021C13.1906 6.96795 11.8632 9.99634 11.6323 10.4906C11.3438 11.1506 10.4781 13.7379 10.4781 14.5074V15.3333C10.4781 17.5579 12.7733 20.154 14.1669 21.7303C14.7743 22.4174 15.2105 22.9108 15.2105 23.095C15.2105 23.4798 14.8065 23.8646 14.4025 23.921C13.9985 22.2691 11.0552 19.463 8.91986 19.463H7.88104C6.72646 19.463 5.7902 19.7541 4.84438 20.0482C4.70282 20.0922 4.56105 20.1362 4.41831 20.1794C3.63305 20.3667 3.08819 20.706 2.54749 21.0427C2.29343 21.2009 2.04028 21.3586 1.76354 21.4996C1.76354 18.584 3.78347 16.491 6.84222 16.491H7.99647C8.14075 16.491 8.22732 16.5051 8.31388 16.5192C8.40045 16.5333 8.48702 16.5473 8.6313 16.5473L8.51588 15.5556Z" fill="#C0261D"/>
<path fill-rule="evenodd" clip-rule="evenodd" d="M36.5259 27.9643C36.1966 27.9643 35.8774 27.835 35.6432 27.6061H35.6466L26.433 18.6038C26.2021 18.375 26.0697 18.0665 26.0697 17.7414C26.0697 17.4164 26.1988 17.1079 26.433 16.879L27.6483 15.6915C27.886 15.4693 28.2017 15.3433 28.531 15.3433C28.8603 15.3433 29.176 15.4693 29.4137 15.6915L38.6273 24.6938C38.8581 24.9227 38.9905 25.2311 38.9905 25.5529C38.9905 25.8746 38.8581 26.1831 38.6239 26.412L37.4085 27.6061C37.1743 27.835 36.8552 27.9643 36.5259 27.9643ZM34.1677 27.8881C32.7894 28.9496 31.4654 30.1105 30.2365 31.3245C28.9906 32.5286 27.8024 33.8222 26.7194 35.1722L18.6906 27.3276C20.0655 26.2661 21.3895 25.1052 22.6219 23.8912C23.8746 22.6805 25.056 21.3935 26.1457 20.0435L34.1677 27.8881ZM24.3257 39.8822C23.9964 39.8822 23.6773 39.7528 23.4431 39.5273L14.2295 30.525C13.9986 30.2962 13.8662 29.9844 13.8662 29.6626C13.8662 29.3409 13.9952 29.0291 14.2295 28.8002L15.4516 27.6061C15.6858 27.3805 16.0016 27.2512 16.3343 27.2512C16.667 27.2512 16.9827 27.3772 17.2169 27.6061L26.4305 36.6084C26.6648 36.8405 26.7938 37.149 26.7938 37.4741C26.8331 38.0143 26.2748 38.5232 25.7535 38.9983C25.5547 39.1796 25.3612 39.356 25.2084 39.5273C24.9741 39.7562 24.655 39.8822 24.3257 39.8822ZM46.0355 42.6187L33.3049 30.1734C32.67 30.7174 31.9334 31.394 31.1152 32.1835C30.2902 32.9862 29.6113 33.706 29.0579 34.3229L41.7954 46.7682C42.3589 47.3155 43.1194 47.624 43.9137 47.624C45.5704 47.624 46.9148 46.3104 46.9148 44.6918C46.9148 43.9156 46.5991 43.1693 46.0355 42.6187Z" fill="white"/>
<path d="M73.7313 17.088C72.9063 15.675 71.0459 14.7827 69.1007 14.7827C64.8538 14.7529 61.52 17.3202 61.52 22.2194C61.52 27.1185 64.7044 29.7986 69.0124 29.7688C70.6352 29.7389 72.9063 28.9329 73.7313 27.2612L73.9078 29.3376H77.2992V15.131H73.8467L73.7279 17.0913L73.7313 17.088ZM69.4232 17.9239C75.0858 17.9239 75.0858 26.5414 69.4232 26.5414C67.0332 26.5414 65.1152 24.926 65.1152 22.2194C65.1152 19.5127 67.0332 17.9239 69.4232 17.9239ZM79.7164 15.1277V22.5909C79.7164 26.9991 82.2523 29.5665 85.732 29.5665C87.7655 29.5665 89.154 28.8732 90.6579 27.4336L90.8922 29.3343H94.1071V15.1277H90.5391V22.3753C90.5391 24.5512 89.0352 26.3656 86.8218 26.3656C84.6083 26.3656 83.3115 24.7237 83.3115 22.561V15.1244H79.713L79.7164 15.1277ZM107.354 25.2146C106.468 26.0803 105.317 26.3954 104.169 26.3954C101.929 26.3954 100.041 24.9559 100.041 22.2459C100.041 19.7681 101.81 18.0367 104.231 18.0367C105.232 18.0367 106.295 18.4115 107.15 19.1611L109.421 16.826C107.829 15.3002 106.237 14.723 104.169 14.723C99.953 14.723 96.4427 17.2008 96.4427 22.2459C96.4427 27.291 99.953 29.7688 104.169 29.7688C106.322 29.7688 108.094 29.1352 109.774 27.5199L107.357 25.2146H107.354ZM112.84 11.4956V15.1542H110.127V18.1793H112.84V24.319C112.84 27.8648 114.904 29.6228 118.061 29.5067C119.151 29.4769 120.006 29.3044 121.042 28.9031L120.04 25.9045C119.511 26.1632 118.859 26.3357 118.299 26.3357C117.178 26.3357 116.411 25.6723 116.411 24.319V18.1793H120.451V15.1542H116.438V11.1208L112.84 11.4956ZM126.732 15.068V29.3343H123.133V15.068H126.732ZM122.807 11.1208C122.807 13.8573 127.054 13.8573 127.054 11.1208C127.054 8.3843 122.807 8.3843 122.807 11.1208ZM137.143 14.8391C132.513 14.8391 129.621 18.1826 129.621 22.2459C129.621 26.3092 132.452 29.6527 137.171 29.6527C141.889 29.6527 144.751 26.339 144.751 22.2459C144.751 18.1528 141.771 14.8391 137.14 14.8391H137.143ZM137.174 18.0367C139.591 18.0367 141.126 20.1131 141.126 22.2459C141.126 24.3787 139.798 26.4253 137.174 26.4253C134.55 26.4253 133.222 24.4086 133.222 22.2459C133.222 20.0832 134.58 18.0367 137.174 18.0367ZM161.539 29.3343V21.8711C161.539 17.4031 158.796 14.8955 155.374 14.8955C153.544 14.8955 152.071 15.6153 150.594 17.0283L150.36 15.0978H147.145V29.3343H150.713V22.0734C150.713 19.9108 152.217 18.0964 154.43 18.0964C156.643 18.0964 157.94 19.7383 157.94 21.9009V29.3376H161.539V29.3343Z" fill="#C0261D"/>
<path d="M68.9478 35.1556V36.6582C68.3639 35.5868 67.213 35.0727 66.0723 35.0727C64.1067 35.0727 62.501 36.4923 62.501 38.592C62.501 40.6916 64.1101 42.1378 66.0723 42.1378C67.2096 42.1378 68.2654 41.6369 68.9478 40.5656V42.025H69.6437V35.1556H68.9478ZM66.0723 35.7261C69.9866 35.7261 69.9866 41.4711 66.0723 41.4711C64.4768 41.4711 63.1969 40.3168 63.1969 38.592C63.1969 36.8671 64.4768 35.7261 66.0723 35.7261ZM77.5435 42.025V35.1423H76.8476V38.9668C76.8476 40.3864 75.8359 41.4545 74.3863 41.4711C72.862 41.4844 71.8809 40.6518 71.8809 39.0928V35.1423H71.185V39.1061C71.185 41.01 72.4818 42.1378 74.3592 42.1378C75.3403 42.1245 76.3248 41.7331 76.8645 40.7878V42.025H77.5469H77.5435ZM84.6761 40.6054C84.1057 41.1626 83.3385 41.4545 82.5849 41.4545C80.9893 41.4545 79.6517 40.4395 79.6517 38.5886C79.6517 36.7378 80.9893 35.7228 82.5849 35.7228C83.3385 35.7228 84.1227 35.9881 84.693 36.5421L85.148 36.1109C84.435 35.4309 83.5116 35.0826 82.5849 35.0826C80.5479 35.0826 78.9693 36.416 78.9693 38.5886C78.9693 40.7613 80.6057 42.0947 82.5849 42.0947C83.5116 42.0947 84.435 41.7597 85.148 41.0664L84.6795 40.6087L84.6761 40.6054ZM87.4938 33.1521V35.1556H86.0001V35.7261H87.4938V39.9121C87.4938 41.2621 87.9793 42.1245 89.473 42.1245C89.9143 42.1245 90.3556 41.9852 90.797 41.7762L90.5559 41.219C90.1995 41.3848 89.8159 41.4976 89.473 41.4976C88.3765 41.4976 88.1762 40.8442 88.1762 39.9121V35.7261H90.5661V35.1556H88.1762V33.0825L87.4938 33.1521ZM92.8746 35.1257V42.025H92.1787V35.1257H92.8746ZM91.9784 32.9133C91.9784 33.6364 93.1021 33.6364 93.1021 32.9133C93.1021 32.1902 91.9784 32.1902 91.9784 32.9133ZM98.269 42.1179C100.248 42.1179 101.84 40.7845 101.84 38.5986C101.84 36.4127 100.245 35.0229 98.269 35.0229C96.2932 35.0229 94.6976 36.4127 94.6976 38.5986C94.6976 40.7845 96.2932 42.1179 98.269 42.1179ZM98.269 41.4512C96.6734 41.4512 95.38 40.3798 95.38 38.6019C95.38 36.824 96.6768 35.6664 98.269 35.6664C99.8612 35.6664 101.158 36.8207 101.158 38.6019C101.158 40.3831 99.8612 41.4512 98.269 41.4512ZM103.45 35.1523V42.0217H104.145V38.1972C104.145 36.7776 105.157 35.7095 106.607 35.6929C108.131 35.6797 109.112 36.5122 109.112 38.0712V42.0217H109.808V38.0579C109.808 36.154 108.511 35.0262 106.634 35.0262C105.653 35.0395 104.668 35.4309 104.129 36.3762V35.1523H103.446H103.45ZM111.363 41.6038C111.363 42.3269 112.487 42.3269 112.487 41.6038C112.487 40.8807 111.363 40.8807 111.363 41.6038ZM119.432 40.602C118.862 41.1593 118.095 41.4512 117.341 41.4512C115.746 41.4512 114.408 40.4362 114.408 38.5853C114.408 36.7345 115.746 35.7195 117.341 35.7195C118.095 35.7195 118.879 35.9848 119.449 36.5388L119.904 36.1075C119.191 35.4276 118.268 35.0793 117.341 35.0793C115.304 35.0793 113.726 36.4127 113.726 38.5853C113.726 40.7579 115.362 42.0914 117.341 42.0914C118.268 42.0914 119.191 41.7563 119.904 41.0631L119.436 40.6054L119.432 40.602ZM126.619 40.602C126.049 41.1593 125.282 41.4512 124.528 41.4512C122.933 41.4512 121.595 40.4362 121.595 38.5853C121.595 36.7345 122.933 35.7195 124.528 35.7195C125.282 35.7195 126.066 35.9848 126.636 36.5388L127.091 36.1075C126.378 35.4276 125.455 35.0793 124.528 35.0793C122.491 35.0793 120.913 36.4127 120.913 38.5853C120.913 40.7579 122.549 42.0914 124.528 42.0914C125.455 42.0914 126.378 41.7563 127.091 41.0631L126.623 40.6054L126.619 40.602ZM129.437 33.1488V35.1523H127.943V35.7228H129.437V39.9088C129.437 41.2588 129.923 42.1212 131.416 42.1212C131.858 42.1212 132.299 41.9819 132.74 41.7729L132.499 41.2157C132.143 41.3815 131.759 41.4943 131.416 41.4943C130.32 41.4943 130.119 40.8409 130.119 39.9088V35.7228H132.509V35.1523H130.119V33.0792L129.437 33.1488ZM134.119 32.2731V42.0217H134.814V32.2731H134.119ZM139.941 35.6929C141.563 35.6929 142.816 36.8605 142.816 38.5721C142.816 40.2836 141.591 41.4644 139.941 41.4644C138.291 41.4644 137.065 40.4893 137.065 38.5853C137.065 36.6814 138.362 35.6929 139.941 35.6929ZM142.83 32.2731V36.6548C142.259 35.5437 141.122 35.0428 139.914 35.0428C137.948 35.0428 136.383 36.3232 136.383 38.5886C136.383 40.8541 137.934 42.1345 139.9 42.1345C141.095 42.1345 142.249 41.5507 142.833 40.5058V42.0217H143.515V32.2731H142.833H142.83ZM145.25 41.6038C145.25 42.3269 146.374 42.3269 146.374 41.6038C146.374 40.8807 145.25 40.8807 145.25 41.6038ZM154.586 42.0217V35.139H153.89V38.9635C153.89 40.3831 152.878 41.4512 151.429 41.4678C149.905 41.481 148.923 40.6485 148.923 39.0895V35.139H148.227V39.1028C148.227 41.0067 149.524 42.1345 151.402 42.1345C152.383 42.1212 153.367 41.7298 153.907 40.7845V42.0217H154.589H154.586ZM156.209 35.7626H160.466L155.981 41.7829V42.0184H161.505V41.3782H157.064L161.505 35.411V35.1456H156.209V35.7559V35.7626Z" fill="white"/>
</svg>
