<svg width="158" height="49" viewBox="0 0 158 49" fill="none" xmlns="http://www.w3.org/2000/svg">
<g clip-path="url(#clip0_335_287)">
<path fill-rule="evenodd" clip-rule="evenodd" d="M21.3349 0.499985H20.3881C19.9979 0.714778 18.2708 0.714778 17.8813 1.30546C20.0539 1.78874 23.3971 5.22465 23.3971 8.01696V8.17805C23.3971 10.1112 22.5055 11.4529 21.7259 12.6342C21.893 12.7953 22.1713 12.9564 22.5055 12.9564C23.118 12.9564 23.4523 11.6677 23.5642 11.1844C23.7873 10.4863 24.1215 9.78822 24.4558 9.19754C24.9571 8.12358 25.9039 6.45971 26.7954 5.81533C27.9093 5.00986 29.3022 4.47288 30.9734 4.20438C31.4748 4.15069 36.099 3.56001 36.1549 3.50631C35.8767 3.18412 32.3112 2.37864 31.4748 2.37864H31.1406C30.0267 2.37864 28.8009 2.80823 27.9653 3.07672C27.1857 3.34521 25.8479 4.31178 25.4585 4.41918C25.4585 3.8285 24.2887 2.32495 23.9544 2.00276C23.5642 1.62687 23.2859 1.30468 22.8405 1.03619C22.2832 0.660301 21.6707 0.713999 21.3365 0.499207L21.3349 0.499985Z" fill="#C0261D"/>
<path fill-rule="evenodd" clip-rule="evenodd" d="M33.0901 6.19123H32.1434C29.8589 6.19123 28.2437 6.88931 27.185 8.12359C26.3494 9.14386 25.4019 11.2918 25.4019 13.1167C26.4046 13.1167 27.5744 12.5261 29.1345 12.5261H29.3568C31.307 12.5261 33.3684 14.1907 35.0956 14.1907H35.5969C37.8814 14.1907 40.5554 10.2178 40.5554 8.17729V7.53291C40.5554 6.83483 39.7757 5.00909 39.3855 4.7406C36.4885 6.62004 37.436 6.19045 33.0901 6.19045V6.19123Z" fill="#C0261D"/>
<path fill-rule="evenodd" clip-rule="evenodd" d="M13.2015 3.18411C13.2015 4.04328 13.7028 4.90245 13.7028 5.97642V6.03011C13.7028 7.47997 11.5854 10.5937 11.5854 12.849C11.5854 14.4063 12.477 15.8561 13.2566 16.6071C13.9251 17.2515 15.6523 18.5402 16.711 18.755C16.711 12.7416 21.168 12.0435 21.168 9.30571V8.28544C21.168 7.37257 19.552 5.49313 18.9955 4.95693C18.1599 4.15145 16.99 3.02379 15.3188 3.02379L14.5392 2.97009L13.2023 3.18489L13.2015 3.18411Z" fill="#C0261D"/>
<path fill-rule="evenodd" clip-rule="evenodd" d="M7.51864 11.5603V12.849L7.62979 13.8156C7.35152 13.8156 7.29555 13.7619 7.01728 13.7619H5.90342C2.95044 13.7619 1.00098 15.8024 1.00098 18.6476C1.83657 18.2181 2.44987 17.6274 3.56374 17.3589C4.62243 17.0367 5.62515 16.6608 6.90613 16.6608H7.90885C9.97026 16.6608 12.8113 19.3986 13.2015 21.0096C13.5917 20.9559 13.9811 20.58 13.9811 20.2041C13.9811 19.6134 9.41293 15.7479 9.41293 12.6334V11.828C9.41293 11.0762 10.2485 8.55315 10.5268 7.90877C10.7499 7.42549 12.0309 4.47286 12.0309 4.31177C11.4184 4.63396 9.57926 6.62079 9.0779 7.26439C8.40942 8.17726 7.51785 10.0567 7.51785 11.5595L7.51864 11.5603Z" fill="#C0261D"/>
<path fill-rule="evenodd" clip-rule="evenodd" d="M157.996 35.1307V33.3586H150.531L157.885 19.506V17.8951H146.408V19.7208H154.208C153.985 20.7411 151.032 25.6268 150.308 27.023C149.863 27.9359 146.408 33.8956 146.408 34.3252V35.1844H157.718C158.052 35.1844 157.774 35.2381 157.996 35.1307Z" fill="white"/>
<path fill-rule="evenodd" clip-rule="evenodd" d="M26.2934 21.7614H31.3078C30.7505 22.5669 26.0151 27.4526 26.0151 27.7748V28.7951H33.4803V27.56H29.5247L27.7975 27.6674C27.9646 27.1841 33.2013 21.8151 33.2013 21.5466V20.6337H26.2934V21.7614Z" fill="white"/>
<path fill-rule="evenodd" clip-rule="evenodd" d="M42.7288 7.74847V8.98353C42.7288 10.7556 41.615 13.0101 40.8345 14.1378C40.0549 15.2654 37.8264 16.232 35.8761 16.232H34.4272V16.6079C34.4272 16.9301 34.7055 17.306 34.9846 17.306L35.0957 17.2523L40.4443 16.6079C41.4471 16.4468 43.3413 16.9301 43.8987 17.2523C44.9574 17.8967 45.4028 18.2725 46.2384 19.078C47.018 19.8835 47.4642 20.4205 48.1886 21.2797C48.4117 21.5481 49.9717 23.4276 50.0829 23.535C50.0269 22.0851 48.7459 19.1862 48.0215 18.327C47.1299 17.1994 45.3476 15.5347 43.7875 15.2125C43.7875 15.2125 44.6231 13.709 44.7902 13.4405C45.0125 13.0109 45.4028 11.7758 45.4028 11.2389C45.4028 9.73531 43.7316 7.42706 42.6169 7.15857C42.6169 7.42706 42.728 7.48076 42.728 7.74925L42.7288 7.74847Z" fill="#C0261D"/>
<path fill-rule="evenodd" clip-rule="evenodd" d="M17.6582 26.2176C17.6582 27.9896 18.7721 28.9562 20.6112 28.9562C22.2264 28.9562 22.3935 28.2044 23.2299 27.6674V28.7951H24.5109V20.6337H23.0628V25.4121C23.0628 26.8619 22.3383 27.7748 20.8343 27.7748H20.4448C19.8323 27.7748 19.1079 26.9156 19.1079 26.3787V20.6337H17.6598V26.2176H17.6582Z" fill="white"/>
<path fill-rule="evenodd" clip-rule="evenodd" d="M74.0386 22.7279V30.2449C74.0386 33.1446 74.9301 35.1844 77.8823 35.1844H84.9581V33.3586H80.6682C78.1614 33.3586 77.4369 32.6606 77.4369 30.2449V22.9964C77.4369 21.3318 77.8271 19.7753 79.5543 19.7753H84.9581V17.9496H77.6041C74.9301 17.9496 74.0386 20.0975 74.0386 22.7279Z" fill="white"/>
<path fill-rule="evenodd" clip-rule="evenodd" d="M-0.00262967 23.1575C2.83919 23.8019 3.56285 24.6611 4.89981 26.7545C5.67944 27.9359 7.90796 30.2441 9.85822 30.2441H10.7498C11.6965 30.2441 12.6441 29.9219 13.4237 29.7071C14.1481 29.4387 15.0949 28.7406 15.5411 28.6332C15.4299 28.3647 13.4797 27.0222 13.0895 26.5389C12.1979 25.465 12.0308 25.0354 11.5294 23.5318C10.6938 21.1691 10.4148 19.022 7.0164 19.022C5.5675 19.022 3.22783 19.4516 2.39223 20.0422C0.776211 21.1699 0.83218 21.4384 -0.00341797 23.156L-0.00262967 23.1575Z" fill="#C0261D"/>
<path fill-rule="evenodd" clip-rule="evenodd" d="M35.5972 19.9901C36.1545 20.7419 37.2684 21.4399 37.8817 22.2983C38.4942 23.1575 38.9403 24.3926 39.1075 25.6806C39.4417 28.5266 40.5004 30.3515 43.7876 30.3515H44.3449C46.2952 30.3515 47.0189 30.1904 48.3006 29.4923C48.9131 29.1165 50.362 27.774 50.418 26.8611C49.4713 26.6463 48.0783 25.8946 47.465 25.3039C46.9077 24.7132 46.2952 23.3171 45.7379 22.5116C44.5121 20.7395 43.3422 18.7535 40.3892 18.7535H40.2781C38.3838 18.7535 36.8797 19.3442 35.598 19.9885L35.5972 19.9901Z" fill="#C0261D"/>
<path fill-rule="evenodd" clip-rule="evenodd" d="M130.084 30.6745C130.084 33.4131 131.198 35.1844 134.04 35.1844H143.845V17.8959H140.503V33.3586H135.655C134.207 33.3586 133.483 32.231 133.483 30.8893V17.8959H130.084V30.6745Z" fill="white"/>
<path fill-rule="evenodd" clip-rule="evenodd" d="M102.117 34.9159C102.117 35.1307 102.173 35.1844 102.395 35.1844H112.256V33.5734C112.256 33.3586 112.2 33.3049 111.978 33.3049H105.626V13.2778H102.117V34.9151V34.9159Z" fill="#C0261D"/>
<path fill-rule="evenodd" clip-rule="evenodd" d="M63.6762 22.6206C63.6762 21.0633 64.2335 19.7753 65.9607 19.7753H71.2533V17.9496H63.6762C62.5623 17.9496 61.2806 18.8088 60.8903 19.5068C60.445 20.366 60.2778 21.7622 60.2778 23.1038V30.8893C60.2778 33.4131 61.5036 35.1844 64.1776 35.1844H71.2533V33.3586H66.7403C64.7349 33.3586 63.6762 32.7143 63.6762 30.7819V22.6206Z" fill="white"/>
<path fill-rule="evenodd" clip-rule="evenodd" d="M117.995 15.2109H122.619C123.845 15.2109 124.179 16.6608 124.624 17.3052L124.959 19.4531L124.903 29.3857C124.903 31.1041 124.178 33.3049 122.451 33.3049H117.994V15.2109H117.995ZM124.234 35.1836C126.797 35.1836 128.134 32.0161 128.134 29.4923V19.0227C128.134 16.4452 126.797 13.3852 124.178 13.3852H114.484V35.1836H124.234Z" fill="#C0261D"/>
<path fill-rule="evenodd" clip-rule="evenodd" d="M87.1307 15.1036H91.5318V34.9159C91.5318 35.1307 91.5877 35.1844 91.81 35.1844H94.9301V15.1036H99.8326V13.2778H87.1299V15.1036H87.1307Z" fill="#C0261D"/>
<path fill-rule="evenodd" clip-rule="evenodd" d="M49.6367 30.4597C48.7451 30.8893 48.3557 31.4263 47.1299 31.7485C46.3503 32.0169 44.9014 32.4465 43.9546 32.4465H43.6204C41.7821 32.4465 40.6122 31.9095 39.6087 31.0504C38.9403 30.4597 37.6585 29.0098 37.4362 27.9904C37.1019 28.0978 36.6006 28.4199 36.6006 28.6884V28.7958C36.6006 29.5476 41.1136 32.9298 41.1136 36.9035C41.1136 38.0311 40.278 40.1783 39.9438 41.0912C39.7207 41.7355 39.4424 42.3262 39.1641 43.0243C38.9411 43.5076 38.4397 44.3131 38.3285 44.7963C38.7188 44.689 41.1696 42.1122 41.4486 41.6826C42.2283 40.4476 42.9527 39.0514 42.9527 37.1191V35.347H44.6799C46.0728 35.347 47.688 34.7563 48.2454 34.0046C48.8579 33.1991 49.6383 31.7492 49.6383 30.4613L49.6367 30.4597Z" fill="#C0261D"/>
<path fill-rule="evenodd" clip-rule="evenodd" d="M12.477 44.9022C14.4272 42.057 16.655 43.0227 20.0541 41.8959C21.6694 41.3589 22.5057 41.2515 23.3965 39.909C24.065 38.9425 24.5664 37.6008 24.5664 35.9898V34.0567C23.5636 34.3252 21.6694 35.6676 20.1093 35.4529V35.5603L15.262 34.8085L14.8718 34.8622C12.5873 34.8622 10.6938 38.4063 10.6938 40.6608V41.52C10.6938 42.755 11.6966 44.3652 12.477 44.9022Z" fill="#C0261D"/>
<path fill-rule="evenodd" clip-rule="evenodd" d="M4.00884 29.7616C3.22921 28.9561 0.944718 26.0035 0.443359 25.6813C0.499329 26.8627 1.89226 30.1912 2.56073 30.8356C3.61942 31.9096 5.1235 33.5205 6.7947 33.8956C6.57161 34.8085 5.40177 36.0972 5.40177 37.6V38.4055C5.40177 39.5868 7.29605 41.5192 8.18762 41.9488L8.07647 40.66V40.2304C8.07647 38.4047 9.07919 35.7743 9.91479 34.8077C11.0287 33.6263 12.8678 32.6598 15.1515 32.6598H16.2653C16.2653 32.2302 15.9311 31.5858 15.5409 31.6395L10.5265 32.4987L10.4705 32.445H9.13358C6.68197 32.445 5.28983 30.9414 4.00805 29.7608L4.00884 29.7616Z" fill="#C0261D"/>
<path fill-rule="evenodd" clip-rule="evenodd" d="M36.3216 43.6671C36.3216 42.1636 39.2745 38.8888 39.2745 36.3113V36.0428C39.2745 34.0022 36.3775 30.8885 34.8175 30.5126C34.8175 31.0496 34.2602 33.0365 34.0931 33.4653C33.5917 34.4855 33.3686 34.8077 32.589 35.5595C31.7534 36.365 29.2466 38.2981 29.2466 39.5324V40.4453C29.2466 41.8951 30.6395 43.4524 31.252 44.4181C31.9765 45.4384 33.6477 46.3513 35.3748 46.3513H36.6006L36.3224 44.3644V43.6664L36.3216 43.6671Z" fill="#C0261D"/>
<path fill-rule="evenodd" clip-rule="evenodd" d="M26.1266 40.446C26.1266 39.6942 26.4048 38.674 26.6839 38.1378C26.851 37.8156 27.5755 36.4731 27.6306 36.312C27.2964 36.2583 27.3524 36.1509 27.0181 36.1509H26.7399C26.1274 36.1509 26.0154 37.6008 25.7931 38.0841C25.5149 38.7822 25.2358 39.4802 24.9575 40.1246C24.5121 41.2523 23.5094 42.7558 22.6178 43.5068C21.2249 44.7419 16.0442 45.7084 13.4814 45.9232C13.6486 46.1917 16.991 46.8898 17.6043 46.8898H18.8301C19.6657 46.8898 21.2257 46.3528 21.783 46.0843C22.3404 45.8695 23.9556 44.8493 24.1227 44.7956C24.2898 45.44 25.4045 46.7287 25.8499 47.212C26.6295 47.9101 27.2428 48.5008 28.6909 48.5008C29.5825 48.5008 31.6439 48.0175 31.9222 47.6416C30.8083 47.6416 28.858 45.8695 28.1896 45.2252C27.298 44.366 26.1281 42.8632 26.1281 41.1449V40.4468L26.1266 40.446Z" fill="#C0261D"/>
</g>
<defs>
<clipPath id="clip0_335_287">
<rect width="158" height="48" fill="white" transform="translate(-0.00292969 0.5)"/>
</clipPath>
</defs>
</svg>
