<svg width="40" height="40" viewBox="0 0 392.088 392.088" fill="none"
	xmlns="http://www.w3.org/2000/svg" xmlns:xlink="http://www.w3.org/1999/xlink">
	<desc>
		Created with Pixso.
	</desc>
	<defs />
	<path id="Flattened"
		d="M4.58 162.05C-1.53 168.16 -1.53 178.08 4.58 184.19L114.07 293.68C120.18 299.79 130.1 299.79 136.21 293.68L149.75 280.15C155.86 274.03 155.86 264.12 149.75 258L40.26 148.51C34.14 142.4 24.23 142.4 18.11 148.51L4.58 162.05ZM148.51 18.11C142.4 24.23 142.4 34.14 148.51 40.26L258 149.75C264.12 155.86 274.03 155.86 280.15 149.75L293.68 136.21C299.79 130.1 299.79 120.18 293.68 114.07L184.19 4.58C178.08 -1.53 168.16 -1.53 162.05 4.58L148.51 18.11ZM59.83 140.55C57.44 142.14 57.02 145.6 59.05 147.63L148.85 237.43C150.86 239.44 154.31 239.08 156 236.8C160.77 230.34 171.7 216.77 194.03 194.03C216.1 171.55 229.76 160.75 236.43 156.03C238.83 154.34 239.28 150.71 237.2 148.63L147.63 59.05C145.6 57.02 142.14 57.44 140.55 59.83C135.5 67.4 123.88 83.34 103.61 103.61C83.34 123.88 67.4 135.5 59.83 140.55ZM203.87 203.87C188.5 219.87 180.5 230.94 180.5 230.94L331.2 381.64C345.13 395.57 367.71 395.57 381.64 381.64C395.57 367.71 395.57 345.13 381.64 331.2L230.94 180.5C230.94 180.5 219.25 187.88 203.87 203.87Z"
		fill="#1F1C1A" fill-opacity="0" fill-rule="evenodd" />
	<path id="Flattened"
		d="M4.58 184.19C-1.53 178.08 -1.53 168.16 4.58 162.05L18.11 148.51C24.23 142.4 34.14 142.4 40.26 148.51L149.75 258C155.86 264.12 155.86 274.03 149.75 280.15L136.21 293.68C130.1 299.79 120.18 299.79 114.07 293.68L4.58 184.19ZM148.51 40.26C142.4 34.14 142.4 24.23 148.51 18.11L162.05 4.58C168.16 -1.53 178.08 -1.53 184.19 4.58L293.68 114.07C299.79 120.18 299.79 130.1 293.68 136.21L280.15 149.75C274.03 155.86 264.12 155.86 258 149.75L148.51 40.26ZM117.6 290.14L8.12 180.66Q6.56 179.09 5.78 177.21Q5 175.33 5 173.12Q5 170.91 5.78 169.03Q6.56 167.14 8.12 165.58L21.65 152.05Q23.21 150.49 25.09 149.71Q26.98 148.93 29.18 148.93Q31.39 148.93 33.28 149.71Q35.16 150.49 36.72 152.05L146.21 261.54Q147.77 263.1 148.55 264.98Q149.33 266.87 149.33 269.07Q149.33 271.28 148.55 273.17Q147.77 275.05 146.21 276.61L132.68 290.14Q131.12 291.7 129.23 292.48Q127.35 293.26 125.14 293.26Q122.93 293.26 121.05 292.48Q119.17 291.7 117.6 290.14ZM261.54 146.21L152.05 36.72Q150.49 35.16 149.71 33.28Q148.93 31.39 148.93 29.19Q148.93 26.98 149.71 25.09Q150.49 23.21 152.05 21.65L165.58 8.12Q167.14 6.56 169.03 5.78Q170.91 5 173.12 5Q175.33 5 177.21 5.78Q179.09 6.56 180.65 8.12L290.14 117.6Q291.7 119.17 292.48 121.05Q293.26 122.93 293.26 125.14Q293.26 127.35 292.48 129.23Q291.7 131.12 290.14 132.68L276.61 146.21Q275.05 147.77 273.17 148.55Q271.28 149.33 269.07 149.33Q266.87 149.33 264.98 148.55Q263.1 147.77 261.54 146.21ZM59.05 147.63C57.02 145.6 57.44 142.14 59.83 140.55C67.4 135.5 83.34 123.88 103.61 103.61C123.88 83.34 135.5 67.4 140.55 59.83C142.14 57.44 145.6 57.02 147.63 59.05L237.2 148.63C239.28 150.71 238.83 154.34 236.43 156.03C229.76 160.75 216.1 171.55 194.03 194.03C171.7 216.77 160.77 230.34 156 236.8C154.31 239.08 150.86 239.44 148.85 237.43L59.05 147.63ZM62.97 144.47L152.13 233.63Q164.38 217.09 190.46 190.53Q216.51 164 233.49 151.99L144.47 62.96Q130.52 83.78 107.15 107.15Q83.78 130.52 62.97 144.47ZM233.53 151.96Q233.54 151.95 233.55 151.95L233.53 151.92Q233.53 151.94 233.53 151.96ZM180.5 230.94C180.5 230.94 188.5 219.87 203.87 203.87C219.25 187.88 230.94 180.5 230.94 180.5L381.64 331.2C395.57 345.13 395.57 367.71 381.64 381.64C367.71 395.57 345.13 395.57 331.2 381.64L180.5 230.94ZM187.1 230.46L334.73 378.1Q339.23 382.59 344.65 384.84Q350.07 387.08 356.42 387.08Q362.77 387.08 368.19 384.84Q373.61 382.59 378.1 378.1Q382.59 373.61 384.84 368.19Q387.08 362.77 387.08 356.42Q387.08 350.07 384.84 344.65Q382.59 339.23 378.1 334.73L230.31 186.94Q220.28 194.03 207.48 207.34Q194.65 220.68 187.1 230.46Z"
		fill="#242424" fill-opacity="0.07" fill-rule="evenodd" />
</svg>