<svg width="248" height="61" viewBox="0 0 248 61" fill="none" xmlns="http://www.w3.org/2000/svg">
<path d="M45.4502 25.8505V6.63452H52.6612C53.8662 6.58819 55.068 6.78651 56.1942 7.21752C57.0584 7.58741 57.7865 8.21632 58.2782 9.01752C58.7654 9.77442 59.0269 10.6544 59.0322 11.5545C59.0319 12.3754 58.8 13.1795 58.3632 13.8745C57.8714 14.6404 57.1709 15.2497 56.3442 15.6305C57.404 15.9043 58.3453 16.5167 59.0252 17.3745C59.6549 18.2121 59.9849 19.2369 59.9622 20.2845C59.9693 21.1541 59.7742 22.0133 59.3922 22.7945C59.0708 23.494 58.5879 24.1072 57.9832 24.5835C57.3527 25.0356 56.639 25.3585 55.8832 25.5335C54.8669 25.7671 53.8258 25.8753 52.7832 25.8555L45.4502 25.8505ZM47.9942 14.7065H52.1502C52.9648 14.7394 53.7802 14.6644 54.5752 14.4835C55.1551 14.3354 55.6694 13.9988 56.0372 13.5265C56.3784 13.0352 56.5508 12.4463 56.5282 11.8485C56.5404 11.2544 56.381 10.6694 56.0692 10.1635C55.7692 9.68103 55.3028 9.32525 54.7582 9.16352C53.8004 8.94305 52.8172 8.85257 51.8352 8.89452H47.9942V14.7065ZM47.9942 23.5815H52.7792C53.3574 23.5965 53.9359 23.5657 54.5092 23.4895C55.0274 23.4096 55.5255 23.2318 55.9772 22.9655C56.3889 22.7011 56.7235 22.3327 56.9472 21.8975C57.2085 21.3986 57.3392 20.8416 57.3272 20.2785C57.3424 19.6138 57.1501 18.9609 56.7772 18.4105C56.4065 17.8788 55.8686 17.4864 55.2492 17.2955C54.3332 17.0483 53.3853 16.9401 52.4372 16.9745H47.9932L47.9942 23.5815Z" fill="#008346"/>
<path d="M61.1899 25.8505V6.63452H75.0899V8.90252H63.7309V14.7885H74.3629V17.0435H63.7309V23.5845H75.5309V25.8505H61.1899Z" fill="#008346"/>
<path d="M76.6118 25.8505V6.63452H79.1558V16.1645L88.6988 6.63452H92.1468L84.0838 14.4215L92.5008 25.8505H89.1448L82.3018 16.1235L79.1548 19.1905V25.8505H76.6118Z" fill="#008346"/>
<path d="M113.467 19.1135L116.011 19.7555C115.612 21.6247 114.599 23.3066 113.133 24.5335C111.681 25.6525 109.886 26.2338 108.053 26.1785C106.281 26.2567 104.525 25.8172 102.999 24.9135C101.662 24.0219 100.629 22.7437 100.037 21.2495C99.3537 19.6185 99.0081 17.8659 99.0212 16.0975C98.9787 14.2852 99.372 12.4892 100.168 10.8605C100.883 9.41995 102.022 8.23324 103.432 7.46052C104.861 6.68266 106.465 6.28333 108.092 6.30052C109.826 6.2423 111.531 6.75834 112.942 7.76852C114.29 8.80134 115.255 10.255 115.682 11.8985L113.182 12.4875C112.867 11.2942 112.188 10.2285 111.24 9.43852C110.309 8.77433 109.183 8.43776 108.04 8.48152C106.726 8.43503 105.43 8.80687 104.34 9.54352C103.354 10.2437 102.62 11.2442 102.249 12.3955C101.849 13.5844 101.646 14.831 101.649 16.0855C101.619 17.5442 101.861 18.9957 102.363 20.3655C102.772 21.5024 103.556 22.4662 104.585 23.0985C105.569 23.6939 106.699 24.0054 107.849 23.9985C109.164 24.0361 110.448 23.5987 111.467 22.7665C112.528 21.8105 113.233 20.5225 113.467 19.1135Z" fill="#008346"/>
<path d="M116.043 16.4875C115.882 13.7497 116.805 11.0587 118.612 8.99553C119.463 8.10124 120.495 7.3976 121.638 6.931C122.781 6.4644 124.011 6.24543 125.245 6.28853C126.931 6.26425 128.592 6.70393 130.045 7.55953C131.457 8.39375 132.59 9.62768 133.302 11.1055C134.07 12.7152 134.454 14.4813 134.423 16.2645C134.454 18.0775 134.049 19.8715 133.243 21.4955C132.513 22.9749 131.346 24.1942 129.9 24.9885C128.472 25.7764 126.865 26.1851 125.234 26.1755C123.526 26.2034 121.844 25.749 120.383 24.8645C118.978 24.0127 117.853 22.7691 117.145 21.2865C116.414 19.7925 116.037 18.1505 116.043 16.4875ZM118.665 16.5265C118.553 18.5243 119.223 20.4872 120.533 21.9995C121.143 22.6334 121.874 23.1373 122.684 23.4809C123.493 23.8245 124.364 24.0006 125.244 23.9988C126.123 23.9969 126.993 23.817 127.801 23.47C128.609 23.123 129.339 22.616 129.946 21.9795C131.271 20.3763 131.934 18.3274 131.8 16.2515C131.832 14.8439 131.561 13.4458 131.007 12.1515C130.522 11.0357 129.714 10.0906 128.687 9.43753C127.659 8.79778 126.469 8.46793 125.259 8.48753C124.4 8.4744 123.547 8.63157 122.75 8.94997C121.952 9.26836 121.225 9.74167 120.612 10.3425C119.314 11.5725 118.665 13.6355 118.665 16.5315V16.5265Z" fill="#008346"/>
<path d="M135.293 25.8505V6.63452H139.12L143.669 20.2415C144.088 21.5082 144.394 22.4565 144.587 23.0865C144.805 22.3872 145.146 21.3602 145.61 20.0055L150.21 6.63452H153.631V25.8505H151.18V9.76752L145.597 25.8505H143.302L137.744 9.48952V25.8505H135.293Z" fill="#008346"/>
<path d="M155.331 25.8505V6.63452H159.159L163.708 20.2415C164.127 21.5082 164.433 22.4565 164.626 23.0865C164.845 22.3872 165.186 21.3602 165.649 20.0055L170.249 6.63452H173.67V25.8505H171.218V9.76752L165.631 25.8505H163.336L157.778 9.48952V25.8505H155.331Z" fill="#008346"/>
<path d="M174.671 16.4875C174.511 13.7498 175.434 11.0588 177.24 8.99553C178.092 8.10124 179.123 7.3976 180.267 6.931C181.41 6.4644 182.639 6.24543 183.873 6.28853C185.559 6.26425 187.22 6.70393 188.673 7.55953C190.085 8.39399 191.219 9.62785 191.93 11.1055C192.699 12.7152 193.083 14.4812 193.052 16.2645C193.082 18.0797 192.676 19.8755 191.866 21.5005C191.136 22.9796 189.97 24.1989 188.524 24.9935C187.098 25.7799 185.495 26.1885 183.866 26.1805C182.158 26.2085 180.477 25.7541 179.016 24.8695C177.611 24.0178 176.485 22.7742 175.777 21.2915C175.045 19.7963 174.666 18.1525 174.671 16.4875ZM177.293 16.5265C177.181 18.5243 177.851 20.4872 179.161 21.9995C179.771 22.6334 180.503 23.1373 181.312 23.4809C182.122 23.8245 182.992 24.0006 183.872 23.9988C184.751 23.9969 185.621 23.817 186.43 23.47C187.238 23.123 187.967 22.616 188.574 21.9795C189.9 20.3764 190.563 18.3275 190.429 16.2515C190.461 14.8439 190.191 13.4458 189.636 12.1515C189.151 11.0357 188.343 10.0906 187.316 9.43753C186.288 8.79749 185.098 8.46762 183.887 8.48753C183.028 8.47427 182.175 8.63138 181.378 8.94977C180.58 9.26817 179.853 9.74155 179.239 10.3425C177.942 11.5725 177.293 13.6355 177.293 16.5315V16.5265Z" fill="#008346"/>
<path d="M194.004 25.8505V6.63452H200.625C201.772 6.60388 202.919 6.69607 204.046 6.90952C205.083 7.13217 206.05 7.60449 206.864 8.28552C207.894 9.16494 208.677 10.2965 209.139 11.5695C209.663 13.0346 209.919 14.5826 209.892 16.1385C209.912 17.4499 209.74 18.7571 209.381 20.0185C209.101 21.0177 208.658 21.9638 208.07 22.8185C207.595 23.4996 207.003 24.0902 206.32 24.5625C205.617 25.0156 204.84 25.3416 204.025 25.5255C203.013 25.7572 201.976 25.8673 200.938 25.8535L194.004 25.8505ZM196.547 23.5825H200.647C201.653 23.616 202.659 23.4966 203.629 23.2285C204.274 23.0359 204.865 22.6933 205.353 22.2285C206.007 21.5394 206.489 20.7063 206.762 19.7965C207.124 18.5975 207.295 17.3488 207.267 16.0965C207.359 14.491 207.017 12.8902 206.277 11.4625C205.739 10.4916 204.892 9.72791 203.871 9.29252C202.804 8.97858 201.692 8.84574 200.581 8.89952H196.543L196.547 23.5825Z" fill="#008346"/>
<path d="M211.493 25.8505V6.63452H214.037V25.8505H211.493Z" fill="#008346"/>
<path d="M221.082 25.8505V8.90252H214.75V6.63452H229.983V8.90252H223.624V25.8505H221.082Z" fill="#008346"/>
<path d="M59.7968 47.4455L62.3408 48.0875C61.9416 49.9568 60.9285 51.6387 59.4628 52.8655C58.0105 53.9847 56.2154 54.566 54.3828 54.5105C52.611 54.589 50.8547 54.1494 49.3288 53.2455C47.9917 52.3539 46.9584 51.0757 46.3668 49.5815C45.6831 47.9506 45.3375 46.1979 45.3508 44.4295C45.3083 42.6172 45.7017 40.8212 46.4978 39.1925C47.2123 37.752 48.3516 36.5652 49.7618 35.7925C51.191 35.0145 52.7956 34.6152 54.4228 34.6325C56.158 34.5761 57.8633 35.0942 59.2738 36.1065C60.6212 37.1396 61.5854 38.5926 62.0138 40.2355L59.5138 40.8255C59.2008 39.6301 58.5227 38.5621 57.5738 37.7705C56.6422 37.1067 55.5169 36.7702 54.3738 36.8135C53.0591 36.7669 51.7636 37.1387 50.6738 37.8755C49.6874 38.5754 48.9539 39.5755 48.5828 40.7265C48.1826 41.9159 47.9799 43.1627 47.9828 44.4175C47.9523 45.8762 48.1944 47.3277 48.6968 48.6975C49.1059 49.8343 49.8895 50.798 50.9188 51.4305C51.9029 52.0259 53.0326 52.3374 54.1828 52.3305C55.4933 52.3681 56.7736 51.9337 57.7908 51.1065C58.8561 50.1496 59.5636 48.8584 59.7968 47.4455Z" fill="#023F87"/>
<path d="M62.8652 54.1825V34.9645H65.4092V42.8565H75.3982V34.9645H77.9412V54.1825H75.3982V45.1245H65.4092V54.1825H62.8652Z" fill="#023F87"/>
<path fill-rule="evenodd" clip-rule="evenodd" d="M4.158 0.723511H39.7C40.8017 0.726939 41.8573 1.16611 42.6364 1.94515C43.4154 2.72418 43.8546 3.7798 43.858 4.88151V56.1175C43.8548 57.2194 43.4158 58.2753 42.6367 59.0545C41.8576 59.8338 40.8019 60.2731 39.7 60.2765H4.158C3.05611 60.2731 2.00035 59.8338 1.22129 59.0545C0.442224 58.2753 0.00316482 57.2194 0 56.1175V4.88151C0.00342846 3.7798 0.442603 2.72418 1.22164 1.94515C2.00067 1.16611 3.05629 0.726939 4.158 0.723511Z" fill="#023F87"/>
<path fill-rule="evenodd" clip-rule="evenodd" d="M4.158 0.723511H39.7C40.8017 0.726939 41.8573 1.16611 42.6364 1.94515C43.4154 2.72418 43.8546 3.7798 43.858 4.88151V30.2525H0V4.88151C0.00342846 3.7798 0.442603 2.72418 1.22164 1.94515C2.00067 1.16611 3.05629 0.726939 4.158 0.723511Z" fill="#008346"/>
<path d="M5.43336 6.59363H9.32436V17.0326C9.29254 18.1084 9.341 19.1851 9.46936 20.2536C9.61676 21.0123 10.0404 21.6894 10.6584 22.1536C11.4127 22.6689 12.3162 22.9206 13.2284 22.8696C14.1143 22.9337 14.9958 22.695 15.7284 22.1926C16.2624 21.7849 16.6236 21.1913 16.7404 20.5296C16.8797 19.4442 16.9369 18.3497 16.9114 17.2556V6.59363H20.8024V16.7166C20.8522 18.3562 20.7468 19.9969 20.4874 21.6166C20.3085 22.508 19.9086 23.3401 19.3244 24.0366C18.7035 24.7325 17.9261 25.271 17.0564 25.6076C15.8694 26.0375 14.611 26.2358 13.3494 26.1916C11.9251 26.2612 10.5014 26.0446 9.16236 25.5546C8.29039 25.1881 7.51763 24.6203 6.90736 23.8976C6.3869 23.2794 6.01444 22.5506 5.81835 21.7666C5.52051 20.1545 5.39281 18.5155 5.43735 16.8766L5.43336 6.59363Z" fill="white"/>
<path d="M23.2344 25.8666V22.3566L33.3574 9.85663H24.3774V6.59363H38.4854V9.61763L27.9284 22.6176H38.8924V25.8666H23.2344Z" fill="white"/>
<path d="M41.4807 29.3583H2.30469V31.0793H41.4807V29.3583Z" fill="white"/>
<path d="M39.5741 3.30559H4.29306C3.88997 3.30743 3.50392 3.46837 3.21888 3.75341C2.93385 4.03844 2.77291 4.42449 2.77106 4.82759V56.1726C2.77344 56.5752 2.93468 56.9605 3.21971 57.2448C3.50474 57.529 3.8905 57.6893 4.29306 57.6906H39.5741C39.7739 57.6905 39.9717 57.651 40.1562 57.5743C40.3406 57.4976 40.5081 57.3852 40.6491 57.2436C40.7904 57.1025 40.9024 56.935 40.9788 56.7505C41.0552 56.566 41.0943 56.3682 41.0941 56.1686V4.82759C41.0922 4.42449 40.9313 4.03844 40.6462 3.75341C40.3612 3.46837 39.9752 3.30743 39.5721 3.30559M4.29306 1.80359H39.5741C40.3757 1.80517 41.144 2.12425 41.711 2.69099C42.2779 3.25772 42.5972 4.02597 42.5991 4.82759V56.1726C42.5987 56.5695 42.5201 56.9624 42.3675 57.3288C42.2149 57.6951 41.9915 58.0278 41.7101 58.3076C41.4299 58.589 41.0968 58.8123 40.7301 58.9647C40.3634 59.1171 39.9702 59.1956 39.5731 59.1956H4.29306C3.49143 59.1935 2.72324 58.8741 2.1564 58.3073C1.58956 57.7404 1.27018 56.9722 1.26807 56.1706V4.82759C1.27018 4.02605 1.58959 3.25796 2.15646 2.69128C2.72333 2.1246 3.49153 1.80544 4.29306 1.80359Z" fill="white"/>
<path d="M5.37207 54.2475V34.9595H19.6721V38.2225H9.26607V42.4985H18.9491V45.7475H9.26607V50.9965H20.0431V54.2465L5.37207 54.2475Z" fill="white"/>
<path d="M21.3833 54.2475L27.9743 44.1775L22.0013 34.9545H26.5523L30.4203 41.1545L34.2093 34.9545H38.7213L32.7213 44.3215L39.3143 54.2475H34.6143L30.3433 47.5775L26.0543 54.2475H21.3833Z" fill="white"/>
<path d="M78.2378 54.1835L85.6188 34.9655H88.3588L96.2248 54.1835H93.3248L91.0828 48.3625H83.0468L80.9358 54.1835H78.2378ZM83.7828 46.2925H90.2978L88.2928 40.9745C87.6808 39.3579 87.2261 38.0292 86.9288 36.9885C86.6796 38.2372 86.3336 39.4646 85.8938 40.6595L83.7828 46.2925Z" fill="#023F87"/>
<path d="M96.3511 54.1855V34.9675H98.9601L109.055 50.0565V34.9675H111.493V54.1855H108.884L98.7901 39.0855V54.1855H96.3511Z" fill="#023F87"/>
<path d="M122.071 46.6485V44.3935L130.212 44.3805V51.5125C129.048 52.4587 127.743 53.2172 126.345 53.7605C125.039 54.2586 123.653 54.5137 122.255 54.5135C120.466 54.5373 118.699 54.1211 117.109 53.3015C115.604 52.5302 114.381 51.3027 113.616 49.7945C112.815 48.2059 112.411 46.4473 112.436 44.6685C112.423 42.8562 112.825 41.0648 113.61 39.4315C114.314 37.8933 115.499 36.6256 116.986 35.8195C118.553 35.0098 120.296 34.6046 122.059 34.6405C123.347 34.6218 124.627 34.851 125.828 35.3155C126.859 35.6993 127.77 36.3481 128.47 37.1965C129.17 38.1324 129.665 39.2044 129.925 40.3435L127.63 40.9725C127.414 40.145 127.05 39.3635 126.555 38.6655C126.071 38.0649 125.439 37.6015 124.72 37.3215C123.88 36.9761 122.979 36.8043 122.071 36.8165C121.041 36.7928 120.016 36.9732 119.056 37.3475C118.277 37.6558 117.576 38.1341 117.004 38.7475C116.495 39.3074 116.085 39.9499 115.792 40.6475C115.295 41.8759 115.046 43.1904 115.058 44.5155C115.009 45.9987 115.312 47.4723 115.943 48.8155C116.496 49.9318 117.401 50.8348 118.519 51.3845C119.635 51.9412 120.865 52.2285 122.112 52.2235C123.218 52.2225 124.313 52.0065 125.336 51.5875C126.201 51.2705 127.008 50.812 127.722 50.2305V46.6485H122.071Z" fill="#023F87"/>
<path d="M131.327 54.1855V34.9675H145.227V37.2355H133.869V43.1215H144.501V45.3735H133.869V51.9145H145.669V54.1825L131.327 54.1855Z" fill="#023F87"/>
<path d="M237.788 25.8505V17.7095L230.381 6.63251H233.475L237.264 12.4265C237.963 13.5105 238.614 14.5942 239.218 15.6775C239.795 14.6728 240.495 13.5412 241.318 12.2825L245.041 6.63251H247.997L240.328 17.7095V25.8505H237.788Z" fill="#008346"/>
</svg>
