<svg width="213" height="80" viewBox="0 0 213 80" fill="none" xmlns="http://www.w3.org/2000/svg">
<g filter="url(#filter0_b_224_5774)">
<rect width="213" height="80" rx="20" fill="white"/>
<path fill-rule="evenodd" clip-rule="evenodd" d="M24.1715 10H59.8285C60.9338 10.0035 61.9928 10.4459 62.7744 11.2308C63.556 12.0157 63.9966 13.0792 64 14.1892V65.8098C63.9968 66.9199 63.5563 67.9837 62.7748 68.7688C61.9932 69.5539 60.934 69.9965 59.8285 70H24.1715C23.066 69.9965 22.0068 69.5539 21.2252 68.7688C20.4437 67.9837 20.0032 66.9199 20 65.8098V14.1892C20.0034 13.0792 20.444 12.0157 21.2256 11.2308C22.0071 10.4459 23.0662 10.0035 24.1715 10Z" fill="#023F87"/>
<path fill-rule="evenodd" clip-rule="evenodd" d="M24.1715 10H59.8285C60.9338 10.0035 61.9928 10.4459 62.7744 11.2308C63.556 12.0157 63.9966 13.0792 64 14.1892V39.7506H20V14.1892C20.0034 13.0792 20.444 12.0157 21.2256 11.2308C22.0071 10.4459 23.0662 10.0035 24.1715 10Z" fill="#008346"/>
<path d="M25.4505 15.9141H29.3541V26.4314C29.3221 27.5153 29.3708 28.6 29.4995 29.6766C29.6474 30.441 30.0725 31.1231 30.6924 31.5909C31.4492 32.11 32.3556 32.3636 33.2707 32.3122C34.1595 32.3768 35.0439 32.1363 35.7788 31.6301C36.3145 31.2193 36.6769 30.6213 36.7941 29.9547C36.9339 28.861 36.9912 27.7584 36.9656 26.6561V15.9141H40.8692V26.113C40.9193 27.765 40.8134 29.4179 40.5532 31.0498C40.3738 31.9479 39.9726 32.7862 39.3864 33.488C38.7635 34.1891 37.9837 34.7316 37.1111 35.0708C35.9203 35.5039 34.6578 35.7036 33.3921 35.6592C31.9633 35.7292 30.535 35.511 29.1915 35.0174C28.3167 34.6481 27.5415 34.076 26.9292 33.3479C26.4071 32.7251 26.0334 31.9908 25.8367 31.2009C25.5379 29.5767 25.4098 27.9254 25.4545 26.2742L25.4505 15.9141Z" fill="white"/>
<path d="M43.3091 35.3317V31.7954L53.4649 19.2016H44.4558V15.9141H58.6095V18.9608L48.0183 32.0583H59.0178V35.3317H43.3091Z" fill="white"/>
<path d="M61.6153 38.8496H22.3125V40.5835H61.6153V38.8496Z" fill="white"/>
<path d="M59.702 12.6017H24.3068C23.9024 12.6035 23.5151 12.7657 23.2291 13.0528C22.9432 13.34 22.7817 13.729 22.7798 14.1351V65.8655C22.7822 66.271 22.944 66.6593 23.2299 66.9457C23.5159 67.2321 23.9029 67.3935 24.3068 67.3949H59.702C59.9024 67.3948 60.1009 67.355 60.286 67.2777C60.471 67.2004 60.6391 67.0872 60.7805 66.9445C60.9222 66.8024 61.0347 66.6336 61.1113 66.4477C61.1879 66.2618 61.2272 66.0626 61.2269 65.8614V14.1351C61.2251 13.729 61.0636 13.34 60.7776 13.0528C60.4917 12.7657 60.1044 12.6035 59.7 12.6017M24.3068 11.0884H59.702C60.5062 11.09 61.277 11.4114 61.8458 11.9824C62.4146 12.5534 62.7349 13.3274 62.7368 14.1351V65.8655C62.7365 66.2653 62.6575 66.6612 62.5045 67.0303C62.3514 67.3994 62.1273 67.7346 61.8449 68.0165C61.5638 68.3 61.2297 68.525 60.8618 68.6785C60.4939 68.8321 60.0994 68.9111 59.701 68.9112H24.3068C23.5025 68.909 22.7319 68.5872 22.1632 68.0162C21.5945 67.4451 21.2741 66.6711 21.272 65.8634V14.1351C21.2741 13.3275 21.5945 12.5537 22.1632 11.9827C22.7319 11.4118 23.5026 11.0902 24.3068 11.0884Z" fill="white"/>
<path d="M25.3896 63.9256V44.4928H39.7359V47.7803H29.2963V52.0884H39.0106V55.3618H29.2963V60.6502H40.1081V63.9246L25.3896 63.9256Z" fill="white"/>
<path d="M41.4526 63.9256L48.065 53.78L42.0726 44.4878H46.6384L50.5189 50.7343L54.3202 44.4878H58.8468L52.8273 53.9251L59.4417 63.9256H54.7265L50.4416 57.2055L46.1388 63.9256H41.4526Z" fill="white"/>
<g clip-path="url(#clip0_224_5774)">
<path fill-rule="evenodd" clip-rule="evenodd" d="M105.61 27H105.111C104.905 27.1156 103.993 27.1156 103.788 27.4364C104.934 27.6975 106.698 29.5586 106.698 31.071V31.1587C106.698 32.2049 106.228 32.9322 105.816 33.5718C105.887 33.6419 105.996 33.712 106.128 33.7366C106.211 33.5999 106.309 33.4719 106.423 33.3563V33.351L106.721 33.0496C106.752 32.9462 106.773 32.8516 106.788 32.7867C106.906 32.4082 107.082 32.0314 107.259 31.7107C107.523 31.1289 108.023 30.2281 108.494 29.8793C109.082 29.443 109.817 29.152 110.699 29.0066C110.963 28.9768 113.404 28.6578 113.433 28.628C113.286 28.4528 111.404 28.0164 110.963 28.0164H110.787C110.199 28.0164 109.552 28.2495 109.111 28.395C108.699 28.5404 107.994 29.0644 107.788 29.1223C107.788 28.8015 107.171 27.9884 106.994 27.8131C106.788 27.6099 106.641 27.4346 106.406 27.2891C106.112 27.0859 105.789 27.1139 105.612 26.9982L105.61 27ZM108.139 48.638C108.139 48.2314 108.286 47.6777 108.433 47.3867C108.521 47.2115 108.903 46.486 108.933 46.3983C108.859 46.3861 108.822 46.3685 108.789 46.3528C108.597 46.6595 108.336 46.9066 108.084 47.1467C108.058 47.1712 108.034 47.194 108.009 47.2185C107.994 47.2728 107.978 47.3219 107.961 47.3587C107.814 47.7372 107.667 48.114 107.52 48.4645C107.285 49.0744 106.755 49.8893 106.285 50.2959C105.55 50.9653 102.816 51.4876 101.463 51.605C101.551 51.7505 103.315 52.129 103.639 52.129H104.286C104.727 52.129 105.55 51.8381 105.844 51.6926C106.138 51.577 106.991 51.0232 107.079 50.9951C107.167 51.3439 107.755 52.0414 107.99 52.3042C108.402 52.6828 108.725 53.0017 109.49 53.0017C109.96 53.0017 111.048 52.7406 111.195 52.5356C110.607 52.5356 109.578 51.5752 109.225 51.2265C108.755 50.7603 108.137 49.9471 108.137 49.0166V48.638H108.139ZM110.292 47.208L113.52 50.4781V50.7603L113.667 51.8363H113.02C112.108 51.8363 111.226 51.3421 110.844 50.7901C110.521 50.2661 109.786 49.4231 109.786 48.638V48.1438C109.786 47.8722 110.003 47.5375 110.292 47.208ZM96.4665 42.8513C97.1428 43.491 97.8778 44.3059 99.1715 44.3059H99.8771L99.9065 44.3357L101.589 44.0395L101.984 44.4391C100.946 44.5319 100.111 45.0121 99.5831 45.5869C99.1421 46.1109 98.6129 47.5357 98.6129 48.5241V48.7572L98.6717 49.4547C98.2012 49.2216 97.2016 48.1754 97.2016 47.5357V47.0993C97.2016 46.2844 97.819 45.5869 97.9366 45.0927C97.0546 44.8894 96.2607 44.0167 95.7021 43.4349C95.3493 43.0861 94.6142 41.2828 94.5848 40.6431C94.8494 40.8184 96.0549 42.4167 96.4665 42.853V42.8513ZM100.936 51.053C100.524 50.762 99.9947 49.8893 99.9947 49.2216V48.7554C99.9947 47.534 100.994 45.615 102.2 45.615L102.406 45.5852L103.248 45.7201L104.9 47.3938L104.912 47.399C105.104 47.5918 105.332 47.7425 105.583 47.8477C105.839 47.9546 106.109 48.0106 106.375 48.0106C106.563 48.0106 106.755 47.9826 106.94 47.9265C106.868 48.079 106.787 48.2192 106.698 48.3489C106.228 49.0761 105.787 49.134 104.934 49.4249C103.141 50.0348 101.965 49.5125 100.936 51.053ZM120.547 43.2298C120.076 43.4629 119.87 43.7538 119.224 43.9273C118.812 44.0728 118.047 44.3059 117.548 44.3059H117.371C116.401 44.3059 115.783 44.0149 115.254 43.5505C114.901 43.2298 114.225 42.4447 114.108 41.8927C113.978 41.9347 113.801 42.0416 113.717 42.152L117.392 45.8778H117.93C118.665 45.8778 119.518 45.5571 119.812 45.1506C120.135 44.7142 120.547 43.9291 120.547 43.2316V43.2298ZM114.91 40.184C114.998 40.0561 115.073 39.9211 115.131 39.7809C115.237 39.5233 115.292 39.2499 115.292 38.973C115.292 38.6961 115.237 38.4227 115.131 38.1651C115.029 37.9163 114.877 37.6832 114.68 37.4834L114.684 37.4799L114.289 37.0803C114.687 36.9629 115.123 36.8876 115.609 36.8876H115.668C117.226 36.8876 117.843 37.9636 118.49 38.924C118.784 39.3603 119.108 40.1156 119.402 40.4364C119.725 40.7571 120.46 41.1636 120.96 41.2793C120.931 41.7735 120.166 42.5008 119.843 42.7041C119.166 43.0826 118.784 43.1702 117.755 43.1702H117.461C115.726 43.1702 115.168 42.1818 114.991 40.6396C114.972 40.4854 114.945 40.3312 114.912 40.1822L114.91 40.184ZM94.3496 39.2745C95.8491 39.6232 96.2313 40.0894 96.937 41.2232C97.3486 41.8629 98.5247 43.1142 99.5537 43.1142H100.024C100.221 43.1142 100.418 43.0879 100.61 43.0476L100.207 42.6392V42.634C100.016 42.4377 99.8633 42.2046 99.7595 41.9488C99.654 41.6894 99.5987 41.4178 99.5987 41.1461C99.5987 40.8745 99.654 40.6028 99.7595 40.3435C99.8633 40.0876 100.016 39.8545 100.207 39.6582V39.653L100.422 39.4357C99.993 38.1739 99.8287 37.0365 98.056 37.0365C97.2915 37.0365 96.0566 37.2696 95.6156 37.5886C94.763 38.2002 94.7924 38.3439 94.3513 39.2762L94.3496 39.2745ZM116.901 30.9256C116.901 30.7801 116.842 30.7503 116.842 30.6049C117.43 30.7503 118.312 32.0016 118.312 32.8148C118.312 33.1057 118.106 33.7751 117.989 34.0065C117.9 34.1519 117.459 34.9668 117.459 34.9668C118.283 35.1421 119.224 36.0429 119.694 36.6545C120.076 37.1206 120.752 38.6909 120.782 39.476C120.723 39.4182 119.9 38.4 119.782 38.2545C119.4 37.7883 119.165 37.4992 118.753 37.0628C118.312 36.6264 118.077 36.4231 117.518 36.0744C117.224 35.8991 116.225 35.638 115.695 35.7256L113.248 36.0288L112.748 35.5224H113.284C114.313 35.5224 115.489 34.9984 115.901 34.3885C116.313 33.7769 116.901 32.5554 116.901 31.5968V30.9273V30.9256ZM98.3188 32.99C98.3188 32.1751 98.7893 31.1587 99.1421 30.6627C99.4067 30.3139 100.377 29.2379 100.7 29.0627C100.7 29.1503 100.024 30.7503 99.9065 31.0114C99.7595 31.3602 99.3185 32.7271 99.3185 33.1337V33.5701C99.3185 35.2577 101.729 37.3502 101.729 37.6709C101.729 37.8742 101.524 38.0775 101.318 38.1073C101.112 37.2345 99.6125 35.7519 98.5247 35.7519H97.9954C97.3192 35.7519 96.79 35.9552 96.2313 36.1305C95.6433 36.2759 95.3199 36.5966 94.8788 36.828C94.8788 35.2858 95.9079 34.1817 97.4662 34.1817H98.0542C98.2012 34.1817 98.2306 34.2115 98.3777 34.2115L98.3188 33.6875V32.99ZM101.318 28.4528L102.023 28.3371L102.435 28.3669C103.317 28.3669 103.935 28.9768 104.376 29.4132C104.67 29.7041 105.522 30.7223 105.522 31.2165V31.7685C105.522 33.2511 103.17 33.6297 103.17 36.8876C102.612 36.7719 101.7 36.0726 101.347 35.7239C100.936 35.3173 100.465 34.5322 100.465 33.6875C100.465 32.466 101.582 30.7784 101.582 29.9932V29.9634C101.582 29.3816 101.318 28.9172 101.318 28.451V28.4528ZM111.814 30.0809C114.108 30.0809 113.608 30.3139 115.137 29.2957C115.342 29.4412 115.754 30.4296 115.754 30.8082V31.1569C115.754 32.2627 114.343 34.4148 113.137 34.4148H112.873C112.321 34.4148 111.704 34.0836 111.074 33.8224L109.988 32.7219L109.965 32.7043C109.77 32.5151 109.542 32.3661 109.294 32.2645C109.044 32.1628 108.779 32.1085 108.514 32.1085C108.385 32.1085 108.255 32.1208 108.127 32.1471C108.296 31.7335 108.502 31.3707 108.696 31.1271C109.255 30.4577 110.107 30.0809 111.313 30.0809H111.813H111.814Z" fill="#C0261D"/>
<path fill-rule="evenodd" clip-rule="evenodd" d="M117.434 47.9879L110.948 41.4125C110.625 41.6999 110.249 42.0574 109.833 42.4745C109.412 42.8986 109.066 43.2789 108.785 43.6049L115.274 50.1802C115.561 50.4694 115.948 50.6324 116.353 50.6324C117.197 50.6324 117.882 49.9384 117.882 49.0832C117.882 48.6731 117.721 48.2788 117.434 47.9879ZM112.14 40.0578C112.259 40.1788 112.422 40.2471 112.589 40.2471C112.757 40.2471 112.92 40.1788 113.039 40.0578L113.658 39.4269C113.778 39.306 113.845 39.143 113.845 38.973C113.845 38.803 113.778 38.6401 113.66 38.5191L108.966 33.7629C108.845 33.6455 108.684 33.5789 108.516 33.5789C108.349 33.5789 108.188 33.6455 108.067 33.7629L107.448 34.3903C107.328 34.5112 107.263 34.6742 107.263 34.8459C107.263 35.0177 107.33 35.1806 107.448 35.3016L112.141 40.0578H112.14ZM109.385 42.0224C108.75 42.6585 108.145 43.342 107.593 44.0535L103.503 39.9089C104.203 39.3481 104.878 38.7347 105.505 38.0933C106.144 37.4554 106.745 36.7737 107.301 36.0604L111.387 40.205C110.685 40.7658 110.011 41.3792 109.385 42.0206V42.0224ZM105.924 46.3563L101.23 41.6C101.111 41.4791 101.045 41.3144 101.045 41.1444C101.045 40.9744 101.112 40.8096 101.23 40.6887L101.853 40.0578C101.972 39.9369 102.133 39.8703 102.302 39.8703C102.472 39.8703 102.633 39.9387 102.752 40.0578L107.446 44.8141C107.563 44.9368 107.631 45.0998 107.631 45.2697C107.659 45.6658 107.105 46.0286 106.823 46.3563C106.704 46.4755 106.541 46.5438 106.374 46.5438C106.206 46.5438 106.043 46.4772 105.924 46.3563Z" fill="#023F87"/>
<path fill-rule="evenodd" clip-rule="evenodd" d="M75 27.7168V52.646H83.6286C89.0834 52.646 93.4695 48.1666 93.4695 40.1805C93.4695 32.1944 89.0834 27.7168 83.6286 27.7168H75ZM78.1028 50.9128V29.45H82.1325C86.8385 29.45 90.3685 32.9901 90.3685 40.1805C90.3685 47.371 86.8385 50.9111 82.1325 50.9111H78.1028V50.9128Z" fill="#023F87"/>
<path fill-rule="evenodd" clip-rule="evenodd" d="M144.328 27.7168H142.616L134.558 48.9605L126.5 27.7168H123.148L123.968 29.8128L121.65 52.646H123.255L125.217 33.1005L132.598 52.646H135.95L135.416 51.2738L141.156 36.099L142.832 52.646H145.935L143.617 29.5955L144.33 27.7168H144.328ZM153.776 27.7168L154.525 29.8128L146.467 52.646H148.428L149.783 48.7432H161.229L162.619 52.646H165.935L157.093 27.7168H153.778H153.776ZM150.424 47.01L155.523 32.6308L160.622 47.01H150.424ZM170.642 27.7168H167.54V52.646H170.677L170.641 27.7168H170.642ZM175.634 52.646V32.233L188.292 52.646H192L191.109 51.2002V27.7168H189.575V48.745L176.49 27.7168H172.818L174.067 29.7409V52.6478H175.635L175.634 52.646Z" fill="#023F87"/>
</g>
</g>
<defs>
<filter id="filter0_b_224_5774" x="-20" y="-20" width="253" height="120" filterUnits="userSpaceOnUse" color-interpolation-filters="sRGB">
<feFlood flood-opacity="0" result="BackgroundImageFix"/>
<feGaussianBlur in="BackgroundImageFix" stdDeviation="10"/>
<feComposite in2="SourceAlpha" operator="in" result="effect1_backgroundBlur_224_5774"/>
<feBlend mode="normal" in="SourceGraphic" in2="effect1_backgroundBlur_224_5774" result="shape"/>
</filter>
<clipPath id="clip0_224_5774">
<rect width="117" height="26" fill="white" transform="translate(75 27)"/>
</clipPath>
</defs>
</svg>
