<svg width="1440" height="606" viewBox="0 0 1440 606" fill="none" xmlns="http://www.w3.org/2000/svg">
<g opacity="0.2">
<g opacity="0.5">
<path d="M1389.08 331.191C1383.94 326.053 1383.94 317.722 1389.08 312.583L1402.61 299.051C1407.75 293.912 1416.08 293.912 1421.22 299.051L1530.71 408.539C1535.84 413.677 1535.84 422.008 1530.71 427.147L1517.17 440.679C1512.04 445.817 1503.7 445.817 1498.57 440.679L1389.08 331.191ZM1533.01 187.258C1527.87 182.119 1527.87 173.788 1533.01 168.65L1546.54 155.118C1551.68 149.979 1560.01 149.979 1565.15 155.118L1674.64 264.605C1679.78 269.744 1679.78 278.075 1674.64 283.213L1661.11 296.746C1655.97 301.884 1647.64 301.884 1642.5 296.746L1533.01 187.258ZM1443.55 294.628C1442.69 293.765 1442.81 292.159 1443.94 291.4C1451.64 286.266 1467.71 274.544 1488.11 254.148C1508.5 233.753 1520.23 217.678 1525.36 209.984C1526.12 208.845 1527.73 208.727 1528.59 209.589L1618.17 299.166C1619.06 300.055 1618.96 301.882 1617.72 302.759C1610.89 307.583 1597.13 318.49 1574.98 341.049C1552.59 363.851 1541.58 377.51 1536.72 384.078C1535.88 385.211 1534.21 385.291 1533.35 384.429L1443.55 294.628ZM1613.04 332.715C1613.15 332.638 1613.26 332.564 1613.36 332.493L1762.6 481.735C1775.55 494.687 1775.55 515.686 1762.6 528.638C1749.65 541.59 1728.65 541.59 1715.7 528.638L1566.53 379.472C1566.58 379.4 1566.64 379.326 1566.7 379.25C1567.67 377.983 1569.14 376.121 1571.08 373.76C1574.96 369.037 1580.76 362.32 1588.4 354.375C1596.01 346.468 1602.69 340.699 1607.46 336.916C1609.84 335.025 1611.74 333.631 1613.04 332.715Z" stroke="#242424" stroke-width="5"/>
<mask id="path-2-inside-1_107_6847" fill="white">
<path d="M1468.64 2.21986C1472.88 1.52025 1476.51 0.920239 1478.16 0H1489.74C1491.48 1.13653 1493.87 1.65967 1496.57 2.25286C1500.16 3.03993 1504.31 3.95034 1508.27 6.58056C1512.73 9.30933 1515.85 12.4533 1519.45 16.0807C1520.23 16.868 1521.04 17.6781 1521.88 18.5117C1525.95 22.4477 1540.24 41.0209 1540.24 48.3395C1542.32 47.7448 1546.64 45.1066 1551.64 42.0541L1551.64 42.0535C1558.02 38.1613 1565.49 33.5955 1570.84 31.7343C1571.65 31.4739 1572.48 31.2015 1573.33 30.9204L1573.34 30.9197C1583.41 27.6158 1597.1 23.1242 1609.64 23.1242H1613.71C1623.93 23.1242 1667.47 33.0873 1670.86 37.0849C1670.18 37.7614 1613.65 45.0184 1607.55 45.6949C1587.1 49.016 1570.11 55.658 1556.5 65.6211C1545.59 73.6162 1534.02 94.1574 1527.92 107.442C1523.86 114.76 1519.73 123.37 1517.02 131.98C1515.66 137.946 1511.6 153.874 1504.09 153.874C1499.96 153.874 1496.57 151.845 1494.54 149.877L1494.71 149.61C1504.16 135.099 1514.93 118.551 1514.93 94.8339V92.8659C1514.93 58.3641 1474.1 15.9287 1447.55 9.96309C1450.64 5.19123 1460.7 3.53073 1468.64 2.21986Z"/>
<path d="M1559.3 94.2252C1572.15 79.0232 1591.74 70.4415 1619.47 70.4415H1630.98C1640.94 70.4415 1648.61 70.632 1654.74 70.7841C1666.34 71.0721 1672.4 71.2227 1677.99 69.6828C1684.12 67.9967 1689.69 64.2839 1701.36 56.5058L1701.36 56.5039L1701.39 56.4842L1701.43 56.4578C1703.24 55.2525 1705.2 53.9498 1707.32 52.5424C1712.03 55.8525 1721.52 78.3489 1721.52 86.9307V94.8382C1721.52 119.97 1689.08 168.886 1661.35 168.886H1655.29C1638.02 168.886 1624.98 160.797 1616.53 155.555L1616.52 155.554L1616.52 155.553L1616.52 155.552L1616.52 155.551L1616.51 155.549L1616.51 155.547C1614.72 154.437 1613.14 153.454 1611.76 152.704C1608.35 150.843 1604.7 146.839 1600.45 142.173C1594.89 136.077 1588.31 128.851 1579.88 123.795C1565 114.867 1547.14 115.717 1547.14 115.717C1547.14 115.717 1549.13 106.791 1559.3 94.2252Z"/>
<path d="M1391.16 48.0067C1392.76 53.9207 1394.44 60.182 1394.44 67.1973V67.8742C1394.44 75.8422 1389.36 87.8912 1383.71 101.268C1376.66 117.958 1368.74 136.714 1368.74 152.19C1368.74 171.454 1379.57 189.363 1389.06 198.657C1397.2 206.596 1418.13 222.536 1430.98 225.182C1430.98 180.79 1450.27 159.833 1465.81 142.945C1476.3 131.55 1485.08 122.009 1485.08 108.371V95.7539C1485.08 84.4913 1465.5 61.2274 1458.71 54.5806C1448.55 44.6104 1434.35 30.7013 1414.09 30.7013L1404.6 30.0243L1388.38 32.6707C1388.38 37.6992 1389.74 42.714 1391.16 48.0067Z"/>
<path d="M1319.76 164.365L1318.41 152.429V136.494C1318.41 117.913 1329.24 94.6566 1337.33 83.3975C1343.45 75.4607 1365.73 50.9122 1373.2 46.9131C1373.2 48.9434 1357.65 85.4278 1354.95 91.3958C1351.59 99.3325 1341.43 130.526 1341.43 139.816V149.783C1341.43 176.604 1368.32 207.9 1384.65 226.905C1391.77 235.191 1396.89 241.14 1396.89 243.363C1396.89 248.039 1392.11 252.653 1387.4 253.33C1382.62 233.396 1348.16 199.557 1323.12 199.557H1310.94C1297.37 199.557 1286.37 203.071 1275.24 206.624L1275.24 206.625C1273.62 207.143 1271.99 207.662 1270.36 208.171C1261.21 210.417 1254.86 214.491 1248.57 218.53C1245.55 220.465 1242.55 222.392 1239.26 224.106C1239.26 188.913 1262.89 163.688 1298.76 163.688H1312.29C1314.01 163.688 1315.04 163.859 1316.06 164.029C1317.07 164.197 1318.08 164.365 1319.76 164.365Z"/>
<path d="M1748.16 82.5196C1748.48 83.5071 1748.81 84.5034 1748.81 86.1439V101.421C1748.81 123.35 1735.32 151.255 1725.86 165.238C1716.4 179.222 1689.42 191.172 1665.86 191.172H1648.34V195.792C1648.34 199.796 1651.7 204.416 1655.05 204.416L1656.4 203.738L1721.16 195.792C1733.31 193.821 1756.26 199.796 1762.97 203.738C1775.79 211.685 1781.16 216.366 1791.29 226.346C1799.78 235.294 1804.97 241.568 1812.29 250.408L1812.3 250.411L1812.3 250.412C1812.83 251.053 1813.37 251.708 1813.93 252.379C1814.25 252.771 1814.58 253.169 1814.92 253.573C1817.6 256.899 1836.52 280.122 1837.87 281.478C1837.2 263.552 1821.69 227.639 1812.9 217.044C1802.1 203.061 1780.55 182.486 1761.63 178.482C1761.63 178.482 1771.76 159.879 1773.78 156.553C1776.46 151.255 1781.22 135.978 1781.22 129.326C1781.22 110.722 1761.02 82.1399 1747.53 78.8135C1747.5 80.4994 1747.83 81.5049 1748.16 82.5196Z"/>
<path d="M1287.18 321.46C1271.05 295.885 1262.34 285.376 1228 277.539C1229.45 274.529 1230.68 271.883 1231.78 269.518L1231.78 269.516C1238.33 255.422 1240.24 251.32 1256.92 239.511C1267.03 232.282 1295.28 227.058 1312.75 227.058C1349.16 227.058 1355.9 247.665 1364.02 272.463C1365.05 275.617 1366.11 278.839 1367.25 282.095C1367.89 283.928 1366.26 285.607 1363.78 288.172C1358.41 293.724 1349.01 303.432 1349.88 327.86C1352.1 341.546 1355.56 345.577 1356.74 346.954C1356.92 347.159 1357.04 347.305 1357.11 347.416C1359.51 351.627 1365.33 357.541 1368.52 360.791L1368.52 360.792C1369.84 362.134 1370.71 363.021 1370.71 363.146C1370.59 363.196 1370.48 363.242 1370.38 363.287C1370.1 363.406 1369.87 363.507 1369.63 363.592C1368.35 364.044 1366.92 364.044 1357.81 364.044H1347.03C1323.53 364.044 1296.62 335.857 1287.18 321.46Z"/>
<path d="M1687.35 229.228C1689.21 231.77 1691.63 233.975 1694.2 236.324C1700.98 242.511 1708.85 249.691 1710.39 266.64C1711.47 278.49 1708.95 283.68 1706.4 288.901C1703.93 293.983 1701.44 299.096 1702.24 310.408C1703.87 333.344 1719.16 367.797 1759.11 367.797H1765.91C1789.62 367.797 1798.38 365.839 1814.01 357.212C1821.48 352.562 1839.07 336.104 1839.74 324.847C1828.22 322.216 1811.31 312.978 1803.84 305.697C1799.88 301.424 1795.67 293.759 1791.5 286.152C1788.56 280.796 1785.63 275.469 1782.82 271.374C1781.95 270.096 1781.08 268.809 1780.2 267.518L1780.18 267.481L1780.16 267.451L1780.14 267.422L1780.13 267.407C1766.14 246.735 1751.55 225.181 1717.81 225.181H1716.46C1708.63 225.202 1704.55 224.764 1701.98 224.487C1700.35 224.312 1699.32 224.201 1698.31 224.313C1696.59 224.505 1694.94 225.349 1690.47 227.638C1689.56 228.105 1688.53 228.633 1687.35 229.228Z"/>
<path d="M1434.41 520.406C1412.34 523.624 1395 526.154 1379.15 549.818C1369.63 543.181 1357.48 523.082 1357.48 507.76V497.028C1357.48 468.926 1379.46 424.076 1407.27 424.076H1414.5C1415.54 424.076 1416.44 424.065 1417.26 424.055C1421.15 424.008 1423.36 423.981 1431.08 425.215C1435.58 425.936 1445.51 436.434 1455.97 447.495C1467.23 459.404 1479.11 471.966 1485.5 473.681C1497.83 476.989 1516.53 476.657 1516.53 476.657H1517.38C1517.38 476.657 1520.29 475.564 1512.12 487.599C1502.69 502.133 1493.77 505.036 1478.74 509.927C1476.45 510.673 1474.02 511.464 1471.42 512.35C1457.64 517.02 1445.44 518.799 1434.41 520.406Z"/>
<path d="M1260.21 340.214C1249.93 327.414 1239.02 313.849 1235.51 311.501C1236.17 326.058 1252.83 367.149 1260.86 375.133C1261.54 375.851 1262.24 376.587 1262.96 377.339C1275.48 390.501 1292.6 408.492 1311.56 412.908C1310.59 417.024 1308.09 421.765 1305.32 427.033C1300.53 436.152 1294.9 446.848 1294.9 458.605V468.556C1294.9 483.113 1317.59 507.006 1328.28 512.288L1326.95 496.38V491.098C1326.95 468.556 1338.96 436.125 1348.98 424.209C1362.32 409.652 1368.16 404.384 1394.52 398.857L1404.3 396.731C1404.3 391.449 1399.2 388.229 1394.52 387.378L1357.96 394.181H1337.55C1311.2 394.071 1296.8 380.007 1283.11 366.634L1283.1 366.631C1281.46 365.024 1279.82 363.428 1278.18 361.866C1274.33 357.768 1267.42 349.178 1260.21 340.214Z"/>
<path d="M1552.44 463.558C1549.05 470.177 1545.67 482.742 1545.67 491.996H1545.73V500.516C1545.73 521.66 1560.01 540.17 1570.9 550.773C1579.02 558.679 1602.84 580.498 1616.44 580.498C1613.05 585.156 1587.88 591.102 1576.99 591.102C1559.89 591.102 1552.35 584.309 1543.27 576.122C1542.95 575.826 1542.61 575.527 1542.28 575.227C1536.8 569.282 1523.2 553.408 1521.17 545.502C1520.39 545.76 1517.02 547.76 1512.77 550.279L1512.77 550.282C1505.92 554.343 1496.79 559.75 1492.62 561.376C1485.79 564.686 1466.77 571.305 1456.55 571.305H1441.6C1434.09 571.305 1393.29 562.724 1391.26 559.415C1422.52 556.779 1485.79 544.889 1502.77 529.689C1513.66 520.435 1525.91 501.925 1531.33 488.013C1534.08 481.645 1537.1 474.944 1540.16 468.17L1540.16 468.165L1541.35 465.526C1541.72 464.702 1542.1 463.877 1542.47 463.052C1545.34 456.676 1553.17 448.499 1558.13 443.317C1559.36 442.036 1560.41 440.938 1561.17 440.095C1564.24 440.095 1564.15 440.331 1564.03 440.676C1563.98 440.794 1563.93 440.926 1564.01 441.065C1563.53 442.484 1559.03 451.025 1555.68 457.371C1554.26 460.068 1553.04 462.37 1552.44 463.558Z"/>
<path d="M1830.28 368.099C1826.33 370.023 1823.2 372.127 1820.09 374.217C1814.7 377.838 1809.38 381.415 1799.99 383.935C1790.54 387.236 1773.05 392.495 1761.59 392.495H1757.56C1735.32 392.495 1722.45 385.141 1710.32 374.624C1702.21 367.348 1687.91 351.022 1685.23 338.488C1685.08 338.539 1684.93 338.59 1684.77 338.642C1684.6 338.697 1684.43 338.752 1684.26 338.809L1684.2 338.828C1680.24 340.128 1675.03 341.835 1675.03 344.865V345.498L1756.66 427.766L1757.56 428.08H1770.3C1787.13 428.08 1806.69 420.804 1813.4 411.571C1820.9 401.727 1830.28 383.935 1830.28 368.099Z"/>
<path d="M1596.67 459.046C1589.79 466.72 1584.54 474.521 1584.54 480.841V492.068C1584.54 506.137 1595.05 521.045 1603.17 532.557C1605.35 535.653 1607.36 538.504 1608.94 541.026C1617.77 553.603 1638.07 564.83 1659.11 564.83H1674.01L1670.64 540.351V533.684L1596.67 459.046Z"/>
</mask>
<path d="M1468.64 2.21986C1472.88 1.52025 1476.51 0.920239 1478.16 0H1489.74C1491.48 1.13653 1493.87 1.65967 1496.57 2.25286C1500.16 3.03993 1504.31 3.95034 1508.27 6.58056C1512.73 9.30933 1515.85 12.4533 1519.45 16.0807C1520.23 16.868 1521.04 17.6781 1521.88 18.5117C1525.95 22.4477 1540.24 41.0209 1540.24 48.3395C1542.32 47.7448 1546.64 45.1066 1551.64 42.0541L1551.64 42.0535C1558.02 38.1613 1565.49 33.5955 1570.84 31.7343C1571.65 31.4739 1572.48 31.2015 1573.33 30.9204L1573.34 30.9197C1583.41 27.6158 1597.1 23.1242 1609.64 23.1242H1613.71C1623.93 23.1242 1667.47 33.0873 1670.86 37.0849C1670.18 37.7614 1613.65 45.0184 1607.55 45.6949C1587.1 49.016 1570.11 55.658 1556.5 65.6211C1545.59 73.6162 1534.02 94.1574 1527.92 107.442C1523.86 114.76 1519.73 123.37 1517.02 131.98C1515.66 137.946 1511.6 153.874 1504.09 153.874C1499.96 153.874 1496.57 151.845 1494.54 149.877L1494.71 149.61C1504.16 135.099 1514.93 118.551 1514.93 94.8339V92.8659C1514.93 58.3641 1474.1 15.9287 1447.55 9.96309C1450.64 5.19123 1460.7 3.53073 1468.64 2.21986Z" stroke="#242424" stroke-width="10" mask="url(#path-2-inside-1_107_6847)"/>
<path d="M1559.3 94.2252C1572.15 79.0232 1591.74 70.4415 1619.47 70.4415H1630.98C1640.94 70.4415 1648.61 70.632 1654.74 70.7841C1666.34 71.0721 1672.4 71.2227 1677.99 69.6828C1684.12 67.9967 1689.69 64.2839 1701.36 56.5058L1701.36 56.5039L1701.39 56.4842L1701.43 56.4578C1703.24 55.2525 1705.2 53.9498 1707.32 52.5424C1712.03 55.8525 1721.52 78.3489 1721.52 86.9307V94.8382C1721.52 119.97 1689.08 168.886 1661.35 168.886H1655.29C1638.02 168.886 1624.98 160.797 1616.53 155.555L1616.52 155.554L1616.52 155.553L1616.52 155.552L1616.52 155.551L1616.51 155.549L1616.51 155.547C1614.72 154.437 1613.14 153.454 1611.76 152.704C1608.35 150.843 1604.7 146.839 1600.45 142.173C1594.89 136.077 1588.31 128.851 1579.88 123.795C1565 114.867 1547.14 115.717 1547.14 115.717C1547.14 115.717 1549.13 106.791 1559.3 94.2252Z" stroke="#242424" stroke-width="10" mask="url(#path-2-inside-1_107_6847)"/>
<path d="M1391.16 48.0067C1392.76 53.9207 1394.44 60.182 1394.44 67.1973V67.8742C1394.44 75.8422 1389.36 87.8912 1383.71 101.268C1376.66 117.958 1368.74 136.714 1368.74 152.19C1368.74 171.454 1379.57 189.363 1389.06 198.657C1397.2 206.596 1418.13 222.536 1430.98 225.182C1430.98 180.79 1450.27 159.833 1465.81 142.945C1476.3 131.55 1485.08 122.009 1485.08 108.371V95.7539C1485.08 84.4913 1465.5 61.2274 1458.71 54.5806C1448.55 44.6104 1434.35 30.7013 1414.09 30.7013L1404.6 30.0243L1388.38 32.6707C1388.38 37.6992 1389.74 42.714 1391.16 48.0067Z" stroke="#242424" stroke-width="10" mask="url(#path-2-inside-1_107_6847)"/>
<path d="M1319.76 164.365L1318.41 152.429V136.494C1318.41 117.913 1329.24 94.6566 1337.33 83.3975C1343.45 75.4607 1365.73 50.9122 1373.2 46.9131C1373.2 48.9434 1357.65 85.4278 1354.95 91.3958C1351.59 99.3325 1341.43 130.526 1341.43 139.816V149.783C1341.43 176.604 1368.32 207.9 1384.65 226.905C1391.77 235.191 1396.89 241.14 1396.89 243.363C1396.89 248.039 1392.11 252.653 1387.4 253.33C1382.62 233.396 1348.16 199.557 1323.12 199.557H1310.94C1297.37 199.557 1286.37 203.071 1275.24 206.624L1275.24 206.625C1273.62 207.143 1271.99 207.662 1270.36 208.171C1261.21 210.417 1254.86 214.491 1248.57 218.53C1245.55 220.465 1242.55 222.392 1239.26 224.106C1239.26 188.913 1262.89 163.688 1298.76 163.688H1312.29C1314.01 163.688 1315.04 163.859 1316.06 164.029C1317.07 164.197 1318.08 164.365 1319.76 164.365Z" stroke="#242424" stroke-width="10" mask="url(#path-2-inside-1_107_6847)"/>
<path d="M1748.16 82.5196C1748.48 83.5071 1748.81 84.5034 1748.81 86.1439V101.421C1748.81 123.35 1735.32 151.255 1725.86 165.238C1716.4 179.222 1689.42 191.172 1665.86 191.172H1648.34V195.792C1648.34 199.796 1651.7 204.416 1655.05 204.416L1656.4 203.738L1721.16 195.792C1733.31 193.821 1756.26 199.796 1762.97 203.738C1775.79 211.685 1781.16 216.366 1791.29 226.346C1799.78 235.294 1804.97 241.568 1812.29 250.408L1812.3 250.411L1812.3 250.412C1812.83 251.053 1813.37 251.708 1813.93 252.379C1814.25 252.771 1814.58 253.169 1814.92 253.573C1817.6 256.899 1836.52 280.122 1837.87 281.478C1837.2 263.552 1821.69 227.639 1812.9 217.044C1802.1 203.061 1780.55 182.486 1761.63 178.482C1761.63 178.482 1771.76 159.879 1773.78 156.553C1776.46 151.255 1781.22 135.978 1781.22 129.326C1781.22 110.722 1761.02 82.1399 1747.53 78.8135C1747.5 80.4994 1747.83 81.5049 1748.16 82.5196Z" stroke="#242424" stroke-width="10" mask="url(#path-2-inside-1_107_6847)"/>
<path d="M1287.18 321.46C1271.05 295.885 1262.34 285.376 1228 277.539C1229.45 274.529 1230.68 271.883 1231.78 269.518L1231.78 269.516C1238.33 255.422 1240.24 251.32 1256.92 239.511C1267.03 232.282 1295.28 227.058 1312.75 227.058C1349.16 227.058 1355.9 247.665 1364.02 272.463C1365.05 275.617 1366.11 278.839 1367.25 282.095C1367.89 283.928 1366.26 285.607 1363.78 288.172C1358.41 293.724 1349.01 303.432 1349.88 327.86C1352.1 341.546 1355.56 345.577 1356.74 346.954C1356.92 347.159 1357.04 347.305 1357.11 347.416C1359.51 351.627 1365.33 357.541 1368.52 360.791L1368.52 360.792C1369.84 362.134 1370.71 363.021 1370.71 363.146C1370.59 363.196 1370.48 363.242 1370.38 363.287C1370.1 363.406 1369.87 363.507 1369.63 363.592C1368.35 364.044 1366.92 364.044 1357.81 364.044H1347.03C1323.53 364.044 1296.62 335.857 1287.18 321.46Z" stroke="#242424" stroke-width="10" mask="url(#path-2-inside-1_107_6847)"/>
<path d="M1687.35 229.228C1689.21 231.77 1691.63 233.975 1694.2 236.324C1700.98 242.511 1708.85 249.691 1710.39 266.64C1711.47 278.49 1708.95 283.68 1706.4 288.901C1703.93 293.983 1701.44 299.096 1702.24 310.408C1703.87 333.344 1719.16 367.797 1759.11 367.797H1765.91C1789.62 367.797 1798.38 365.839 1814.01 357.212C1821.48 352.562 1839.07 336.104 1839.74 324.847C1828.22 322.216 1811.31 312.978 1803.84 305.697C1799.88 301.424 1795.67 293.759 1791.5 286.152C1788.56 280.796 1785.63 275.469 1782.82 271.374C1781.95 270.096 1781.08 268.809 1780.2 267.518L1780.18 267.481L1780.16 267.451L1780.14 267.422L1780.13 267.407C1766.14 246.735 1751.55 225.181 1717.81 225.181H1716.46C1708.63 225.202 1704.55 224.764 1701.98 224.487C1700.35 224.312 1699.32 224.201 1698.31 224.313C1696.59 224.505 1694.94 225.349 1690.47 227.638C1689.56 228.105 1688.53 228.633 1687.35 229.228Z" stroke="#242424" stroke-width="10" mask="url(#path-2-inside-1_107_6847)"/>
<path d="M1434.41 520.406C1412.34 523.624 1395 526.154 1379.15 549.818C1369.63 543.181 1357.48 523.082 1357.48 507.76V497.028C1357.48 468.926 1379.46 424.076 1407.27 424.076H1414.5C1415.54 424.076 1416.44 424.065 1417.26 424.055C1421.15 424.008 1423.36 423.981 1431.08 425.215C1435.58 425.936 1445.51 436.434 1455.97 447.495C1467.23 459.404 1479.11 471.966 1485.5 473.681C1497.83 476.989 1516.53 476.657 1516.53 476.657H1517.38C1517.38 476.657 1520.29 475.564 1512.12 487.599C1502.69 502.133 1493.77 505.036 1478.74 509.927C1476.45 510.673 1474.02 511.464 1471.42 512.35C1457.64 517.02 1445.44 518.799 1434.41 520.406Z" stroke="#242424" stroke-width="10" mask="url(#path-2-inside-1_107_6847)"/>
<path d="M1260.21 340.214C1249.93 327.414 1239.02 313.849 1235.51 311.501C1236.17 326.058 1252.83 367.149 1260.86 375.133C1261.54 375.851 1262.24 376.587 1262.96 377.339C1275.48 390.501 1292.6 408.492 1311.56 412.908C1310.59 417.024 1308.09 421.765 1305.32 427.033C1300.53 436.152 1294.9 446.848 1294.9 458.605V468.556C1294.9 483.113 1317.59 507.006 1328.28 512.288L1326.95 496.38V491.098C1326.95 468.556 1338.96 436.125 1348.98 424.209C1362.32 409.652 1368.16 404.384 1394.52 398.857L1404.3 396.731C1404.3 391.449 1399.2 388.229 1394.52 387.378L1357.96 394.181H1337.55C1311.2 394.071 1296.8 380.007 1283.11 366.634L1283.1 366.631C1281.46 365.024 1279.82 363.428 1278.18 361.866C1274.33 357.768 1267.42 349.178 1260.21 340.214Z" stroke="#242424" stroke-width="10" mask="url(#path-2-inside-1_107_6847)"/>
<path d="M1552.44 463.558C1549.05 470.177 1545.67 482.742 1545.67 491.996H1545.73V500.516C1545.73 521.66 1560.01 540.17 1570.9 550.773C1579.02 558.679 1602.84 580.498 1616.44 580.498C1613.05 585.156 1587.88 591.102 1576.99 591.102C1559.89 591.102 1552.35 584.309 1543.27 576.122C1542.95 575.826 1542.61 575.527 1542.28 575.227C1536.8 569.282 1523.2 553.408 1521.17 545.502C1520.39 545.76 1517.02 547.76 1512.77 550.279L1512.77 550.282C1505.92 554.343 1496.79 559.75 1492.62 561.376C1485.79 564.686 1466.77 571.305 1456.55 571.305H1441.6C1434.09 571.305 1393.29 562.724 1391.26 559.415C1422.52 556.779 1485.79 544.889 1502.77 529.689C1513.66 520.435 1525.91 501.925 1531.33 488.013C1534.08 481.645 1537.1 474.944 1540.16 468.17L1540.16 468.165L1541.35 465.526C1541.72 464.702 1542.1 463.877 1542.47 463.052C1545.34 456.676 1553.17 448.499 1558.13 443.317C1559.36 442.036 1560.41 440.938 1561.17 440.095C1564.24 440.095 1564.15 440.331 1564.03 440.676C1563.98 440.794 1563.93 440.926 1564.01 441.065C1563.53 442.484 1559.03 451.025 1555.68 457.371C1554.26 460.068 1553.04 462.37 1552.44 463.558Z" stroke="#242424" stroke-width="10" mask="url(#path-2-inside-1_107_6847)"/>
<path d="M1830.28 368.099C1826.33 370.023 1823.2 372.127 1820.09 374.217C1814.7 377.838 1809.38 381.415 1799.99 383.935C1790.54 387.236 1773.05 392.495 1761.59 392.495H1757.56C1735.32 392.495 1722.45 385.141 1710.32 374.624C1702.21 367.348 1687.91 351.022 1685.23 338.488C1685.08 338.539 1684.93 338.59 1684.77 338.642C1684.6 338.697 1684.43 338.752 1684.26 338.809L1684.2 338.828C1680.24 340.128 1675.03 341.835 1675.03 344.865V345.498L1756.66 427.766L1757.56 428.08H1770.3C1787.13 428.08 1806.69 420.804 1813.4 411.571C1820.9 401.727 1830.28 383.935 1830.28 368.099Z" stroke="#242424" stroke-width="10" mask="url(#path-2-inside-1_107_6847)"/>
<path d="M1596.67 459.046C1589.79 466.72 1584.54 474.521 1584.54 480.841V492.068C1584.54 506.137 1595.05 521.045 1603.17 532.557C1605.35 535.653 1607.36 538.504 1608.94 541.026C1617.77 553.603 1638.07 564.83 1659.11 564.83H1674.01L1670.64 540.351V533.684L1596.67 459.046Z" stroke="#242424" stroke-width="10" mask="url(#path-2-inside-1_107_6847)"/>
</g>
<g opacity="0.5">
<path d="M51.0921 331.191C56.2306 326.053 56.2306 317.722 51.0921 312.583L37.5599 299.051C32.4214 293.912 24.0903 293.912 18.9519 299.051L-90.5357 408.539C-95.6742 413.677 -95.6742 422.008 -90.5357 427.147L-77.0036 440.679C-71.8651 445.817 -63.534 445.817 -58.3955 440.679L51.0921 331.191ZM-92.8411 187.258C-87.7026 182.119 -87.7026 173.788 -92.8411 168.65L-106.373 155.118C-111.512 149.979 -119.843 149.979 -124.981 155.118L-234.469 264.605C-239.607 269.744 -239.607 278.075 -234.469 283.213L-220.937 296.746C-215.798 301.884 -207.467 301.884 -202.329 296.746L-92.8411 187.258ZM-3.38 294.628C-2.51779 293.765 -2.63615 292.159 -3.77473 291.4C-11.4694 286.266 -27.5438 274.544 -47.9393 254.148C-68.3349 233.753 -80.0575 217.678 -85.1908 209.984C-85.9504 208.845 -87.5566 208.727 -88.4188 209.589L-177.996 299.166C-178.885 300.055 -178.789 301.882 -177.548 302.759C-170.721 307.583 -156.955 318.49 -134.807 341.049C-112.419 363.851 -101.405 377.51 -96.5517 384.078C-95.7149 385.211 -94.0433 385.291 -93.1809 384.429L-3.38 294.628ZM-172.871 332.715C-172.98 332.638 -173.085 332.564 -173.186 332.493L-322.428 481.735C-335.38 494.687 -335.38 515.686 -322.428 528.638C-309.476 541.59 -288.477 541.59 -275.526 528.638L-126.36 379.472C-126.415 379.4 -126.472 379.326 -126.53 379.25C-127.504 377.983 -128.967 376.121 -130.91 373.76C-134.794 369.037 -140.595 362.32 -148.234 354.375C-155.837 346.468 -162.519 340.699 -167.285 336.916C-169.668 335.025 -171.571 333.631 -172.871 332.715Z" stroke="#242424" stroke-width="5"/>
<mask id="path-4-inside-2_107_6847" fill="white">
<path d="M-28.4692 2.21986C-32.706 1.52025 -36.3398 0.920239 -37.9899 0H-49.5678C-51.3146 1.13653 -53.6984 1.65967 -56.4015 2.25286C-59.9879 3.03993 -64.1365 3.95034 -68.1047 6.58056C-72.5577 9.30933 -75.6802 12.4533 -79.2828 16.0807C-80.0647 16.868 -80.8693 17.6781 -81.7149 18.5117C-85.7795 22.4477 -100.067 41.0209 -100.067 48.3395C-102.151 47.7448 -106.472 45.1066 -111.472 42.0541L-111.473 42.0535C-117.847 38.1613 -125.325 33.5955 -130.675 31.7343C-131.476 31.4739 -132.307 31.2015 -133.164 30.9204L-133.166 30.9197C-143.238 27.6158 -156.931 23.1242 -169.473 23.1242H-173.538C-183.761 23.1242 -227.301 33.0873 -230.688 37.0849C-230.011 37.7614 -173.476 45.0184 -167.379 45.6949C-146.933 49.016 -129.936 55.658 -116.325 65.6211C-105.425 73.6162 -93.8471 94.1574 -87.7502 107.442C-83.6856 114.76 -79.5595 123.37 -76.8498 131.98C-75.4949 137.946 -71.4303 153.874 -63.917 153.874C-59.7908 153.874 -56.4037 151.845 -54.3714 149.877L-54.5449 149.61C-63.9879 135.099 -74.7559 118.551 -74.7559 94.8339V92.8659C-74.7559 58.3641 -33.9253 15.9287 -7.38235 9.96309C-10.4742 5.19123 -20.5304 3.53073 -28.4692 2.21986Z"/>
<path d="M-119.126 94.2252C-131.981 79.0232 -151.571 70.4415 -179.303 70.4415H-190.812C-200.774 70.4415 -208.444 70.632 -214.569 70.7841C-226.167 71.0721 -232.229 71.2227 -237.825 69.6828C-243.952 67.9967 -249.522 64.2839 -261.191 56.5058L-261.194 56.5039L-261.223 56.4842L-261.263 56.4578C-263.071 55.2525 -265.025 53.9498 -267.151 52.5424C-271.864 55.8525 -281.353 78.3489 -281.353 86.9307V94.8382C-281.353 119.97 -248.908 168.886 -221.176 168.886H-215.115C-197.848 168.886 -184.807 160.797 -176.355 155.555L-176.353 155.554L-176.352 155.553L-176.35 155.552L-176.349 155.551L-176.345 155.549L-176.342 155.547C-174.552 154.437 -172.968 153.454 -171.593 152.704C-168.184 150.843 -164.533 146.839 -160.279 142.173C-154.723 136.077 -148.136 128.851 -139.708 123.795C-124.828 114.867 -106.973 115.717 -106.973 115.717C-106.973 115.717 -108.963 106.791 -119.126 94.2252Z"/>
<path d="M49.0073 48.0067C47.4135 53.9207 45.7261 60.182 45.7261 67.1973V67.8742C45.7261 75.8422 50.8141 87.8912 56.4627 101.268C63.5103 117.958 71.4308 136.714 71.4308 152.19C71.4308 171.454 60.5981 189.363 51.1118 198.657C42.972 206.596 22.0411 222.536 9.1888 225.182C9.1888 180.79 -10.1003 159.833 -25.6433 142.945C-36.1311 131.55 -44.9134 122.009 -44.9134 108.371V95.7539C-44.9134 84.4913 -25.3289 61.2274 -18.5355 54.5806C-8.37605 44.6104 5.82271 30.7013 26.0804 30.7013L35.5667 30.0243L51.7851 32.6707C51.7851 37.6992 50.4336 42.714 49.0073 48.0067Z"/>
<path d="M120.413 164.365L121.76 152.429V136.494C121.76 117.913 110.925 94.6566 102.845 83.3975C96.7233 75.4607 74.4412 50.9122 66.973 46.9131C66.973 48.9434 82.5215 85.4278 85.215 91.3958C88.5818 99.3325 98.7434 130.526 98.7434 139.816V149.783C98.7434 176.604 71.8482 207.9 55.5163 226.905C48.3956 235.191 43.283 241.14 43.283 243.363C43.283 248.039 48.0577 252.653 52.7712 253.33C57.546 233.396 92.0098 199.557 117.047 199.557H129.228C142.797 199.557 153.801 203.071 164.927 206.624L164.93 206.625C166.552 207.143 168.177 207.662 169.813 208.171C178.96 210.417 185.308 214.491 191.601 218.53C194.617 220.465 197.619 222.392 200.91 224.106C200.91 188.913 177.282 163.688 141.41 163.688H127.882C126.16 163.688 125.133 163.859 124.111 164.029C123.098 164.197 122.089 164.365 120.413 164.365Z"/>
<path d="M-307.99 82.5196C-308.314 83.5071 -308.64 84.5034 -308.64 86.1439V101.421C-308.64 123.35 -295.151 151.255 -285.689 165.238C-276.228 179.222 -249.249 191.172 -225.687 191.172H-208.169V195.792C-208.169 199.796 -211.526 204.416 -214.883 204.416L-216.226 203.738L-280.989 195.792C-293.136 193.821 -316.087 199.796 -322.802 203.738C-335.62 211.685 -340.991 216.366 -351.124 226.346C-359.608 235.294 -364.804 241.568 -372.124 250.408L-372.126 250.411L-372.127 250.412C-372.658 251.053 -373.201 251.708 -373.756 252.379C-374.082 252.771 -374.411 253.169 -374.746 253.573C-377.432 256.899 -396.354 280.122 -397.697 281.478C-397.026 263.552 -381.522 227.639 -372.732 217.044C-361.928 203.061 -340.381 182.486 -321.459 178.482C-321.459 178.482 -331.591 159.879 -333.606 156.553C-336.291 151.255 -341.052 135.978 -341.052 129.326C-341.052 110.722 -320.848 82.1399 -307.358 78.8135C-307.328 80.4994 -307.657 81.5049 -307.99 82.5196Z"/>
<path d="M152.988 321.46C169.123 295.885 177.83 285.376 212.17 277.539C210.718 274.529 209.488 271.883 208.389 269.518L208.389 269.516C201.839 255.422 199.933 251.32 183.249 239.511C173.142 232.282 144.89 227.058 127.416 227.058C91.0094 227.058 84.2656 247.665 76.15 272.463C75.1177 275.617 74.0633 278.839 72.9228 282.095C72.2807 283.928 73.9055 285.607 76.3885 288.172C81.7641 293.724 91.1623 303.432 90.2899 327.86C88.0704 341.546 84.6095 345.577 83.4278 346.954C83.2513 347.159 83.1257 347.305 83.0626 347.416C80.6561 351.627 74.844 357.541 71.6506 360.791L71.6499 360.792C70.3308 362.134 69.4583 363.021 69.4583 363.146C69.576 363.196 69.6852 363.242 69.7883 363.287C70.0658 363.406 70.2995 363.507 70.5389 363.592C71.8163 364.044 73.2539 364.044 82.3602 364.044H93.1371C116.639 364.044 143.551 335.857 152.988 321.46Z"/>
<path d="M-247.185 229.228C-249.04 231.77 -251.457 233.975 -254.031 236.324C-260.813 242.511 -268.684 249.691 -270.224 266.64C-271.302 278.49 -268.776 283.68 -266.234 288.901C-263.76 293.983 -261.272 299.096 -262.075 310.408C-263.703 333.344 -278.986 367.797 -318.937 367.797H-325.738C-349.451 367.797 -358.214 365.839 -373.839 357.212C-381.314 352.562 -398.9 336.104 -399.574 324.847C-388.054 322.216 -371.143 312.978 -363.667 305.697C-359.712 301.424 -355.503 293.759 -351.326 286.152C-348.385 280.796 -345.46 275.469 -342.65 271.374C-341.776 270.096 -340.905 268.809 -340.032 267.518L-340.006 267.481L-339.986 267.451L-339.966 267.422L-339.957 267.407C-325.966 246.735 -311.378 225.181 -277.638 225.181H-276.29C-268.457 225.202 -264.385 224.764 -261.81 224.487C-260.177 224.312 -259.147 224.201 -258.141 224.313C-256.42 224.505 -254.771 225.349 -250.302 227.638C-249.389 228.105 -248.358 228.633 -247.185 229.228Z"/>
<path d="M5.75586 520.406C27.8278 523.624 45.1746 526.154 61.0196 549.818C70.5352 543.181 82.6906 523.082 82.6906 507.76V497.028C82.6906 468.926 60.7068 424.076 32.8967 424.076H25.6694C24.6276 424.076 23.729 424.065 22.9054 424.055C19.0235 424.008 16.8049 423.981 9.08913 425.215C4.58528 425.936 -5.34056 436.434 -15.7989 447.495C-27.0588 459.404 -38.9362 471.966 -45.3282 473.681C-57.657 476.989 -76.363 476.657 -76.363 476.657H-77.2133C-77.2133 476.657 -80.1183 475.564 -71.9533 487.599C-62.524 502.133 -53.6032 505.036 -38.5719 509.927C-36.2813 510.673 -33.8489 511.464 -31.2511 512.35C-17.4692 517.02 -5.2674 518.799 5.75586 520.406Z"/>
<path d="M179.955 340.214C190.245 327.414 201.15 313.849 204.664 311.501C204 326.058 187.341 367.149 179.313 375.133C178.628 375.851 177.927 376.587 177.212 377.339C164.687 390.501 147.567 408.492 128.611 412.908C129.584 417.024 132.078 421.765 134.849 427.033C139.645 436.152 145.27 446.848 145.27 458.605V468.556C145.27 483.113 122.575 507.006 111.892 512.288L113.22 496.38V491.098C113.22 468.556 101.208 436.125 91.1885 424.209C77.8491 409.652 72.0091 404.384 45.6507 398.857L35.8726 396.731C35.8726 391.449 40.9742 388.229 45.6507 387.378L82.2123 394.181H102.619C128.967 394.071 143.368 380.007 157.062 366.634L157.066 366.631C158.711 365.024 160.346 363.428 161.99 361.866C165.843 357.768 172.749 349.178 179.955 340.214Z"/>
<path d="M-112.266 463.558C-108.881 470.177 -105.496 482.742 -105.496 491.996H-105.558V500.516C-105.558 521.66 -119.835 540.17 -130.728 550.773C-138.852 558.679 -162.669 580.498 -176.269 580.498C-172.885 585.156 -147.714 591.102 -136.821 591.102C-119.716 591.102 -112.183 584.309 -103.104 576.122C-102.776 575.826 -102.445 575.527 -102.111 575.227C-96.6341 569.282 -83.0333 553.408 -81.0024 545.502C-80.2251 545.76 -76.851 547.76 -72.6024 550.279L-72.597 550.282C-65.7463 554.343 -56.6243 559.75 -52.4469 561.376C-45.6158 564.686 -26.5993 571.305 -16.3833 571.305H-1.42863C6.0795 571.305 46.8818 562.724 48.9127 559.415C17.6494 556.779 -45.6158 544.889 -62.6014 529.689C-73.4943 520.435 -85.7412 501.925 -91.1569 488.013C-93.9111 481.645 -96.9337 474.944 -99.9896 468.17L-99.992 468.165L-101.182 465.526C-101.554 464.702 -101.925 463.877 -102.296 463.052C-105.165 456.676 -113 448.499 -117.965 443.317C-119.192 442.036 -120.244 440.938 -121.002 440.095C-124.072 440.095 -123.985 440.331 -123.856 440.676C-123.812 440.794 -123.763 440.926 -123.836 441.065C-123.361 442.484 -118.855 451.025 -115.508 457.371C-114.085 460.068 -112.872 462.37 -112.266 463.558Z"/>
<path d="M-390.113 368.099C-386.165 370.023 -383.033 372.127 -379.923 374.217C-374.534 377.838 -369.21 381.415 -359.818 383.935C-350.37 387.236 -332.877 392.495 -321.417 392.495H-317.394C-295.146 392.495 -282.276 385.141 -270.146 374.624C-262.039 367.348 -247.745 351.022 -245.063 338.488C-244.911 338.539 -244.756 338.59 -244.599 338.642C-244.432 338.697 -244.262 338.752 -244.09 338.809L-244.032 338.828C-240.066 340.128 -234.859 341.835 -234.859 344.865V345.498L-316.485 427.766L-317.394 428.08H-330.134C-346.957 428.08 -366.523 420.804 -373.228 411.571C-380.726 401.727 -390.113 383.935 -390.113 368.099Z"/>
<path d="M-156.502 459.046C-149.625 466.72 -144.367 474.521 -144.367 480.841V492.068C-144.367 506.137 -154.878 521.045 -162.995 532.557C-165.179 535.653 -167.188 538.504 -168.774 541.026C-177.605 553.603 -197.903 564.83 -218.937 564.83H-233.839L-230.466 540.351V533.684L-156.502 459.046Z"/>
</mask>
<path d="M-28.4692 2.21986C-32.706 1.52025 -36.3398 0.920239 -37.9899 0H-49.5678C-51.3146 1.13653 -53.6984 1.65967 -56.4015 2.25286C-59.9879 3.03993 -64.1365 3.95034 -68.1047 6.58056C-72.5577 9.30933 -75.6802 12.4533 -79.2828 16.0807C-80.0647 16.868 -80.8693 17.6781 -81.7149 18.5117C-85.7795 22.4477 -100.067 41.0209 -100.067 48.3395C-102.151 47.7448 -106.472 45.1066 -111.472 42.0541L-111.473 42.0535C-117.847 38.1613 -125.325 33.5955 -130.675 31.7343C-131.476 31.4739 -132.307 31.2015 -133.164 30.9204L-133.166 30.9197C-143.238 27.6158 -156.931 23.1242 -169.473 23.1242H-173.538C-183.761 23.1242 -227.301 33.0873 -230.688 37.0849C-230.011 37.7614 -173.476 45.0184 -167.379 45.6949C-146.933 49.016 -129.936 55.658 -116.325 65.6211C-105.425 73.6162 -93.8471 94.1574 -87.7502 107.442C-83.6856 114.76 -79.5595 123.37 -76.8498 131.98C-75.4949 137.946 -71.4303 153.874 -63.917 153.874C-59.7908 153.874 -56.4037 151.845 -54.3714 149.877L-54.5449 149.61C-63.9879 135.099 -74.7559 118.551 -74.7559 94.8339V92.8659C-74.7559 58.3641 -33.9253 15.9287 -7.38235 9.96309C-10.4742 5.19123 -20.5304 3.53073 -28.4692 2.21986Z" stroke="#242424" stroke-width="10" mask="url(#path-4-inside-2_107_6847)"/>
<path d="M-119.126 94.2252C-131.981 79.0232 -151.571 70.4415 -179.303 70.4415H-190.812C-200.774 70.4415 -208.444 70.632 -214.569 70.7841C-226.167 71.0721 -232.229 71.2227 -237.825 69.6828C-243.952 67.9967 -249.522 64.2839 -261.191 56.5058L-261.194 56.5039L-261.223 56.4842L-261.263 56.4578C-263.071 55.2525 -265.025 53.9498 -267.151 52.5424C-271.864 55.8525 -281.353 78.3489 -281.353 86.9307V94.8382C-281.353 119.97 -248.908 168.886 -221.176 168.886H-215.115C-197.848 168.886 -184.807 160.797 -176.355 155.555L-176.353 155.554L-176.352 155.553L-176.35 155.552L-176.349 155.551L-176.345 155.549L-176.342 155.547C-174.552 154.437 -172.968 153.454 -171.593 152.704C-168.184 150.843 -164.533 146.839 -160.279 142.173C-154.723 136.077 -148.136 128.851 -139.708 123.795C-124.828 114.867 -106.973 115.717 -106.973 115.717C-106.973 115.717 -108.963 106.791 -119.126 94.2252Z" stroke="#242424" stroke-width="10" mask="url(#path-4-inside-2_107_6847)"/>
<path d="M49.0073 48.0067C47.4135 53.9207 45.7261 60.182 45.7261 67.1973V67.8742C45.7261 75.8422 50.8141 87.8912 56.4627 101.268C63.5103 117.958 71.4308 136.714 71.4308 152.19C71.4308 171.454 60.5981 189.363 51.1118 198.657C42.972 206.596 22.0411 222.536 9.1888 225.182C9.1888 180.79 -10.1003 159.833 -25.6433 142.945C-36.1311 131.55 -44.9134 122.009 -44.9134 108.371V95.7539C-44.9134 84.4913 -25.3289 61.2274 -18.5355 54.5806C-8.37605 44.6104 5.82271 30.7013 26.0804 30.7013L35.5667 30.0243L51.7851 32.6707C51.7851 37.6992 50.4336 42.714 49.0073 48.0067Z" stroke="#242424" stroke-width="10" mask="url(#path-4-inside-2_107_6847)"/>
<path d="M120.413 164.365L121.76 152.429V136.494C121.76 117.913 110.925 94.6566 102.845 83.3975C96.7233 75.4607 74.4412 50.9122 66.973 46.9131C66.973 48.9434 82.5215 85.4278 85.215 91.3958C88.5818 99.3325 98.7434 130.526 98.7434 139.816V149.783C98.7434 176.604 71.8482 207.9 55.5163 226.905C48.3956 235.191 43.283 241.14 43.283 243.363C43.283 248.039 48.0577 252.653 52.7712 253.33C57.546 233.396 92.0098 199.557 117.047 199.557H129.228C142.797 199.557 153.801 203.071 164.927 206.624L164.93 206.625C166.552 207.143 168.177 207.662 169.813 208.171C178.96 210.417 185.308 214.491 191.601 218.53C194.617 220.465 197.619 222.392 200.91 224.106C200.91 188.913 177.282 163.688 141.41 163.688H127.882C126.16 163.688 125.133 163.859 124.111 164.029C123.098 164.197 122.089 164.365 120.413 164.365Z" stroke="#242424" stroke-width="10" mask="url(#path-4-inside-2_107_6847)"/>
<path d="M-307.99 82.5196C-308.314 83.5071 -308.64 84.5034 -308.64 86.1439V101.421C-308.64 123.35 -295.151 151.255 -285.689 165.238C-276.228 179.222 -249.249 191.172 -225.687 191.172H-208.169V195.792C-208.169 199.796 -211.526 204.416 -214.883 204.416L-216.226 203.738L-280.989 195.792C-293.136 193.821 -316.087 199.796 -322.802 203.738C-335.62 211.685 -340.991 216.366 -351.124 226.346C-359.608 235.294 -364.804 241.568 -372.124 250.408L-372.126 250.411L-372.127 250.412C-372.658 251.053 -373.201 251.708 -373.756 252.379C-374.082 252.771 -374.411 253.169 -374.746 253.573C-377.432 256.899 -396.354 280.122 -397.697 281.478C-397.026 263.552 -381.522 227.639 -372.732 217.044C-361.928 203.061 -340.381 182.486 -321.459 178.482C-321.459 178.482 -331.591 159.879 -333.606 156.553C-336.291 151.255 -341.052 135.978 -341.052 129.326C-341.052 110.722 -320.848 82.1399 -307.358 78.8135C-307.328 80.4994 -307.657 81.5049 -307.99 82.5196Z" stroke="#242424" stroke-width="10" mask="url(#path-4-inside-2_107_6847)"/>
<path d="M152.988 321.46C169.123 295.885 177.83 285.376 212.17 277.539C210.718 274.529 209.488 271.883 208.389 269.518L208.389 269.516C201.839 255.422 199.933 251.32 183.249 239.511C173.142 232.282 144.89 227.058 127.416 227.058C91.0094 227.058 84.2656 247.665 76.15 272.463C75.1177 275.617 74.0633 278.839 72.9228 282.095C72.2807 283.928 73.9055 285.607 76.3885 288.172C81.7641 293.724 91.1623 303.432 90.2899 327.86C88.0704 341.546 84.6095 345.577 83.4278 346.954C83.2513 347.159 83.1257 347.305 83.0626 347.416C80.6561 351.627 74.844 357.541 71.6506 360.791L71.6499 360.792C70.3308 362.134 69.4583 363.021 69.4583 363.146C69.576 363.196 69.6852 363.242 69.7883 363.287C70.0658 363.406 70.2995 363.507 70.5389 363.592C71.8163 364.044 73.2539 364.044 82.3602 364.044H93.1371C116.639 364.044 143.551 335.857 152.988 321.46Z" stroke="#242424" stroke-width="10" mask="url(#path-4-inside-2_107_6847)"/>
<path d="M-247.185 229.228C-249.04 231.77 -251.457 233.975 -254.031 236.324C-260.813 242.511 -268.684 249.691 -270.224 266.64C-271.302 278.49 -268.776 283.68 -266.234 288.901C-263.76 293.983 -261.272 299.096 -262.075 310.408C-263.703 333.344 -278.986 367.797 -318.937 367.797H-325.738C-349.451 367.797 -358.214 365.839 -373.839 357.212C-381.314 352.562 -398.9 336.104 -399.574 324.847C-388.054 322.216 -371.143 312.978 -363.667 305.697C-359.712 301.424 -355.503 293.759 -351.326 286.152C-348.385 280.796 -345.46 275.469 -342.65 271.374C-341.776 270.096 -340.905 268.809 -340.032 267.518L-340.006 267.481L-339.986 267.451L-339.966 267.422L-339.957 267.407C-325.966 246.735 -311.378 225.181 -277.638 225.181H-276.29C-268.457 225.202 -264.385 224.764 -261.81 224.487C-260.177 224.312 -259.147 224.201 -258.141 224.313C-256.42 224.505 -254.771 225.349 -250.302 227.638C-249.389 228.105 -248.358 228.633 -247.185 229.228Z" stroke="#242424" stroke-width="10" mask="url(#path-4-inside-2_107_6847)"/>
<path d="M5.75586 520.406C27.8278 523.624 45.1746 526.154 61.0196 549.818C70.5352 543.181 82.6906 523.082 82.6906 507.76V497.028C82.6906 468.926 60.7068 424.076 32.8967 424.076H25.6694C24.6276 424.076 23.729 424.065 22.9054 424.055C19.0235 424.008 16.8049 423.981 9.08913 425.215C4.58528 425.936 -5.34056 436.434 -15.7989 447.495C-27.0588 459.404 -38.9362 471.966 -45.3282 473.681C-57.657 476.989 -76.363 476.657 -76.363 476.657H-77.2133C-77.2133 476.657 -80.1183 475.564 -71.9533 487.599C-62.524 502.133 -53.6032 505.036 -38.5719 509.927C-36.2813 510.673 -33.8489 511.464 -31.2511 512.35C-17.4692 517.02 -5.2674 518.799 5.75586 520.406Z" stroke="#242424" stroke-width="10" mask="url(#path-4-inside-2_107_6847)"/>
<path d="M179.955 340.214C190.245 327.414 201.15 313.849 204.664 311.501C204 326.058 187.341 367.149 179.313 375.133C178.628 375.851 177.927 376.587 177.212 377.339C164.687 390.501 147.567 408.492 128.611 412.908C129.584 417.024 132.078 421.765 134.849 427.033C139.645 436.152 145.27 446.848 145.27 458.605V468.556C145.27 483.113 122.575 507.006 111.892 512.288L113.22 496.38V491.098C113.22 468.556 101.208 436.125 91.1885 424.209C77.8491 409.652 72.0091 404.384 45.6507 398.857L35.8726 396.731C35.8726 391.449 40.9742 388.229 45.6507 387.378L82.2123 394.181H102.619C128.967 394.071 143.368 380.007 157.062 366.634L157.066 366.631C158.711 365.024 160.346 363.428 161.99 361.866C165.843 357.768 172.749 349.178 179.955 340.214Z" stroke="#242424" stroke-width="10" mask="url(#path-4-inside-2_107_6847)"/>
<path d="M-112.266 463.558C-108.881 470.177 -105.496 482.742 -105.496 491.996H-105.558V500.516C-105.558 521.66 -119.835 540.17 -130.728 550.773C-138.852 558.679 -162.669 580.498 -176.269 580.498C-172.885 585.156 -147.714 591.102 -136.821 591.102C-119.716 591.102 -112.183 584.309 -103.104 576.122C-102.776 575.826 -102.445 575.527 -102.111 575.227C-96.6341 569.282 -83.0333 553.408 -81.0024 545.502C-80.2251 545.76 -76.851 547.76 -72.6024 550.279L-72.597 550.282C-65.7463 554.343 -56.6243 559.75 -52.4469 561.376C-45.6158 564.686 -26.5993 571.305 -16.3833 571.305H-1.42863C6.0795 571.305 46.8818 562.724 48.9127 559.415C17.6494 556.779 -45.6158 544.889 -62.6014 529.689C-73.4943 520.435 -85.7412 501.925 -91.1569 488.013C-93.9111 481.645 -96.9337 474.944 -99.9896 468.17L-99.992 468.165L-101.182 465.526C-101.554 464.702 -101.925 463.877 -102.296 463.052C-105.165 456.676 -113 448.499 -117.965 443.317C-119.192 442.036 -120.244 440.938 -121.002 440.095C-124.072 440.095 -123.985 440.331 -123.856 440.676C-123.812 440.794 -123.763 440.926 -123.836 441.065C-123.361 442.484 -118.855 451.025 -115.508 457.371C-114.085 460.068 -112.872 462.37 -112.266 463.558Z" stroke="#242424" stroke-width="10" mask="url(#path-4-inside-2_107_6847)"/>
<path d="M-390.113 368.099C-386.165 370.023 -383.033 372.127 -379.923 374.217C-374.534 377.838 -369.21 381.415 -359.818 383.935C-350.37 387.236 -332.877 392.495 -321.417 392.495H-317.394C-295.146 392.495 -282.276 385.141 -270.146 374.624C-262.039 367.348 -247.745 351.022 -245.063 338.488C-244.911 338.539 -244.756 338.59 -244.599 338.642C-244.432 338.697 -244.262 338.752 -244.09 338.809L-244.032 338.828C-240.066 340.128 -234.859 341.835 -234.859 344.865V345.498L-316.485 427.766L-317.394 428.08H-330.134C-346.957 428.08 -366.523 420.804 -373.228 411.571C-380.726 401.727 -390.113 383.935 -390.113 368.099Z" stroke="#242424" stroke-width="10" mask="url(#path-4-inside-2_107_6847)"/>
<path d="M-156.502 459.046C-149.625 466.72 -144.367 474.521 -144.367 480.841V492.068C-144.367 506.137 -154.878 521.045 -162.995 532.557C-165.179 535.653 -167.188 538.504 -168.774 541.026C-177.605 553.603 -197.903 564.83 -218.937 564.83H-233.839L-230.466 540.351V533.684L-156.502 459.046Z" stroke="#242424" stroke-width="10" mask="url(#path-4-inside-2_107_6847)"/>
</g>
</g>
</svg>
