<svg width="624.216797" height="601.101562" viewBox="0 0 624.217 601.102"  fill="#f4f4f4" xmlns="http://www.w3.org/2000/svg" xmlns:xlink="http://www.w3.org/1999/xlink">
	<desc>
			Created with Pixso.
	</desc>
	<defs/>
	<path id="Flattened" d="M247.86 7.21C252.1 6.52 255.73 5.92 257.38 5L268.96 5C270.71 6.13 273.09 6.65 275.79 7.25C279.38 8.03 283.53 8.95 287.5 11.58C291.95 14.3 295.07 17.45 298.68 21.08C299.46 21.86 300.26 22.67 301.11 23.51C305.17 27.44 319.46 46.02 319.46 53.33C321.54 52.74 325.87 50.1 330.87 47.05L330.87 47.05C337.24 43.16 344.72 38.59 350.07 36.73C350.87 36.47 351.7 36.2 352.56 35.92L352.56 35.91C362.63 32.61 376.33 28.12 388.87 28.12L392.93 28.12C403.16 28.12 446.7 38.08 450.08 42.08C449.41 42.76 392.87 50.01 386.77 50.69C366.33 54.01 349.33 60.65 335.72 70.62C324.82 78.61 313.24 99.15 307.14 112.44C303.08 119.76 298.95 128.37 296.24 136.98C294.89 142.94 290.82 158.87 283.31 158.87C279.19 158.87 275.8 156.84 273.77 154.87L273.94 154.61C283.38 140.09 294.15 123.55 294.15 99.83L294.15 97.86C294.15 63.36 253.32 20.92 226.78 14.96C229.87 10.19 239.92 8.53 247.86 7.21ZM173.67 72.19C173.67 65.18 171.98 58.92 170.39 53C168.96 47.71 167.61 42.69 167.61 37.67L183.83 35.02L193.31 35.7C213.57 35.7 227.77 49.61 237.93 59.58C244.72 66.22 264.31 89.49 264.31 100.75L264.31 113.37C264.31 127 255.53 136.55 245.04 147.94C229.49 164.83 210.21 185.79 210.21 230.18C197.35 227.53 176.42 211.59 168.28 203.65C158.8 194.36 147.96 176.45 147.96 157.19C147.96 141.71 155.88 122.95 162.93 106.26C168.58 92.89 173.67 80.84 173.67 72.87L173.67 72.19ZM98.98 169.36L97.63 157.42L97.63 141.49C97.63 122.91 108.47 99.65 116.55 88.39C122.67 80.46 144.95 55.91 152.42 51.91C152.42 53.94 136.87 90.42 134.18 96.39C130.81 104.33 120.65 135.52 120.65 144.81L120.65 154.78C120.65 181.6 147.55 212.9 163.88 231.9C171 240.19 176.11 246.14 176.11 248.36C176.11 253.03 171.34 257.65 166.62 258.32C161.85 238.39 127.38 204.55 102.35 204.55L90.17 204.55C76.6 204.55 65.59 208.07 54.47 211.62L54.46 211.62C52.84 212.14 51.22 212.66 49.58 213.17C40.43 215.41 34.09 219.49 27.79 223.53C24.78 225.46 21.77 227.39 18.48 229.1C18.48 193.91 42.11 168.68 77.98 168.68L91.51 168.68C93.23 168.68 94.26 168.85 95.28 169.02C96.3 169.19 97.3 169.36 98.98 169.36ZM338.52 99.22C351.38 84.02 370.97 75.44 398.7 75.44L410.21 75.44C420.17 75.44 427.84 75.63 433.96 75.78C445.56 76.07 451.62 76.22 457.22 74.68C463.35 72.99 468.92 69.28 480.59 61.5L480.59 61.5L480.62 61.48L480.66 61.45C482.47 60.25 484.42 58.94 486.54 57.54C491.26 60.85 500.75 83.34 500.75 91.93L500.75 99.83C500.75 124.97 468.3 173.88 440.57 173.88L434.51 173.88C417.24 173.88 404.2 165.79 395.75 160.55L395.75 160.55L395.75 160.55L395.74 160.55L395.74 160.55L395.74 160.54L395.74 160.54C393.95 159.43 392.36 158.45 390.99 157.7C387.58 155.84 383.93 151.83 379.67 147.17C374.12 141.07 367.53 133.85 359.1 128.79C344.22 119.86 326.37 120.71 326.37 120.71C326.37 120.71 328.36 111.79 338.52 99.22ZM528.03 91.14C528.03 89.5 527.71 88.5 527.38 87.51C527.07 86.54 526.75 85.58 526.75 84.03C526.75 83.96 526.75 83.88 526.75 83.81C540.24 87.13 560.45 115.72 560.45 134.32C560.45 140.97 555.69 156.25 553 161.55C550.99 164.87 540.85 183.48 540.85 183.48C559.78 187.48 581.32 208.06 592.13 222.04C600.92 232.63 616.42 268.55 617.09 286.47C615.75 285.12 596.83 261.89 594.14 258.57C593.81 258.16 593.48 257.77 593.15 257.37C592.59 256.7 592.05 256.05 591.52 255.41L591.52 255.41L591.52 255.4C584.2 246.56 579 240.29 570.52 231.34C560.39 221.36 555.01 216.68 542.2 208.73C535.48 204.79 512.53 198.82 500.38 200.79L435.62 208.73L434.28 209.41C430.92 209.41 427.56 204.79 427.56 200.79L427.56 196.17L445.08 196.17C468.64 196.17 495.62 184.22 505.08 170.23C514.54 156.25 528.03 128.35 528.03 106.42L528.03 91.14ZM473.43 241.32C470.85 238.97 468.43 236.77 466.58 234.22C467.75 233.63 468.78 233.1 469.7 232.63C474.17 230.34 475.81 229.5 477.54 229.31C478.54 229.2 479.57 229.31 481.2 229.48C483.78 229.76 487.85 230.2 495.68 230.18L497.03 230.18C530.77 230.18 545.36 251.73 559.35 272.4L559.36 272.42L559.38 272.45L559.4 272.48L559.43 272.51C560.3 273.8 561.17 275.09 562.04 276.37C564.85 280.46 567.78 285.79 570.72 291.15C574.9 298.75 579.11 306.42 583.06 310.69C590.54 317.97 607.45 327.21 618.97 329.84C618.29 341.1 600.71 357.56 593.23 362.21C577.61 370.83 568.85 372.79 545.13 372.79L538.33 372.79C498.38 372.79 483.1 338.34 481.47 315.4C481.36 313.93 481.32 312.56 481.32 311.28C481.32 302.76 483.48 298.32 485.63 293.9C487.76 289.52 489.87 285.17 489.87 276.92C489.87 275.31 489.79 273.56 489.62 271.64C488.08 254.69 480.21 247.51 473.43 241.32ZM66.41 326.46C50.27 300.88 41.56 290.37 7.22 282.53C8.68 279.52 9.91 276.88 11 274.51L11.01 274.51C17.55 260.42 19.46 256.32 36.14 244.51C46.25 237.28 74.5 232.05 91.98 232.05C128.39 232.05 135.13 252.66 143.24 277.46C144.28 280.61 145.33 283.83 146.47 287.09C146.57 287.36 146.61 287.63 146.61 287.9C146.61 289.44 145.12 290.98 143 293.17C137.87 298.48 129.05 307.58 129.05 329.73C129.05 330.74 129.07 331.78 129.1 332.86C131.32 346.54 134.78 350.57 135.97 351.95C136.14 352.15 136.27 352.3 136.33 352.41C138.74 356.62 144.55 362.54 147.74 365.79L147.74 365.79C149.06 367.13 149.94 368.02 149.94 368.14C149.82 368.19 149.71 368.24 149.61 368.28C149.33 368.4 149.1 368.5 148.86 368.59C147.58 369.04 146.14 369.04 137.03 369.04L126.26 369.04C102.76 369.04 75.84 340.85 66.41 326.46ZM14.73 316.5C18.24 318.84 29.15 332.41 39.44 345.21C46.65 354.17 53.55 362.76 57.4 366.86C59.05 368.42 60.68 370.02 62.33 371.63L62.33 371.63C76.03 385 90.43 399.07 116.78 399.18L137.18 399.18L173.74 392.37C178.42 393.22 183.52 396.44 183.52 401.73L173.74 403.85C147.39 409.38 141.55 414.65 128.21 429.2C118.19 441.12 106.17 473.55 106.17 496.09L106.17 501.38L107.5 517.28C96.82 512 74.12 488.11 74.12 473.55L74.12 463.6C74.12 451.84 79.75 441.15 84.55 432.03C87.32 426.76 89.81 422.02 90.78 417.9C71.83 413.49 54.71 395.5 42.18 382.33C41.47 381.58 40.77 380.85 40.08 380.13C32.05 372.14 15.39 331.05 14.73 316.5ZM599.32 379.21C602.43 377.12 605.56 375.02 609.51 373.09C609.51 388.93 600.12 406.72 592.62 416.57C585.92 425.8 566.35 433.08 549.53 433.08L536.79 433.08L535.88 432.76L454.25 350.49L454.25 349.86C454.25 346.83 459.46 345.12 463.43 343.82L463.48 343.8C463.66 343.75 463.83 343.69 463.99 343.64C464.15 343.59 464.31 343.53 464.46 343.48C467.14 356.02 481.43 372.34 489.54 379.62C501.67 390.14 514.54 397.49 536.79 397.49L540.81 397.49C552.27 397.49 569.77 392.23 579.21 388.93C588.6 386.41 593.93 382.83 599.32 379.21ZM213.64 525.4C191.57 528.62 174.22 531.15 158.37 554.81C148.86 548.18 136.7 528.08 136.7 512.76L136.7 502.02C136.7 473.92 158.69 429.07 186.5 429.07L193.72 429.07C194.77 429.07 195.67 429.06 196.49 429.05C200.37 429 202.59 428.98 210.31 430.21C214.81 430.93 224.73 441.43 235.19 452.49C246.45 464.4 258.33 476.96 264.72 478.68C277.05 481.98 295.76 481.65 295.76 481.65L296.61 481.65C296.61 481.65 297.11 481.46 297.11 482.11C297.11 483.01 296.12 485.56 291.35 492.59C281.92 507.13 273 510.03 257.97 514.92C255.68 515.67 253.24 516.46 250.65 517.34C236.86 522.02 224.66 523.79 213.64 525.4ZM331.66 468.55C328.28 475.17 324.89 487.74 324.89 496.99L324.95 496.99L324.95 505.51C324.95 526.65 339.23 545.17 350.12 555.77C358.25 563.67 382.06 585.49 395.66 585.49C392.28 590.15 367.11 596.1 356.22 596.1C339.11 596.1 331.58 589.3 322.5 581.12C322.17 580.82 321.84 580.52 321.51 580.22C316.03 574.28 302.43 558.4 300.4 550.5C299.62 550.76 296.25 552.76 292 555.27L291.99 555.28C285.14 559.34 276.02 564.75 271.84 566.37C265.01 569.68 245.99 576.3 235.78 576.3L220.82 576.3C213.31 576.3 172.51 567.72 170.48 564.41C201.75 561.77 265.01 549.88 282 534.68C292.89 525.43 305.14 506.92 310.55 493.01C313.31 486.64 316.33 479.94 319.38 473.17L319.39 473.16L320.58 470.52C320.95 469.7 321.32 468.87 321.69 468.05C324.56 461.67 332.39 453.49 337.36 448.31C338.59 447.03 339.64 445.93 340.4 445.09C342.88 445.09 343.3 445.25 343.3 445.49C343.3 445.54 343.28 445.61 343.25 445.67C343.22 445.75 343.19 445.83 343.19 445.91C343.19 445.96 343.2 446.01 343.23 446.06C342.75 447.48 338.25 456.02 334.9 462.37C333.48 465.06 332.27 467.37 331.66 468.55ZM363.76 485.84C363.76 479.52 369.02 471.72 375.9 464.04L449.86 538.68L449.86 545.35L453.23 569.83L438.33 569.83C417.3 569.83 397 558.6 388.17 546.02C386.58 543.5 384.57 540.65 382.39 537.55C374.27 526.04 363.76 511.13 363.76 497.06L363.76 485.84Z" fill="#BF261D" fill-opacity="0" fill-rule="evenodd"/>
	<path id="Flattened" d="M248.68 12.15L248.68 12.15Q232.86 14.76 230.97 17.68L226.78 14.96L227.87 10.08Q238.72 12.52 251.39 21.5Q263.57 30.12 274.2 42.44Q299.15 71.34 299.15 97.86L299.15 99.83Q299.15 116.59 292.17 132.66Q288.13 141.96 278.13 157.33L277.96 157.6L273.77 154.87L277.24 151.28Q279.92 153.87 283.31 153.87Q284.94 153.87 287.53 148.11Q289.67 143.34 291.37 135.87L291.41 135.67L291.47 135.47Q295.19 123.66 302.77 110.01L307.14 112.44L302.6 110.35Q308.34 97.84 315.43 86.84Q324.62 72.56 332.76 66.58Q354.16 50.92 385.97 45.75L386.1 45.73L386.22 45.72Q393.4 44.92 419.8 41.43Q432.51 39.75 440.05 38.67Q444.33 38.05 446.61 37.68Q447.77 37.49 448.35 37.38Q448.54 37.34 448.58 37.33Q447.47 37.62 446.55 38.54L450.08 42.08L446.27 45.31Q444.89 43.69 422.91 38.47Q400.42 33.12 392.93 33.12L388.87 33.12Q377.12 33.12 354.12 40.67L354.12 40.67L351.62 41.48Q346.87 43.14 333.47 51.32L333.47 51.32L333.45 51.33Q323.57 57.36 320.83 58.14L314.46 59.96L314.46 53.33Q314.46 50.03 307.66 39.95Q301.57 30.92 297.63 27.1Q296.73 26.21 295.13 24.6L295.13 24.6Q288.83 18.25 284.89 15.84L284.81 15.79L284.74 15.74Q281.55 13.63 274.72 12.13L274.72 12.13L274.72 12.13Q268.75 10.82 266.24 9.19L268.96 5L268.96 10L257.38 10L257.38 5L259.82 9.36Q257.41 10.71 248.68 12.15L248.68 12.15ZM247.05 2.28L247.05 2.28Q254.06 1.12 254.95 0.63L256.08 0L270.45 0L271.69 0.8Q272.67 1.44 276.87 2.36L276.87 2.36L276.87 2.36Q285.51 4.26 290.26 7.41L287.5 11.58L290.11 7.31Q295.08 10.35 302.22 17.55L302.22 17.55Q303.79 19.13 304.59 19.91Q309.28 24.46 315.95 34.36Q324.46 46.97 324.46 53.33L319.46 53.33L318.09 48.53Q319.52 48.12 328.28 42.77L328.26 42.78L328.26 42.78Q342.57 34.04 348.52 31.98L351 31.16L351 31.16Q375.53 23.12 388.87 23.12L392.93 23.12Q401.59 23.12 425.23 28.74Q450.4 34.72 453.9 38.85L456.88 42.36L453.62 45.62Q451.97 47.26 421.12 51.34Q394.61 54.85 387.33 55.66L386.77 50.69L387.58 55.63Q358.13 60.41 338.68 74.65Q332.03 79.52 323.83 92.25Q317.14 102.65 311.69 114.52L311.61 114.7L311.51 114.86Q304.43 127.63 301.01 138.48L296.24 136.98L301.12 138.08Q295.26 163.87 283.31 163.87Q275.87 163.87 270.29 158.46L267.33 155.6L269.75 151.88Q279.29 137.21 283 128.68Q289.15 114.52 289.15 99.83L289.15 97.86Q289.15 75.06 266.63 48.98Q256.79 37.58 245.61 29.66Q234.57 21.83 225.68 19.84L218.68 18.26L222.58 12.24Q225.62 7.55 234.06 5Q238.26 3.73 247.05 2.28L247.05 2.28ZM342.41 102.36Q336.44 109.74 333.17 116.79Q331.63 120.1 331.25 121.8L326.37 120.71L326.13 115.72Q331.07 115.48 337.86 116.45Q351.51 118.4 361.68 124.5Q370.73 129.94 383.37 143.8Q390.71 151.85 393.38 153.31Q394.88 154.13 398.37 156.29L398.42 156.32L398.39 156.3L398.44 156.34L398.37 156.29L398.42 156.32L398.43 156.33Q407.64 162.04 413.73 164.56Q424.18 168.88 434.51 168.88L440.57 168.88Q448.86 168.88 458.76 161.78Q468.25 154.97 477.06 143.27Q485.49 132.09 490.65 120.04Q495.75 108.12 495.75 99.83L495.75 91.93Q495.75 86.56 490.8 74.68Q486.06 63.31 483.67 61.63L486.54 57.54L489.31 61.7L483.43 65.62L483.39 65.64L483.37 65.66L483.39 65.64L483.36 65.66Q465.45 77.6 458.55 79.5Q452.24 81.23 433.84 80.78Q420.11 80.44 410.21 80.44L398.7 80.44Q360.95 80.44 342.34 102.45L342.41 102.36ZM334.7 95.99Q356.31 70.44 398.7 70.44L410.21 70.44Q420.23 70.44 434.09 70.78Q451.01 71.2 455.89 69.86Q461.24 68.38 477.81 57.34L477.78 57.36L477.81 57.34L477.85 57.32L477.89 57.29L486.62 51.48L489.42 53.45Q494.18 56.79 500.03 70.83Q505.75 84.56 505.75 91.93L505.75 99.83Q505.75 110.17 499.84 123.97Q494.21 137.13 485.05 149.29Q475.32 162.21 464.59 169.91Q452.08 178.88 440.57 178.88L434.51 178.88Q422.2 178.88 409.91 173.8Q403.06 170.97 393.07 164.77L393.08 164.78L393.13 164.81L393.04 164.76L393.1 164.79L393.06 164.77L393.1 164.79Q389.85 162.77 388.59 162.09Q384.45 159.83 375.98 150.54Q364.33 137.76 356.53 133.08Q348.1 128.02 336.45 126.35Q330.59 125.52 326.6 125.71L320.06 126.02L321.49 119.62Q323.73 109.55 334.63 96.08L334.7 95.99ZM165.56 54.3Q162.61 43.36 162.61 37.67L162.61 33.42L183.6 29.99L193.67 30.71L193.31 35.7L193.31 30.7Q208.11 30.7 222.11 39.69Q229.91 44.7 241.43 56.01Q249.31 63.72 257.74 75.53Q269.31 91.75 269.31 100.75L269.31 113.37Q269.31 123.98 262.82 134.18Q259.08 140.07 248.72 151.33L248.72 151.33L248.72 151.33Q232.68 168.75 226.22 181.07Q215.21 202.07 215.21 230.18L215.21 236.31L209.2 235.07Q199.55 233.09 184.68 223.04Q172.72 214.96 164.79 207.23Q156.02 198.64 150.06 186.34Q142.96 171.66 142.96 157.19Q142.96 146.12 148.05 130.62Q150.98 121.71 158.33 104.32L158.33 104.32Q168.67 79.82 168.67 72.87L168.67 72.19Q168.67 65.84 165.56 54.3ZM175.21 51.7Q178.67 64.51 178.67 72.19L178.67 72.87Q178.67 79.05 175.14 89.18Q173.11 95.01 167.54 108.21L167.54 108.21Q160.35 125.23 157.56 133.74Q152.96 147.72 152.96 157.19Q152.96 169.37 159.07 181.98Q164.26 192.71 171.77 200.07Q179.06 207.18 190.28 214.76Q203.5 223.69 211.21 225.28L210.21 230.18L205.21 230.18Q205.21 199.61 217.37 176.42Q224.43 162.94 241.36 144.55L241.36 144.55L241.36 144.55Q251.12 133.95 254.39 128.81Q259.31 121.07 259.31 113.37L259.31 100.75Q259.31 94.95 249.6 81.33Q241.69 70.25 234.43 63.14Q223.64 52.56 216.71 48.1Q205.18 40.7 193.31 40.7L193.14 40.7L183.47 40.01L183.83 35.02L184.63 39.95L168.41 42.6L167.61 37.67L172.61 37.67Q172.61 42.03 175.21 51.7ZM98.98 174.36Q96.89 174.36 94.46 173.96L94.46 173.96L94.46 173.96Q92.82 173.68 91.51 173.68L77.98 173.68Q53.41 173.68 38.37 189.18Q23.48 204.51 23.48 229.1L18.48 229.1L16.17 224.67Q19.27 223.06 25.09 219.32L25.09 219.32Q38.43 210.76 48.39 208.31L49.58 213.17L48.07 208.4L52.96 206.85L52.93 206.86Q64.25 203.25 70.3 201.88Q80.56 199.55 90.17 199.55L102.35 199.55Q122.11 199.55 145.4 220.22Q155.18 228.9 162.15 238.6Q169.49 248.81 171.49 257.16L166.62 258.32L165.91 253.38Q167.85 253.1 169.56 251.35Q171.11 249.76 171.11 248.36Q171.11 247.99 160.09 235.16L160.09 235.16Q140.89 212.82 131.94 198.99Q115.65 173.8 115.65 154.78L115.65 144.81Q115.65 137.85 121.36 118.67Q126.21 102.39 129.58 94.44L129.6 94.39L129.62 94.33Q132.68 87.55 139.7 70.75Q147.42 52.24 147.42 51.91L152.42 51.91L154.78 56.32Q150.45 58.63 137.6 72.12Q126.12 84.17 120.51 91.45L116.55 88.39L120.61 91.31Q113.95 100.59 108.72 114.01Q102.63 129.63 102.63 141.49L102.63 157.42L97.63 157.42L102.6 156.86L104.58 174.36L98.98 174.36ZM98.98 164.36L98.98 169.36L94.01 169.92L92.63 157.71L92.63 141.49Q92.63 127.75 99.4 110.38Q105.09 95.79 112.49 85.48L112.54 85.41L112.59 85.34Q118.52 77.65 130.36 65.22Q144.32 50.58 150.06 47.5L157.42 43.56L157.42 51.91Q157.42 54.24 148.92 74.6Q141.86 91.54 138.74 98.45L134.18 96.39L138.78 98.34Q135.63 105.78 130.95 121.52Q125.65 139.31 125.65 144.81L125.65 154.78Q125.65 170.85 140.34 193.56Q148.92 206.82 167.67 228.64L167.67 228.64Q174.37 236.44 176.62 239.34Q181.11 245.15 181.11 248.36Q181.11 253.84 176.71 258.34Q172.62 262.51 167.33 263.27L162.82 263.92L161.76 259.49Q160.22 253.05 154.03 244.43Q147.71 235.64 138.77 227.7Q118.31 209.55 102.35 209.55L90.17 209.55Q77.38 209.55 56 216.38L55.97 216.39L50.93 217.98L50.77 218.02Q42.43 220.07 30.49 227.73L30.49 227.73Q24.29 231.72 20.79 233.54L13.48 237.34L13.48 229.1Q13.48 200.46 31.19 182.21Q49.18 163.68 77.98 163.68L91.51 163.68Q93.65 163.68 96.1 164.09L96.1 164.09L96.1 164.09Q97.72 164.36 98.98 164.36ZM522.63 89.07Q521.71 86.25 521.75 83.72L521.87 77.45L527.95 78.95Q540.14 81.96 552.79 100.52Q565.45 119.09 565.45 134.32Q565.45 139.69 562.54 149.82Q559.9 158.99 557.46 163.81L557.37 163.98L557.28 164.14Q555.32 167.37 545.24 185.87L540.85 183.48L541.89 178.59Q555.98 181.57 572.69 195.14Q586.03 205.97 596.08 218.98L592.13 222.04L595.97 218.85Q603.56 227.99 612.29 249.64Q621.58 272.67 622.09 286.29L622.57 299.1L613.54 289.99Q611.09 287.52 590.25 261.71L589.3 260.57L587.56 258.46L587.46 258.32L591.52 255.41L587.73 258.67L587.73 258.67Q575.26 243.61 566.89 234.78L570.52 231.34L567.01 234.9Q553.57 221.67 539.56 212.98L542.2 208.73L539.66 213.05Q534.62 210.09 522.28 207.43Q508.67 204.51 501.18 205.72L501.09 205.74L436.23 213.7L435.62 208.73L437.87 213.2L435.47 214.41L434.28 214.41Q429.32 214.41 425.68 209.63Q422.56 205.53 422.56 200.79L422.56 191.17L445.08 191.17Q461.6 191.17 478.37 183.86Q494.61 176.79 500.94 167.43Q509.19 155.24 515.46 139.46Q523.03 120.39 523.03 106.42L523.03 91.14Q523.03 90.3 522.63 89.07L522.63 89.07L522.63 89.07ZM532.14 85.96L532.14 85.96Q533.03 88.7 533.03 91.14L533.03 106.42Q533.03 122.31 524.75 143.15Q518.08 159.95 509.22 173.04Q501.27 184.8 482.37 193.03Q463.68 201.17 445.08 201.17L427.56 201.17L427.56 196.17L432.56 196.17L432.56 200.79Q432.56 202.16 433.64 203.57Q434.07 204.14 434.48 204.4L434.28 204.41L434.28 209.41L432.03 204.95L434.15 203.88L499.77 195.82L500.38 200.79L499.58 195.85Q508.93 194.33 524.38 197.65Q538.3 200.65 544.73 204.42L544.78 204.45L544.83 204.48Q559.79 213.76 574.03 227.78L574.09 227.84L574.15 227.9Q582.75 236.97 595.31 252.14L595.46 252.31L595.59 252.5L591.52 255.41L595.37 252.22L597 254.18L598.03 255.43Q618.55 280.84 620.64 282.95L617.09 286.47L612.09 286.66Q611.65 274.79 603.02 253.38Q594.87 233.18 588.28 225.23L588.22 225.16L588.17 225.1Q578.83 213 566.38 202.9Q551.55 190.85 539.82 188.37L533.25 186.98L536.46 181.09Q546.65 162.38 548.72 158.96L553 161.55L548.54 159.29Q550.56 155.31 552.92 147.06Q555.45 138.28 555.45 134.32Q555.45 122.18 544.53 106.15Q534.03 90.75 525.56 88.66L526.75 83.81L531.75 83.9Q531.74 84.74 532.14 85.96L532.14 85.96ZM70.59 323.71Q79.44 337.22 94.22 349.27Q112.32 364.04 126.26 364.04L137.03 364.04Q146.72 364.04 147.19 363.87Q147.27 363.84 147.63 363.69L147.97 363.54L149.94 368.14L144.94 368.14Q144.94 369.92 145.95 371.13Q145.9 371.07 145.7 370.86Q145.35 370.49 144.18 369.29L144.18 369.29L144.25 369.36Q134.72 359.67 131.99 354.89Q132.14 355.16 132.3 355.35Q132.29 355.34 132.17 355.21L132.17 355.21Q126.61 348.73 124.17 333.66L124.12 333.35L124.11 333.03Q123.5 315.87 129.19 303.8Q132.46 296.88 139.41 289.69L139.41 289.69L139.41 289.69Q141.35 287.69 141.73 287.11Q141.37 287.66 141.75 288.74Q140.6 285.44 138.49 279.02L138.49 279.01L138.49 279.01Q134.59 267.09 132.34 261.89Q128.8 253.69 124.46 248.76Q114.18 237.05 91.98 237.05Q78.54 237.05 62.33 240.46Q45.43 244.02 39.05 248.57Q27.87 256.49 23.69 261.76Q20.68 265.56 15.54 276.62L15.54 276.62L15.52 276.66Q13.2 281.66 11.73 284.71L7.22 282.53L8.34 277.66Q33.67 283.44 46.77 293.94Q56.96 302.11 70.63 323.79L70.59 323.71ZM62.18 329.12Q49.4 308.87 40.51 301.74Q29.21 292.68 6.11 287.41L0 286.01L2.72 280.36Q4.16 277.38 6.49 272.37L6.47 272.4L6.47 272.4Q12.11 260.27 15.86 255.55Q20.93 249.15 33.24 240.44Q41.32 234.66 60.27 230.68Q77.5 227.05 91.98 227.05Q118.7 227.05 131.98 242.16Q137.35 248.27 141.52 257.92Q143.95 263.55 148 275.9L148 275.9L148 275.91Q150.07 282.23 151.19 285.44Q152.44 289.01 150.09 292.6Q149.2 293.96 146.6 296.64L146.6 296.64L146.6 296.64Q140.79 302.64 138.23 308.07Q133.58 317.94 134.1 332.68L129.1 332.86L134.04 332.05Q136.03 344.35 139.76 348.69L139.76 348.69Q140.37 349.41 140.67 349.93Q142.76 353.58 151.24 362.21L151.31 362.28L151.31 362.28Q154.94 365.97 154.94 368.14L154.94 371.44L151.58 372.87Q150.92 373.16 150.52 373.3Q148.44 374.04 137.03 374.04L126.26 374.04Q108.76 374.04 87.9 357.02Q71.92 343.99 62.22 329.2L62.18 329.12ZM464.31 229.77L467.42 228.18Q474.35 224.63 476.98 224.34Q478.53 224.17 481.74 224.51L481.74 224.51Q488.11 225.2 495.67 225.18L497.03 225.18Q521.29 225.18 538.79 239.69Q548.95 248.12 563.49 269.6L563.51 269.62L563.52 269.65L563.54 269.68L563.56 269.71L566.18 273.56Q569.12 277.84 575.1 288.74L575.1 288.74L575.1 288.74Q583.19 303.47 586.73 307.29L583.06 310.69L586.55 307.11Q591.74 312.16 601.87 317.61Q612.22 323.17 620.08 324.97L624.21 325.91L623.96 330.14Q623.4 339.41 612.39 351.82Q603.76 361.55 595.87 366.45L595.76 366.52L595.65 366.58Q583.28 373.42 573.29 375.62Q563.43 377.79 545.13 377.79L538.33 377.79Q508.88 377.79 491.6 355.79Q478.1 338.61 476.48 315.76Q475.89 307.42 477.47 301.1Q478.43 297.27 481.13 291.71L481.13 291.71Q483.43 286.99 484.12 284.1Q485.28 279.18 484.64 272.09Q483.73 262.07 479.28 255.14Q476.63 251.01 470.06 245.01L470.06 245.01Q464.69 240.12 462.54 237.17L459.08 232.43L464.31 229.77ZM468.85 238.68L466.58 234.22L470.62 231.28Q472.18 233.41 476.79 237.63L476.8 237.63Q484.33 244.5 487.7 249.74Q493.47 258.73 494.6 271.18Q495.39 279.9 493.85 286.41Q492.9 290.38 490.12 296.09L490.12 296.09Q487.88 300.7 487.17 303.53Q485.98 308.3 486.46 315.05Q487.86 334.84 499.46 349.61Q513.74 367.79 538.33 367.79L545.13 367.79Q562.34 367.79 571.14 365.85Q579.71 363.96 590.82 357.83L593.23 362.21L590.59 357.96Q597.25 353.82 604.91 345.18Q613.63 335.36 613.98 329.54L618.97 329.84L617.85 334.72Q608.68 332.62 597.13 326.42Q585.77 320.31 579.57 314.27L579.48 314.18L579.39 314.09Q575.02 309.37 566.34 293.55L566.34 293.55L566.34 293.55Q560.59 283.09 557.91 279.18L555.29 275.32L555.26 275.28L555.24 275.25L555.21 275.21L555.21 275.21Q541.47 254.9 532.4 247.39Q517.68 235.18 497.03 235.18L495.7 235.18Q487.59 235.2 480.67 234.45L480.67 234.45Q478.55 234.23 478.09 234.28Q477.28 234.37 471.97 237.09L468.85 238.68ZM212.92 520.45Q235.69 517.13 249.04 512.61Q251.67 511.71 256.42 510.17Q269.39 505.95 274.2 503.08Q281.35 498.81 287.15 489.87Q291.8 483.02 292.18 481.45Q291.5 484.26 294.38 485.97Q296.3 487.11 298.36 486.33Q298.36 486.33 298.37 486.33L297.52 486.65L295.76 486.65Q276.44 487 263.43 483.51Q257.97 482.04 248.37 473.06Q243.08 468.11 231.56 455.93L231.56 455.93Q212.34 435.6 209.52 435.15Q202.22 433.98 196.55 434.05L193.76 434.07L186.5 434.07Q169.78 434.07 155.44 457.61Q149.08 468.05 145.35 480.23Q141.7 492.16 141.7 502.02L141.7 512.76Q141.7 522.42 148.36 534.65Q154.58 546.07 161.24 550.71L158.37 554.81L154.22 552.03Q165.7 534.88 181.66 527.86Q191.36 523.6 212.92 520.45ZM214.36 530.35Q194.14 533.3 185.68 537.02Q172.39 542.86 162.53 557.59L159.69 561.83L155.51 558.91Q146.92 552.92 139.58 539.43Q131.7 524.96 131.7 512.76L131.7 502.02Q131.7 490.67 135.79 477.31Q139.89 463.92 146.9 452.41Q164.17 424.07 186.5 424.07L193.69 424.07L196.43 424.05Q202.96 423.97 211.1 425.27Q215.62 426 223.94 433.83Q228.4 438.03 238.83 449.06L238.83 449.06Q260.99 472.5 266.02 473.85Q277.67 476.97 295.76 476.65L296.61 476.65L296.61 481.65L294.85 476.97Q294.85 476.97 294.85 476.97Q297.28 476.06 299.49 477.37Q302.94 479.43 301.9 483.78Q301.1 487.13 295.54 495.32Q288.48 506.21 279.32 511.67Q273.55 515.11 259.51 519.68Q254.83 521.2 252.25 522.08Q238.04 526.9 214.36 530.35ZM43.34 342.08Q57.33 359.48 61.05 363.44L57.4 366.86L60.85 363.24Q62.52 364.82 65.82 368.05L65.81 368.04Q79.28 381.19 87.39 386.1Q100.65 394.11 116.8 394.18L137.18 394.18L137.18 399.18L136.27 394.26L173.73 387.29L174.64 387.45Q179.87 388.41 183.61 391.57Q188.52 395.72 188.52 401.73L188.52 405.76L174.81 408.74Q156.97 412.48 148.65 417.44Q142.3 421.22 131.89 432.58L128.21 429.2L132.03 432.42Q124.74 441.09 118.16 460.29Q111.17 480.67 111.17 496.09L111.17 501.38L106.17 501.38L111.16 500.96L113.22 525.69L105.29 521.77Q95.1 516.73 82.96 502.09Q69.12 485.4 69.12 473.55L69.12 463.6Q69.12 454.9 72.86 445.05Q74.98 439.48 80.12 429.7L80.12 429.7L80.12 429.7Q85.09 420.25 85.92 416.75L90.78 417.9L89.65 422.77Q76.04 419.6 60.91 407.27Q52.45 400.38 38.56 385.78L36.46 383.58L40.08 380.13L36.55 383.67Q29.73 376.89 20 352.64Q10.27 328.37 9.74 316.72L9.28 306.84L17.51 312.34Q21.66 315.11 43.34 342.08ZM35.54 348.34Q14.83 322.57 11.95 320.65L14.73 316.5L19.72 316.27Q20.18 326.22 29.28 348.92Q38.24 371.25 43.61 376.58L43.65 376.63L45.8 378.89Q59.26 393.03 67.23 399.52Q80.56 410.39 91.92 413.03L96.8 414.17L95.65 419.05Q94.53 423.79 88.97 434.36L88.97 434.36L88.97 434.36Q84.11 443.6 82.21 448.6Q79.12 456.73 79.12 463.6L79.12 473.55Q79.12 481.8 90.66 495.7Q101.44 508.71 109.72 512.8L107.5 517.28L102.52 517.7L101.17 501.58L101.17 496.09Q101.17 479.01 108.7 457.04Q115.89 436.09 124.38 425.99L124.45 425.91L124.52 425.83Q135.92 413.38 143.53 408.85Q153.29 403.03 172.68 398.97L182.46 396.84L183.52 401.73L178.52 401.73Q178.52 398.32 172.85 397.29L173.74 392.37L174.66 397.29L137.64 404.18L116.75 404.18Q97.84 404.1 82.22 394.66Q73.12 389.16 58.86 375.22L58.83 375.2Q55.58 372.03 53.96 370.49L53.86 370.39L53.76 370.29Q49.77 366.05 35.54 348.34ZM327.23 466.23L330.47 460.05Q338.14 445.51 338.49 444.47L343.23 446.06L338.79 448.36Q337.7 446.26 338.56 443.93L338.56 443.93Q338.03 445.35 338.51 446.9Q339.26 449.36 341.61 450.05L341.83 450.12Q341.35 450.09 340.4 450.09L340.4 445.09L344.11 448.44Q343.3 449.34 340.97 451.77Q328.77 464.51 326.25 470.1L326.23 470.14L325.14 472.57L323.94 475.22L323.94 475.23L323.94 475.23Q317.88 488.66 315.14 494.99L310.55 493.01L315.21 494.82Q310.84 506.04 302.47 518.4Q293.74 531.26 285.23 538.5L282 534.68L285.33 538.41Q272.85 549.57 232.75 559.12Q199.88 566.95 170.9 569.39L170.48 564.41L174.74 561.8Q174.28 561.05 173.85 560.79Q174.15 560.97 174.84 561.26Q176.53 561.96 179.59 562.88Q185.52 564.66 194.69 566.72Q215.1 571.3 220.82 571.3L235.78 571.3Q241.95 571.3 253.64 567.79Q263.67 564.78 269.66 561.87L269.84 561.78L270.03 561.71Q273.82 560.23 289.44 550.98L289.39 551.01Q297.53 546.18 298.82 545.75L303.91 544.06L305.24 549.25Q306.32 553.45 313.64 563.07Q319.05 570.18 325.18 576.84L321.51 580.22L324.85 576.51L325.85 577.4L325.85 577.4Q334.08 584.83 338.68 587.26Q345.96 591.1 356.22 591.1Q364.24 591.1 377.52 587.7Q390.25 584.44 391.62 582.55L395.66 585.49L395.66 590.49Q378.63 590.49 346.64 559.35Q335.89 548.89 329.12 537.08Q319.95 521.11 319.95 505.51L319.95 496.99L324.95 496.99L324.95 501.99L319.89 501.99L319.89 496.99Q319.89 489.72 322.15 480.58Q324.27 472.01 327.21 466.28L327.23 466.23ZM336.11 470.83Q333.7 475.54 331.86 482.99Q329.89 490.94 329.89 496.99L324.89 496.99L324.89 491.99L329.95 491.99L329.95 505.51Q329.95 529.16 353.61 552.19Q363.94 562.24 373.82 569.58Q388.5 580.49 395.66 580.49L405.48 580.49L399.71 588.43Q396.22 593.23 380 597.39Q365.5 601.1 356.22 601.1Q343.48 601.1 334.01 596.1Q328.31 593.09 319.15 584.83L319.15 584.83L317.99 583.78L317.83 583.61Q298.29 562.41 295.55 551.74L300.4 550.5L301.97 555.24Q301.71 555.33 294.6 559.54L294.54 559.58Q278.22 569.26 273.66 571.03L271.84 566.37L274.02 570.87Q267.31 574.12 256.52 577.37Q243.42 581.3 235.78 581.3L220.82 581.3Q213.99 581.3 192.5 576.47Q168.74 571.14 166.22 567.03L161.98 560.11L170.06 559.43Q198.29 557.05 230.43 549.4Q268.07 540.43 278.66 530.96L278.71 530.92L278.76 530.87Q286.23 524.53 294.19 512.79Q301.93 501.36 305.89 491.19L305.93 491.11L305.96 491.02Q308.73 484.62 314.82 471.11L314.83 471.1L314.83 471.1L316.02 468.47L317.11 466.04L317.13 466Q320.35 458.83 333.75 444.85Q335.97 442.53 336.68 441.75L338.17 440.09L340.4 440.09Q343.2 440.09 344.44 440.46Q347.25 441.28 348.07 443.97Q348.59 445.66 347.94 447.41L347.94 447.42Q348.62 445.59 347.67 443.76L348.64 445.64L347.97 447.65Q347.37 449.45 339.33 464.69L336.09 470.87L336.11 470.83ZM614.51 373.09Q614.51 384.97 608.47 399.05Q603.6 410.4 596.6 419.6L592.62 416.57L596.67 419.5Q590.8 427.58 576.64 432.96Q563.16 438.08 549.53 438.08L535.95 438.08L533.15 437.11L449.25 352.55L449.25 349.86Q449.25 344.88 454.98 341.79Q457.17 340.61 461.87 339.07L461.87 339.07L461.93 339.05L462.43 338.89L468.18 336.98L469.35 342.44Q470.92 349.81 478.96 360.52Q485.6 369.37 492.88 375.9Q502.4 384.15 511.3 387.89Q522.27 392.49 536.79 392.49L540.81 392.49Q553.87 392.49 577.56 384.21L577.74 384.15L577.92 384.1Q586.51 381.8 596.53 375.06L596.53 375.06Q603.06 370.68 607.32 368.6L614.51 365.1L614.51 373.09ZM604.51 373.09L609.51 373.09L611.7 377.59Q608.06 379.36 602.11 383.36L602.11 383.36Q590.7 391.02 580.51 393.76L579.21 388.93L580.86 393.65Q555.57 402.49 540.81 402.49L536.79 402.49Q520.26 402.49 507.44 397.11Q497.06 392.76 486.2 383.34Q478.19 376.15 470.97 366.53Q461.61 354.06 459.57 344.53L464.46 343.48L466.03 348.23L465.55 348.39L465.04 348.56L464.98 348.57L464.98 348.57Q461.13 349.84 459.72 350.6Q459.02 350.97 458.83 351.18Q459.25 350.72 459.25 349.86L459.25 350.49L454.25 350.49L457.8 346.97L539.43 429.24L535.88 432.76L537.51 428.03L538.42 428.35L536.79 433.08L536.79 428.08L549.53 428.08Q561.33 428.08 573.09 423.61Q584.46 419.29 588.58 413.63L588.61 413.58L588.64 413.54Q594.9 405.33 599.28 395.11Q604.51 382.92 604.51 373.09ZM379.45 460.52L454.86 536.62L454.86 545.35L449.86 545.35L454.81 544.66L458.97 574.83L438.33 574.83Q421.95 574.83 406.45 567.12Q391.74 559.8 384.08 548.89L384 548.79L383.94 548.68Q382.42 546.27 378.3 540.43Q369.4 527.81 365.61 520.59Q358.76 507.58 358.76 497.06L358.76 485.84Q358.76 475.67 372.17 460.7L375.71 456.75L379.45 460.52ZM372.35 467.56L375.9 464.04L379.62 467.38Q368.76 479.5 368.76 485.84L368.76 497.06Q368.76 505.11 374.46 515.94Q377.95 522.58 386.48 534.67Q390.75 540.73 392.4 543.36L388.17 546.02L392.26 543.15Q398.46 551.98 410.9 558.16Q424.3 564.83 438.33 564.83L453.23 564.83L453.23 569.83L448.28 570.51L444.86 545.69L444.86 538.68L449.86 538.68L446.31 542.2L372.35 467.56Z" fill="#242424" fill-opacity="0.1" fill-rule="evenodd"/>
</svg>
