<svg width="82" height="20" viewBox="0 0 82 20" fill="none" xmlns="http://www.w3.org/2000/svg">
<g clip-path="url(#clip0_335_374)">
<path fill-rule="evenodd" clip-rule="evenodd" d="M5.32055 0.00329981V9.28565C5.32055 14.4169 8.9327 18.7363 13.7119 19.7626H7.01904C3.16241 19.7626 0.00341797 16.5683 0.00341797 12.6614V0.00329981H5.32055ZM12.509 0.00329981H10.9115V8.00865C10.9115 11.7242 13.9141 14.7633 17.5849 14.7633H19.5213V7.1012C19.5213 3.19751 16.3656 0 12.5057 0L12.509 0.00329981Z" fill="#009741"/>
<path fill-rule="evenodd" clip-rule="evenodd" d="M5.86176 19.6634C5.42168 19.5051 4.99133 19.317 4.58057 19.1058C4.68163 19.0299 4.78269 18.954 4.88375 18.8781C5.26845 19.1586 5.64659 19.4292 6.02151 19.6898C5.96609 19.6832 5.91393 19.6733 5.8585 19.6634H5.86176Z" fill="#0BA24C"/>
<path fill-rule="evenodd" clip-rule="evenodd" d="M5.32042 7.45089C4.54125 8.12074 3.74905 8.84339 2.95687 9.61229C3.76862 8.99519 4.56081 8.43754 5.32042 7.93599V9.28559C5.32042 11.8825 6.24628 14.2716 7.77849 16.1294C6.9374 16.7035 6.12891 17.2084 5.3628 17.6374H5.35954C5.0596 17.8057 4.76945 17.9608 4.48256 18.106L4.47279 18.1126L4.45975 18.1192L4.10114 18.2907L4.1044 18.294C4.02616 18.3303 3.95118 18.3666 3.87294 18.4029L3.85664 18.4095C3.76536 18.4524 3.67733 18.492 3.58605 18.5316C2.49394 17.8156 1.53548 16.9081 0.756332 15.8588C0.273844 14.8985 0 13.8129 0 12.6646V11.2292C1.05951 12.6316 2.3016 14.0967 3.6969 15.5783C2.31137 13.7073 1.21274 11.9518 0.449887 10.3976L0.443367 10.3844V10.3811L0.270584 10.0148L0.267324 10.0181C0.231463 9.94224 0.195603 9.86634 0.163003 9.79044L0.156482 9.77394C0.101062 9.65519 0.0521609 9.53309 0 9.41759V4.46127C1.00409 3.71552 2.89166 3.9432 5.31716 4.95295V7.45089H5.32042ZM10.9114 5.23344C12.1926 4.93975 13.1836 5.06514 13.7737 5.67559C14.8625 6.80084 14.4159 9.37469 12.799 12.7042C11.6318 11.4865 10.9114 9.83004 10.9114 8.00854V5.23014V5.23344ZM12.9392 19.5678C12.8903 19.6371 12.8381 19.7031 12.7794 19.7658H7.9415C7.12323 19.4655 6.2365 19.0629 5.29107 18.5712C6.15825 17.8981 7.05151 17.1556 7.95775 16.3439C9.26832 17.8519 10.9896 18.987 12.9392 19.5678Z" fill="#0BA24C"/>
<path fill-rule="evenodd" clip-rule="evenodd" d="M19.5247 13.7041C19.3486 14.0901 19.1628 14.4432 18.99 14.7633H17.5849C15.9191 14.7633 14.3934 14.1363 13.2197 13.1068C16.7569 8.03505 18.3282 3.70568 16.8384 2.26037C15.8441 1.29352 13.6664 1.78849 10.9116 3.3757V0.00329981H12.509C16.3657 0.00329981 19.5247 3.19751 19.5247 7.1045V13.7074V13.7041ZM5.32066 3.93997C3.89926 3.03252 2.5659 2.30986 1.37598 1.80169C1.98235 1.11863 2.66696 0.51477 3.42329 0H5.32392V3.93997H5.32066Z" fill="#0BA24C"/>
<path fill-rule="evenodd" clip-rule="evenodd" d="M68.9727 5.43496C70.1331 5.43496 71.0622 5.77811 71.7632 6.46451C72.4641 7.15086 72.8129 8.16721 72.8129 9.51681V14.8526H70.6616V9.79731C70.6616 8.98226 70.4724 8.37176 70.094 7.95931C69.7161 7.54681 69.1747 7.33896 68.4738 7.33896C67.6815 7.33896 67.0556 7.57981 66.5962 8.06161C66.1363 8.54336 65.9081 9.23961 65.9081 10.1438V14.8493H63.7568V5.54056H65.8073V6.74496C66.1625 6.31601 66.6125 5.98931 67.1504 5.76821C67.6913 5.54716 68.2979 5.43826 68.9762 5.43826L68.9727 5.43496ZM57.0378 7.17726C56.3496 7.17726 55.7663 7.38516 55.2901 7.79761C54.8144 8.21011 54.5239 8.75786 54.4197 9.44421H59.639C59.5476 8.77106 59.2641 8.22331 58.7948 7.80421C58.3256 7.38516 57.7387 7.17726 57.0378 7.17726ZM61.6866 10.2461C61.6866 10.3979 61.6767 10.6124 61.654 10.8928H54.436C54.5634 11.5792 54.8924 12.1204 55.4274 12.523C55.9619 12.9255 56.6238 13.1235 57.4156 13.1235C58.4263 13.1235 59.2577 12.7869 59.9132 12.1138L61.0671 13.4568C60.6532 13.9551 60.1315 14.3345 59.4987 14.5886C58.8665 14.8427 58.1556 14.9714 57.3638 14.9714C56.3531 14.9714 55.463 14.7668 54.6938 14.3609C53.9242 13.9551 53.331 13.3875 52.9106 12.6615C52.4897 11.9356 52.2813 11.1139 52.2813 10.1933C52.2813 9.28581 52.4868 8.47076 52.8943 7.74481C53.3018 7.01886 53.8654 6.45131 54.5891 6.04541C55.3133 5.63956 56.1279 5.43496 57.0343 5.43496C57.9309 5.43496 58.7296 5.63626 59.437 6.03551C60.1444 6.43811 60.6956 6.99906 61.0898 7.72831C61.4875 8.45426 61.6831 9.29571 61.6831 10.2461H61.6866ZM46.2208 10.8565L44.6201 12.391V14.8493H42.4652V1.91406H44.6201V9.72471L49.0799 5.54056H51.6653L47.8247 9.44421L52.0269 14.8493H49.4093L46.224 10.8565H46.2208ZM35.4887 13.1037C36.2809 13.1037 36.9361 12.8364 37.4513 12.3019C37.9696 11.7673 38.2272 11.0644 38.2272 10.1933C38.2272 9.32211 37.9696 8.61926 37.4513 8.08471C36.9361 7.55011 36.2809 7.28286 35.4887 7.28286C34.6965 7.28286 34.0445 7.55011 33.5327 8.08471C33.0208 8.61926 32.7665 9.32211 32.7665 10.1933C32.7665 11.0644 33.0208 11.7673 33.5327 12.3019C34.0445 12.8364 34.6965 13.1037 35.4887 13.1037ZM35.4887 14.9681C34.5596 14.9681 33.7217 14.7635 32.9752 14.3576C32.2287 13.9518 31.6451 13.3842 31.2278 12.6582C30.8073 11.9323 30.5986 11.1106 30.5986 10.19C30.5986 9.27261 30.8073 8.45426 31.2278 7.73161C31.6484 7.01226 32.2287 6.44801 32.9752 6.04211C33.7217 5.63626 34.5596 5.43166 35.4887 5.43166C36.4309 5.43166 37.2752 5.63626 38.0218 6.04211C38.7683 6.44801 39.3519 7.01226 39.7691 7.73161C40.1897 8.45096 40.3983 9.27261 40.3983 10.19C40.3983 11.1073 40.1897 11.929 39.7691 12.6582C39.3486 13.3842 38.7683 13.9518 38.0218 14.3576C37.2752 14.7635 36.4309 14.9681 35.4887 14.9681ZM29.8912 14.3411C29.6402 14.549 29.3305 14.7074 28.9686 14.813C28.6067 14.9186 28.2253 14.9714 27.8243 14.9714C26.8137 14.9714 26.0345 14.7041 25.4836 14.1696C24.9327 13.635 24.6556 12.8562 24.6556 11.8333V7.35216H23.1396V5.60986H24.6556V3.48147H26.8072V5.60986H29.2718V7.35216H26.8072V11.7805C26.8072 12.2326 26.9148 12.579 27.1332 12.8166C27.3516 13.0542 27.6679 13.173 28.0819 13.173C28.5643 13.173 28.9654 13.0443 29.2881 12.7902L29.8912 14.3411Z" fill="#ABABAB"/>
<path fill-rule="evenodd" clip-rule="evenodd" d="M81.9999 4.32939V5.02565H78.8281V4.47458L80.8425 2.00303H78.8671V1.30677H81.9446V1.85784L79.9232 4.32939H81.9999ZM78.0031 1.30677V5.02565H77.1846V4.55048C77.0478 4.71877 76.8749 4.84746 76.6699 4.93656C76.4644 5.02565 76.2392 5.07185 76.0016 5.07185C75.5091 5.07185 75.1243 4.93326 74.8407 4.65607C74.5572 4.37889 74.4169 3.96971 74.4169 3.42854V1.30347H75.2779V3.30975C75.2779 3.64303 75.3525 3.89382 75.5026 4.05881C75.6528 4.2238 75.8647 4.30629 76.1384 4.30629C76.4447 4.30629 76.6892 4.2106 76.8719 4.01591C77.0542 3.82452 77.1426 3.54404 77.1426 3.18436V1.30347H78.0031V1.30677ZM73.0412 5.07515C72.8846 5.07515 72.7512 5.01905 72.6435 4.91016C72.5329 4.80126 72.4775 4.66267 72.4775 4.49438C72.4775 4.32279 72.5294 4.1842 72.6405 4.07531C72.7477 3.96971 72.8816 3.91362 73.0412 3.91362C73.2012 3.91362 73.3346 3.96641 73.4457 4.07531C73.5529 4.1809 73.6087 4.32279 73.6087 4.49438C73.6087 4.66267 73.5529 4.80126 73.4423 4.91016C73.3316 5.01905 73.1978 5.07515 73.0446 5.07515H73.0412Z" fill="#ABABAB"/>
</g>
<defs>
<clipPath id="clip0_335_374">
<rect width="82" height="20" fill="white"/>
</clipPath>
</defs>
</svg>
