<svg width="192" height="33" viewBox="0 0 192 33" fill="none" xmlns="http://www.w3.org/2000/svg">
<path d="M190.05 20.6182H187.562L187.566 4.40715L182.953 16.6153C181.948 19.0324 178.668 18.6615 177.97 16.6153L173.308 5.17998L173.321 9.55385V16.0598V16.195V16.3302V16.4673V16.5056V18.6615C173.307 19.9459 172.636 20.5634 171.371 20.6182H169.271V17.231V2.57101L169.273 2.5235L169.275 2.47966L169.278 2.43215L169.282 2.38648L169.289 2.3408L169.296 2.29696L169.306 2.24945L169.315 2.2056L169.326 2.15993L169.338 2.11425H169.34L169.353 2.07041L169.368 2.02656L169.384 1.98271L169.402 1.93703L169.42 1.89501L169.439 1.85116L169.46 1.80732L169.482 1.76529L169.504 1.72327L169.528 1.68125L169.551 1.64106H169.553L169.577 1.59904L169.604 1.55884L169.632 1.52048L169.661 1.48028L169.69 1.44191L169.719 1.40355L169.75 1.36701L169.783 1.33047L169.815 1.29393L169.848 1.25739L169.881 1.22267L169.916 1.18979L169.952 1.15507L169.989 1.12219L170.025 1.09113L170.061 1.06007L170.1 1.03084L170.138 1.0016L170.178 0.972371L170.218 0.944966L170.258 0.917561L170.298 0.891983L170.34 0.868232L170.38 0.84448L170.422 0.820729L170.464 0.798805L170.508 0.778708L170.551 0.760438L170.595 0.740341L170.637 0.723898H170.639L170.682 0.707455L170.726 0.692838L170.772 0.678222L170.815 0.665433L170.861 0.654471L170.906 0.643509L170.95 0.636201H170.952L170.996 0.627066L171.043 0.621585L171.088 0.616104L171.134 0.614277L171.179 0.610623H171.225H171.706H175.851L180.609 13.3668L185.213 1.69587C185.573 0.972371 186.152 0.606969 186.955 0.610623H190.06H192V18.6615C191.994 20.0007 191.455 20.6146 190.05 20.6182Z" fill="white"/>
<path d="M156.105 20.9654C153.246 20.9654 150.92 20.0318 149.121 18.1701C147.322 16.3029 146.426 13.873 146.426 10.8785C146.426 7.71595 147.336 5.15814 149.163 3.20689C150.991 1.25381 153.408 0.272705 156.422 0.272705C159.27 0.272705 161.572 1.21179 163.329 3.07717C165.085 4.94986 165.964 7.41632 165.964 10.4729C165.964 13.6172 165.052 16.1549 163.229 18.0788C161.411 20.0026 159.033 20.9654 156.105 20.9654ZM156.298 4.15328C154.723 4.15328 153.47 4.74523 152.545 5.93462C151.618 7.12035 151.153 8.68792 151.153 10.641C151.153 12.6215 151.618 14.1891 152.545 15.3456C153.47 16.4984 154.684 17.0739 156.185 17.0739C157.737 17.0739 158.962 16.513 159.873 15.3931C160.78 14.2694 161.235 12.7165 161.235 10.7269C161.235 8.64956 160.794 7.03448 159.916 5.88346C159.033 4.73062 157.828 4.15328 156.298 4.15328Z" fill="white"/>
<path d="M143.465 20.3187C142.146 20.7663 140.742 20.9654 138.845 20.9654C135.787 20.9654 133.38 20.0647 131.63 18.2596C129.872 16.4546 129 14.0502 129 11.0448C129 7.84567 129.982 5.24949 131.952 3.25804C133.922 1.26843 136.481 0.272705 139.622 0.272705C140.802 0.272705 141.62 0.347613 142.476 0.497428C143.654 0.702053 144.519 1.10217 144.545 2.53089V3.70201C144.426 4.90601 143.427 4.79091 142.88 4.61917C141.975 4.33781 141.021 4.15328 139.985 4.15328C138.113 4.15328 136.599 4.74523 135.45 5.92548C134.301 7.10573 133.728 8.70619 133.728 10.7269C133.728 12.6598 134.268 14.2018 135.356 15.351C136.437 16.4984 137.9 17.0739 139.737 17.0739C140.979 17.0739 141.788 16.756 142.931 16.5002C143.605 16.3486 144.547 16.6574 144.545 17.3808V18.435C144.508 19.6098 144.151 20.0867 143.465 20.3187Z" fill="white"/>
<path d="M117.079 20.9654C114.222 20.9654 111.897 20.0318 110.097 18.1701C108.298 16.3029 107.4 13.873 107.4 10.8785C107.4 7.71595 108.313 5.15814 110.139 3.20689C111.968 1.25381 114.384 0.272705 117.398 0.272705C120.246 0.272705 122.548 1.21179 124.304 3.07717C126.061 4.94986 126.939 7.41632 126.939 10.4729C126.939 13.6172 126.028 16.1549 124.205 18.0788C122.388 20.0026 120.01 20.9654 117.079 20.9654ZM117.274 4.15328C115.699 4.15328 114.446 4.74523 113.519 5.93462C112.594 7.12035 112.128 8.68792 112.128 10.641C112.128 12.6215 112.594 14.1891 113.519 15.3456C114.446 16.4984 115.661 17.0739 117.16 17.0739C118.713 17.0739 119.939 16.513 120.849 15.3931C121.756 14.2694 122.211 12.7165 122.211 10.7269C122.211 8.64956 121.771 7.03448 120.891 5.88346C120.01 4.73062 118.802 4.15328 117.274 4.15328Z" fill="white"/>
<path d="M105.369 4.27741H98.3346V9.19207H102.845C103.823 9.19207 104.799 10.1732 104.799 11.1525V12.8461H98.3346V20.6182H95.7924C94.8163 20.6182 93.8384 19.6371 93.8384 18.6578V0.610596H103.415C104.392 0.610596 105.369 1.5917 105.369 2.57098V4.27741Z" fill="white"/>
<path d="M86.8667 20.6235C86.1292 20.6107 85.1112 20.7879 83.9821 19.4451L76.5266 8.04451C76.0477 7.31005 75.7108 6.75829 75.525 6.38741H75.4722C75.5433 7.09264 75.5815 8.1724 75.5815 9.62122V19.0888C75.5815 19.7849 75.0971 20.618 74.436 20.618H73.2924H71.3384V18.6576V17.4774V2.57078C71.5351 1.06898 73.0265 0.57751 74.0135 0.610396C75.0989 0.57751 76.024 0.710882 76.9346 1.77238L84.0932 12.7874C84.4538 13.341 84.7852 13.8836 85.0948 14.4208H85.1513C85.0766 13.9585 85.0384 13.0396 85.0384 11.673V2.55434C85.0384 1.5915 86.0145 0.610396 86.9978 0.610396H89.2797L89.2815 2.57078V14.9853V18.6576C89.2268 20.1156 87.7773 20.6399 86.8667 20.6235Z" fill="white"/>
<path d="M64.8558 20.6182H62.3154C62.3154 14.6019 62.3154 8.5855 62.3154 2.57098C62.3154 1.58987 63.2915 0.610596 64.2676 0.610596H66.8099V18.6633C66.8099 19.6371 65.8338 20.6182 64.8558 20.6182Z" fill="white"/>
<path d="M57.4474 20.6182H45.2716C43.5252 20.6182 42.7877 18.5957 43.9459 17.1761L53.5375 4.27741H44.0533V2.57463C44.0533 1.5917 45.0294 0.610596 46.0183 0.610596H57.1086H59.3522C59.4269 2.12153 59.1228 3.44064 58.347 4.52588L49.3563 16.9587H59.3813V18.6633C59.3813 19.6371 58.4052 20.6182 57.4474 20.6182Z" fill="white"/>
<path d="M40.6891 11.9545C40.6891 17.9599 37.8974 20.9653 32.3212 20.9653C26.9035 20.9653 24.1974 18.0312 24.1992 12.1646L24.201 2.57098C24.201 1.58987 24.7601 0.610596 26.1551 0.610596H28.7027V12.2158C28.7027 15.4551 29.9666 17.0738 32.4869 17.0738C34.96 17.0738 36.1983 15.5117 36.1983 12.3839V2.57098C36.1983 1.58987 37.1944 0.610596 38.1487 0.610596H40.6891V11.9545Z" fill="white"/>
<path fill-rule="evenodd" clip-rule="evenodd" d="M19.7951 0.636108H2.6005C1.16913 0.636108 0 1.81088 0 3.24508V3.82607C0.469838 3.89733 0.992488 4.03618 1.55884 4.23898C3.33986 4.87295 5.55793 6.12628 7.9399 7.85646C9.87571 6.40947 11.6585 5.37538 13.1027 4.86016C14.514 4.35956 15.6103 4.35225 16.2222 4.9442C16.9178 5.61106 16.8887 6.94844 16.2695 8.69871C15.6376 10.4874 14.3883 12.7127 12.6638 15.1024C14.1061 17.0445 15.1368 18.8313 15.6504 20.282C15.6758 20.3532 15.6995 20.4263 15.7232 20.4976H17.1964C18.626 20.4976 19.7951 19.3246 19.7951 17.8886V0.636108ZM0 11.5909V17.8886C0 18.8642 0.54086 19.7193 1.33667 20.1669C1.94491 20.1851 2.67881 20.0353 3.51468 19.7339C5.21557 19.12 7.33349 17.8776 9.6499 16.1383C9.66811 16.1237 9.69542 16.1273 9.70999 16.1456C9.72274 16.1621 9.72092 16.1876 9.70453 16.2023C9.05258 16.8253 8.40246 17.4172 7.76144 17.9708C7.10767 18.5335 6.46301 19.0597 5.83474 19.542H5.83292L5.46688 19.8216H5.46506C5.15001 20.0591 4.83861 20.2838 4.53084 20.4976H12.5582C13.1518 19.8106 13.1172 18.5993 12.5582 17.0354C11.9463 15.3271 10.7079 13.2023 8.97246 10.8783C8.95971 10.8601 8.96335 10.8345 8.98156 10.8199C8.99795 10.8071 9.02345 10.8089 9.03619 10.8235H9.03802C9.659 11.4794 10.249 12.1317 10.8008 12.7748C11.3453 13.4124 11.857 14.0409 12.3269 14.6548C13.1409 13.0598 13.6672 11.6457 13.8548 10.5038C14.0369 9.40029 13.9021 8.55255 13.4086 8.04647C12.7421 7.36499 11.4983 7.37413 9.86843 7.96243C8.16572 8.5763 6.0478 9.81867 3.73139 11.558C3.71318 11.5726 3.68769 11.5689 3.67312 11.5507C3.66037 11.5324 3.66219 11.5087 3.67676 11.494C4.3287 10.871 4.97883 10.2791 5.61985 9.72732C6.25541 9.17922 6.88186 8.66765 7.49556 8.19446C5.90576 7.37596 4.49624 6.84978 3.35807 6.66159C2.25814 6.47889 1.41316 6.61409 0.908718 7.10921C0.227635 7.7779 0.238561 9.02575 0.824949 10.6609C1.43683 12.3692 2.67516 14.494 4.40883 16.8161C4.4234 16.8362 4.41976 16.8618 4.39973 16.8764C4.38334 16.8892 4.35966 16.8874 4.34509 16.8709C3.72229 16.2169 3.13408 15.5646 2.58229 14.9215C2.0214 14.2674 1.49693 13.6189 1.01434 12.9885L0.737537 12.6195L0.735716 12.6177C0.477123 12.2705 0.231277 11.927 0 11.5909Z" fill="white"/>
<path d="M75.0503 32.8867L76.0847 28.036H78.962L78.8072 28.7431H76.6401L76.387 29.9306H78.5322L78.3829 30.6304H76.2449L75.9135 32.187H78.0533L77.9039 32.8867H75.0503ZM80.275 31.8618L80.9542 31.5C81.1382 32.0372 81.3804 32.3057 81.6827 32.3057C81.8921 32.3057 82.0742 32.2454 82.2345 32.1267C82.3947 32.0079 82.4967 31.849 82.544 31.6498C82.5513 31.6115 82.555 31.5658 82.555 31.5128C82.555 31.374 82.4603 31.2022 82.2691 30.9939C82.2071 30.9263 82.0815 30.793 81.8957 30.5938L81.5224 30.1992C81.4059 30.075 81.3294 29.9763 81.2911 29.905C81.2037 29.7351 81.16 29.5579 81.16 29.3752C81.16 29.346 81.1637 29.304 81.1728 29.2491C81.1819 29.1943 81.1855 29.1541 81.1855 29.1249C81.2274 28.9623 81.2966 28.8052 81.3968 28.6554C81.5971 28.3594 81.8575 28.1493 82.1816 28.025C82.3528 27.9574 82.5167 27.9246 82.6733 27.9246C82.9574 27.9246 83.1996 28.0123 83.4036 28.1876C83.5602 28.3247 83.7168 28.5366 83.8698 28.8235L83.2033 29.2619L83.0102 28.944C82.9319 28.8143 82.8245 28.7248 82.6861 28.6736L82.5185 28.6499C82.3237 28.6499 82.1707 28.7065 82.0596 28.818C81.9504 28.9312 81.8957 29.0847 81.8957 29.2802C81.8957 29.3716 81.9558 29.4958 82.076 29.6493C82.1052 29.6876 82.147 29.7278 82.1999 29.7735L82.544 30.0622C83.0576 30.4952 83.3162 30.9373 83.3162 31.3867C83.3162 31.8654 83.0958 32.271 82.6551 32.5999C82.2982 32.8666 81.9413 33 81.5843 33C81.231 33 80.9469 32.894 80.7302 32.6803C80.5518 32.5049 80.4006 32.2327 80.275 31.8618ZM87.308 28.7376H86.2791L86.4284 28.036H89.1964L89.0453 28.7376H88.0218L87.1368 32.8867H86.4229L87.308 28.7376ZM91.4054 31.9495C91.5183 31.9495 91.613 31.9897 91.6895 32.0719C91.766 32.1523 91.8042 32.2491 91.8042 32.3624C91.8042 32.408 91.8024 32.4409 91.7988 32.461C91.7733 32.5944 91.6986 32.715 91.5766 32.8191C91.4546 32.9233 91.3253 32.9744 91.1869 32.9744C91.0721 32.9744 90.9756 32.9324 90.8973 32.8502C90.8208 32.7661 90.7826 32.6657 90.7826 32.5487C90.7826 32.5085 90.7844 32.4793 90.7899 32.461C90.8227 32.324 90.8991 32.2052 91.0193 32.1029C91.1395 32.0006 91.2688 31.9495 91.4054 31.9495ZM97.4168 29.7315H96.7302C96.8395 29.2144 97.0708 28.7887 97.4295 28.4562C97.8065 28.1018 98.2508 27.9246 98.7626 27.9246C98.9611 27.9246 99.1505 27.9648 99.3289 28.0433C99.6786 28.1968 99.8953 28.4617 99.9827 28.8362C100.005 28.9239 100.014 29.0135 100.014 29.1048C100.014 29.6931 99.7241 30.243 99.1413 30.7564L98.6679 31.1748L97.4969 32.1925H99.4528L99.3107 32.8867H95.7906L98.7189 30.2887C98.8281 30.1919 98.9319 30.0823 99.0303 29.9562C99.2124 29.7278 99.3034 29.4921 99.3034 29.2491C99.3034 29.05 99.236 28.8929 99.1013 28.7796C98.9665 28.6682 98.7972 28.6115 98.5932 28.6115C98.1871 28.6115 97.863 28.8015 97.6226 29.1815L97.5097 29.399C97.506 29.4044 97.4751 29.5141 97.4168 29.7315ZM102.119 30.4623C102.255 29.7735 102.481 29.2126 102.798 28.7741C103.204 28.2077 103.714 27.9246 104.324 27.9246C104.823 27.9246 105.182 28.131 105.402 28.5439C105.532 28.7851 105.595 29.0482 105.595 29.3314C105.595 29.768 105.562 30.1444 105.495 30.4623C105.359 31.1127 105.122 31.6736 104.785 32.1486C104.382 32.7168 103.869 33 103.246 33C102.636 33 102.248 32.7186 102.081 32.1559C102.028 31.9732 102 31.6992 102 31.3374C102 31.1986 102.013 31.0524 102.037 30.8935C102.05 30.8149 102.077 30.6706 102.119 30.4623ZM102.802 30.4751C102.784 30.5372 102.762 30.6523 102.736 30.8185C102.694 31.0926 102.672 31.2991 102.672 31.4361C102.672 32.0372 102.916 32.3368 103.403 32.3368C103.838 32.3368 104.2 32.0481 104.486 31.469C104.703 31.0341 104.838 30.5518 104.89 30.0183C104.907 29.8557 104.916 29.7223 104.916 29.6182C104.916 28.9477 104.676 28.6115 104.195 28.6115C103.801 28.6115 103.485 28.8143 103.248 29.2181C103.104 29.4684 103.011 29.673 102.969 29.8301L102.802 30.4751ZM107.762 30.4623C107.899 29.7735 108.125 29.2126 108.442 28.7741C108.848 28.2077 109.356 27.9246 109.968 27.9246C110.465 27.9246 110.825 28.131 111.046 28.5439C111.173 28.7851 111.239 29.0482 111.239 29.3314C111.239 29.768 111.204 30.1444 111.139 30.4623C111.002 31.1127 110.765 31.6736 110.428 32.1486C110.026 32.7168 109.512 33 108.89 33C108.28 33 107.89 32.7186 107.724 32.1559C107.669 31.9732 107.644 31.6992 107.644 31.3374C107.644 31.1986 107.657 31.0524 107.68 30.8935C107.693 30.8149 107.72 30.6706 107.762 30.4623ZM108.443 30.4751C108.427 30.5372 108.405 30.6523 108.38 30.8185C108.338 31.0926 108.316 31.2991 108.316 31.4361C108.316 32.0372 108.56 32.3368 109.044 32.3368C109.481 32.3368 109.842 32.0481 110.13 31.469C110.345 31.0341 110.479 30.5518 110.534 30.0183C110.55 29.8557 110.56 29.7223 110.56 29.6182C110.56 28.9477 110.317 28.6115 109.838 28.6115C109.443 28.6115 109.128 28.8143 108.891 29.2181C108.748 29.4684 108.653 29.673 108.613 29.8301L108.443 30.4751ZM114.346 29.7315H113.661C113.768 29.2144 114.001 28.7887 114.358 28.4562C114.735 28.1018 115.18 27.9246 115.691 27.9246C115.89 27.9246 116.079 27.9648 116.258 28.0433C116.607 28.1968 116.826 28.4617 116.911 28.8362C116.933 28.9239 116.944 29.0135 116.944 29.1048C116.944 29.6931 116.653 30.243 116.072 30.7564L115.598 31.1748L114.427 32.1925H116.383L116.239 32.8867H112.719L115.649 30.2887C115.757 30.1919 115.861 30.0823 115.959 29.9562C116.141 29.7278 116.234 29.4921 116.234 29.2491C116.234 29.05 116.165 28.8929 116.03 28.7796C115.895 28.6682 115.726 28.6115 115.524 28.6115C115.116 28.6115 114.792 28.8015 114.551 29.1815L114.438 29.399C114.435 29.4044 114.404 29.5141 114.346 29.7315Z" fill="white"/>
<path fill-rule="evenodd" clip-rule="evenodd" d="M53.4694 29.9944H62.7259C62.9098 29.9944 63.061 30.146 63.061 30.3306C63.061 30.5151 62.9098 30.6649 62.7259 30.6649H53.4694C53.2854 30.6649 53.1343 30.5151 53.1343 30.3306C53.1343 30.146 53.2854 29.9944 53.4694 29.9944Z" fill="white"/>
<path fill-rule="evenodd" clip-rule="evenodd" d="M128.661 29.9944H137.919C138.103 29.9944 138.254 30.146 138.254 30.3306C138.254 30.5151 138.103 30.6649 137.919 30.6649H128.661C128.477 30.6649 128.328 30.5151 128.328 30.3306C128.328 30.146 128.477 29.9944 128.661 29.9944Z" fill="white"/>
</svg>
